<?xml version="1.0" encoding="UTF-8" standalone="no"?>
<!-- Created with Inkscape (http://www.inkscape.org/) -->

<svg
   version="1.1"
   id="svg2"
   width="622.08301"
   height="625.73169"
   viewBox="0 0 622.08301 625.73168"
   sodipodi:docname="eirlab_logo.png"
   inkscape:version="1.1 (ce6663b3b7, 2021-05-25)"
   xmlns:inkscape="http://www.inkscape.org/namespaces/inkscape"
   xmlns:sodipodi="http://sodipodi.sourceforge.net/DTD/sodipodi-0.dtd"
   xmlns="http://www.w3.org/2000/svg"
   xmlns:svg="http://www.w3.org/2000/svg">
  <defs
     id="defs6" />
  <sodipodi:namedview
     id="namedview4"
     pagecolor="#ffffff"
     bordercolor="#666666"
     borderopacity="1.0"
     inkscape:pageshadow="2"
     inkscape:pageopacity="0.0"
     inkscape:pagecheckerboard="0"
     showgrid="false"
     inkscape:zoom="0.90197309"
     inkscape:cx="289.36562"
     inkscape:cy="322.62603"
     inkscape:window-width="1600"
     inkscape:window-height="863"
     inkscape:window-x="3064"
     inkscape:window-y="0"
     inkscape:window-maximized="1"
     inkscape:current-layer="g16746" />
  <g
     inkscape:groupmode="layer"
     inkscape:label="Image"
     id="g8"
     transform="translate(-336.83018,-336.15906)">
    <g
       id="g16746"
       inkscape:export-filename="/home/sedelpeuch/eirlab.png"
       inkscape:export-xdpi="96"
       inkscape:export-ydpi="96">
      <g
         id="g16917"
         inkscape:export-filename="/home/sedelpeuch/eirlab/eirlab_logo.png"
         inkscape:export-xdpi="96"
         inkscape:export-ydpi="96"
         transform="matrix(3.6926919,0,0,3.6926919,-2582.0579,-905.17286)">
        <path
           style="fill:#6bb100;fill-opacity:1;stroke:none;stroke-width:0.104757"
           d="m 792.40432,169.47828 c -6.69065,-0.69414 -11.22552,-3.63164 -13.83385,-8.961 -1.93047,-3.94437 -2.66507,-8.18965 -2.40425,-13.89428 0.3486,-7.62441 2.50063,-16.37883 6.32062,-25.71217 2.56317,-6.26257 6.84094,-13.57664 10.89908,-18.63505 3.66041,-4.562666 8.40779,-8.845465 11.79331,-10.63923 2.75261,-1.458421 10.77131,-3.787998 14.8979,-4.328105 1.83236,-0.239829 1.84909,-0.07735 0.30737,2.985878 -3.04681,6.053684 -4.39563,11.306157 -4.39563,17.117067 0,6.7821 1.30253,12.77871 5.53707,25.49169 4.97244,14.92834 6.31115,21.01032 5.55172,25.22248 -0.98222,5.44782 -4.53243,7.74452 -15.16638,9.81141 -7.31567,1.42193 -14.88949,2.02037 -19.50696,1.54131 z"
           id="path15485"
           transform="translate(50.235233,335.96952)" />
        <path
           style="fill:#009edc;fill-opacity:1;stroke:none;stroke-width:0.104757"
           d="m 749.83232,87.209581 c -3.38265,-1.168876 -4.66325,-2.753824 -6.30246,-7.800338 -2.13013,-6.557845 -3.28459,-14.234272 -3.31384,-22.035026 -0.0224,-5.977204 0.22952,-7.583147 1.66228,-10.595891 1.12301,-2.361438 3.83189,-5.245486 6.28852,-6.695168 3.37922,-1.994114 8.02888,-3.080945 13.18083,-3.080945 15.58488,0 36.73646,8.627182 48.95395,19.967044 4.85247,4.503903 7.03388,7.356073 8.60509,11.251077 2.03467,5.043884 3.94153,13.032703 3.27088,13.703355 -0.32161,0.321609 -2.77616,-0.520562 -5.4994,-1.886877 -2.12443,-1.065875 -5.3769,-2.180079 -8.41415,-2.882448 -3.0313,-0.700991 -9.98259,-1.001177 -12.60577,-0.54437 -2.5934,0.451623 -8.88252,2.307826 -18.88048,5.572489 -13.02298,4.252432 -18.44709,5.550512 -23.11919,5.532814 -1.55572,-0.0059 -2.89025,-0.182275 -3.82626,-0.505716 z"
           id="path14665"
           transform="translate(50.235233,335.96952)" />
        <path
           style="fill:#f78500;fill-opacity:1;stroke:none;stroke-width:0.104757"
           d="m 827.24669,81.401908 c -0.0764,-0.123585 0.525,-1.651485 1.3364,-3.395334 2.9118,-6.258011 4.14298,-11.653444 4.13884,-18.137825 -0.002,-3.924305 -0.0609,-4.374987 -1.04068,-8.033253 -0.57093,-2.131632 -2.33219,-7.806691 -3.91394,-12.611241 -1.58174,-4.804547 -3.36984,-10.426946 -3.97356,-12.494221 -5.20025,-17.8067819 -2.69569,-23.2067872 11.74924,-25.3322011 6.42079,-0.94474862 20.54864,-1.54760816 23.44788,-1.00056099 4.25361,0.80259979 9.04471,4.68251909 11.02983,8.93216499 1.61217,3.4512451 2.04256,5.8729751 2.03638,11.4583231 -0.0117,10.588653 -2.60656,20.444726 -8.46469,32.151735 -4.72747,9.447463 -11.67865,18.596151 -17.17991,22.611071 -2.76423,2.017386 -7.91617,4.14167 -13.10048,5.401678 -2.72751,0.662902 -5.79306,0.890173 -6.06531,0.449664 z"
           id="path14926"
           transform="translate(50.235233,335.96952)" />
        <path
           style="fill:#eb008f;fill-opacity:1;stroke:none;stroke-width:0.104757"
           d="m 884.86565,132.44505 c -8.91719,-0.7051 -18.96194,-3.79295 -29.51862,-9.0743 -7.75561,-3.88002 -14.2131,-8.3114 -19.02632,-13.0566 -4.08214,-4.02445 -5.52691,-6.46948 -7.45229,-12.611678 -0.92152,-2.939773 -2.00375,-7.357726 -2.2341,-9.120249 l -0.19579,-1.49807 0.93643,0.187286 c 0.51503,0.103007 2.37338,0.822617 4.12966,1.599134 5.72055,2.529271 7.45659,3.035908 11.55569,3.372362 2.71891,0.223167 4.97069,0.220063 8.47941,-0.01169 5.90191,-0.389819 9.27116,-1.20709 19.19025,-4.654928 10.54279,-3.664634 15.45445,-5.159889 19.9166,-6.063203 2.4336,-0.492653 7.00517,-0.581689 8.50291,-0.165601 1.7848,0.49584 3.54562,1.849101 4.67046,3.589455 2.87375,4.446245 4.78996,15.398212 4.85225,27.732692 0.0275,5.44819 -0.0231,6.12837 -0.59058,7.93262 -2.04019,6.48692 -8.50208,10.80632 -17.55646,11.73548 -2.72802,0.27995 -3.33139,0.29139 -5.6595,0.10729 z"
           id="path15187"
           transform="translate(50.235233,335.96952)" />
      </g>
    </g>
  </g>
</svg>
