<?xml version="1.0" encoding="UTF-8" standalone="no"?>
<!-- Generator: Adobe Illustrator 24.2.2, SVG Export Plug-In . SVG Version: 6.00 Build 0)  -->

<svg
   version="1.1"
   id="svg5"
   inkscape:version="1.1 (ce6663b3b7, 2021-05-25)"
   sodipodi:docname="eirlab-keychain.svg"
   x="0px"
   y="0px"
   viewBox="0 0 4000.0001 1598.879"
   xml:space="preserve"
   width="4000"
   height="1598.879"
   inkscape:export-filename="/home/sedelpeuch/eirlab/communication-tools/eirlab_cadre.png"
   inkscape:export-xdpi="96"
   inkscape:export-ydpi="96"
   xmlns:inkscape="http://www.inkscape.org/namespaces/inkscape"
   xmlns:sodipodi="http://sodipodi.sourceforge.net/DTD/sodipodi-0.dtd"
   xmlns="http://www.w3.org/2000/svg"
   xmlns:svg="http://www.w3.org/2000/svg"><defs
   id="defs10" />
<style
   type="text/css"
   id="style2">
	.st0{fill:none;stroke:#FF0000;stroke-width:0.2835;stroke-miterlimit:10;}
</style>
<sodipodi:namedview
   bordercolor="#666666"
   borderopacity="1.0"
   id="namedview7"
   inkscape:current-layer="svg5"
   inkscape:cx="3523.8623"
   inkscape:cy="860.61325"
   inkscape:document-units="mm"
   inkscape:pagecheckerboard="0"
   inkscape:pageopacity="0.0"
   inkscape:pageshadow="2"
   inkscape:window-height="863"
   inkscape:window-maximized="1"
   inkscape:window-width="1600"
   inkscape:window-x="0"
   inkscape:window-y="0"
   inkscape:zoom="0.042992599"
   pagecolor="#ffffff"
   showgrid="false">
	</sodipodi:namedview>



<g
   id="g2163"
   transform="matrix(8.7951117,0,0,8.7951117,-3.2942358,-3.2942415)"><path
     id="path1160_1_"
     class="st0"
     d="m 251.13095,182.16633 c -3.43502,0 -8.71967,-0.26423 -13.74008,-1.58539 -2.11386,-0.52846 -4.22771,-1.32116 -6.07734,-2.11386 -3.17079,1.5854 -6.60581,2.37809 -10.30506,2.37809 h -21.40281 c -9.24813,0 -15.06124,0 -18.49625,0 -4.49195,-0.26423 -11.09776,-0.26423 -17.43933,-4.75618 -3.17079,-2.11385 -5.28465,-4.75618 -6.87004,-7.13427 -2.37809,3.96349 -6.07734,7.39851 -10.56929,9.51236 l -1.05693,0.52847 c -2.90655,1.32116 -6.87004,2.64232 -15.32547,2.64232 -5.02041,0 -8.71966,-0.52846 -12.15468,-1.84963 -1.05693,-0.52846 -2.37809,-1.05692 -3.43502,-1.58539 -5.81311,2.90656 -11.62622,3.17079 -15.061239,3.43502 -1.056929,0 -2.113858,0 -3.170787,0 -2.113858,0 -7.134271,0 -12.683148,-2.64232 -3.170786,1.32116 -6.605806,2.11386 -10.040825,2.11386 0,0 -22.988205,0 -22.988205,0 -11.097754,0 -16.118166,0 -19.553185,-0.26424 -4.491948,0 -10.040825,-0.26423 -15.853935,-3.43502 -6.3415735,-3.43501 -11.0977538,-9.51236 -13.2116118,-16.38239 -1.05692892,-3.69926 -1.32116116,-4.22772 -1.32116116,-49.1472 0,-18.232026 0,-27.744386 0,-33.821728 0,-9.248128 0.26423224,-14.532773 3.69925136,-20.345882 4.7561803,-8.1912 12.1546826,-12.94738 22.4597406,-13.740077 4.227716,-0.528464 10.040825,-0.528464 21.931276,-0.528464 21.667043,0 24.309366,0.264232 25.366295,0.528464 2.642322,0.264233 5.020412,1.056929 7.13427,1.849626 4.756181,-2.906555 10.833522,-4.491948 17.175096,-4.491948 5.548878,0 10.833518,1.321161 15.325468,3.699251 5.02041,2.642323 13.21161,8.719664 14.79701,22.195508 0.52846,0 1.05693,0 1.58539,0 2.11386,0 5.81311,0 9.77659,1.056929 4.22772,-1.585393 7.92697,-1.849625 12.15469,-1.849625 0.79269,-7.134271 4.49194,-13.740077 10.56929,-17.70356 l 1.05693,-0.792697 c 6.07734,-3.963484 12.41891,-4.491948 17.70356,-4.75618 h 0.52846 c 3.43502,0 7.13427,0.264232 11.09775,1.321161 7.92697,2.37809 14.00431,8.191199 16.91087,15.589702 1.32116,3.699251 1.84962,4.75618 1.84962,27.744385 2.37809,-5.548877 6.60581,-10.040825 12.41892,-13.475844 9.24813,-5.548877 20.87435,-8.455432 32.50056,-8.455432 v 0 c 8.71967,0 15.58971,1.321161 21.40282,3.699252 0,-1.849626 0,-3.170787 0,-4.491949 0,-5.548877 0.26423,-10.569289 3.96348,-16.382398 5.02041,-7.926968 14.26854,-12.418916 25.63053,-12.418916 3.69925,0 7.13427,0.528465 10.30505,1.321162 6.07734,1.585393 10.83353,5.020412 14.26854,9.51236 0.26424,-4.227716 1.05693,-8.719664 3.17079,-12.94738 4.49195,-8.983896 12.94738,-15.061237 23.7809,-16.910863 1.5854,-0.264232 3.69925,-0.528464 6.34158,-0.528464 2.11385,0 3.69925,0.264232 5.54887,0.528464 2.11386,-3.963484 4.49195,-6.870038 6.60581,-8.4554316 7.13427,-6.0773416 17.96779,-7.92696724 25.63053,-8.45543172 1.05693,0 2.11385,0 2.90655,0 14.79701,0 26.42323,7.92696722 30.91517,21.13857932 2.11386,5.813109 2.37809,12.154683 1.5854,18.496257 0.26423,0.264232 0.52846,0.264232 0.79269,0.528464 11.89045,6.341574 14.00431,19.024721 15.06124,25.366295 4.49195,25.102063 -10.04082,35.407121 -16.3824,38.577911 -4.75618,2.37809 -10.30505,3.43502 -16.64663,3.43502 -1.84962,0 -3.69925,0 -5.81311,-0.26424 -2.90655,6.07734 -7.66273,9.7766 -9.77659,11.09776 -7.13427,4.49195 -17.96779,5.81311 -23.25244,6.07734 0,11.09775 -2.11386,20.61011 -6.07734,29.32978 -3.96348,8.1912 -9.24813,14.797 -16.11817,19.55318 -9.51236,6.60581 -17.43932,8.1912 -26.68745,8.45543 -0.7927,0 -1.5854,0 -2.37809,0 -7.13427,0 -10.04083,-0.79269 -11.09776,-1.05692 -1.32116,-0.26424 -2.37809,-0.52847 -3.43502,-1.05693 -3.17078,0.79269 -6.6058,1.32116 -10.30505,1.32116 -6.07734,0 -11.09776,-1.05693 -15.32547,-3.43502 -3.96349,2.37809 -8.45543,3.43502 -13.21161,3.43502 -1.32117,0 -2.64233,0 -3.43502,-0.26423 -0.26424,0 -0.26424,0 -0.52847,0 -1.58539,0 -4.75618,-0.26424 -8.45543,-1.05693 -0.52846,0.26423 -1.05693,0.26423 -1.58539,0.52846 -3.43502,1.05693 -7.92697,1.58539 -12.68315,1.58539 z"
     style="fill:#ffffff;fill-opacity:1;stroke:none" /><path
     id="path1160"
     d="m 243.20398,157.59274 c -9.51236,-2.64233 -14.797,-10.04083 -14.00431,-20.08165 0.7927,-8.71967 6.60581,-14.53278 17.1751,-17.43933 3.69925,-1.05693 5.54888,-1.05693 13.47584,-1.32116 l 9.24813,-0.26424 -0.26423,-5.02041 c -0.26423,-6.34157 -0.7927,-7.92696 -3.43502,-10.56929 -2.64232,-2.64232 -5.02041,-3.435016 -11.09775,-3.170784 -5.28465,0 -9.24813,1.056924 -15.06124,4.227714 -1.84963,1.05693 -3.69925,1.84963 -4.22772,1.84963 -1.58539,0 -2.64232,-1.5854 -2.64232,-4.75618 0,-3.17079 0.52846,-4.227719 3.43502,-5.813112 5.54888,-3.435019 13.21161,-5.284645 20.61011,-5.284645 11.36199,0 18.49626,3.435019 21.66705,10.040825 2.37809,4.756182 2.64232,6.870042 2.64232,33.029032 0,27.48015 0.52846,24.83783 -5.54888,24.5736 -2.64232,0 -3.96348,-0.26424 -4.22771,-0.7927 -0.26424,-0.26423 -0.26424,-2.11386 -0.26424,-3.69925 V 149.93 c 0,0 -1.05692,0.7927 -2.37809,2.11386 -2.64232,2.37809 -7.13427,4.75618 -10.56929,5.81311 -3.69925,0.7927 -10.56928,0.7927 -14.53277,-0.26423 z m 17.1751,-10.30506 c 1.58539,-0.7927 3.96348,-2.64232 5.81311,-4.22772 l 2.90655,-2.90655 v -6.60581 -6.6058 l -8.1912,0.26423 c -6.6058,0.26423 -8.71966,0.52846 -11.36198,1.32116 -6.87004,2.11386 -10.30506,8.71966 -7.39851,14.79701 1.32116,2.64232 2.11386,3.43501 4.75618,4.75618 1.84963,1.05692 2.64233,1.05692 6.60581,1.05692 3.69925,-0.26423 4.49195,-0.52846 6.87004,-1.84962 z m 65.79382,10.83352 c -3.69925,-0.7927 -7.92696,-3.43502 -12.15468,-7.66273 l -1.84962,-1.84963 -0.26424,3.96348 c 0,2.37809 -0.26423,3.96349 -0.79269,4.49195 -1.05693,1.05693 -7.39851,1.05693 -8.71967,0.26423 l -1.05693,-0.79269 v -47.03334 c 0,-25.894761 0.26424,-47.297572 0.26424,-47.561804 0.79269,-1.321162 6.07734,-1.849626 9.51236,-1.056929 1.32116,0.264232 1.58539,0.792696 1.84962,1.849625 0.26424,0.792697 0.26424,9.248129 0.26424,19.024722 v 17.70356 c 0,0 1.58539,-1.056929 3.17078,-2.642323 3.69925,-3.170787 8.1912,-5.548877 11.62622,-6.341573 3.43502,-0.792697 9.51236,-0.528465 12.41892,0.264232 11.62621,3.435019 17.70356,13.47584 18.49625,30.12248 0.26423,9.24812 -0.79269,16.64663 -3.96348,22.9882 -2.11386,4.49195 -4.75618,7.66273 -8.1912,10.30506 -4.49195,3.17078 -7.13427,3.96348 -13.47584,4.22771 -2.90656,0 -6.07735,0 -7.13428,-0.26423 z m 10.83353,-11.09775 c 6.6058,-3.17079 9.77659,-11.09776 9.77659,-23.25244 0,-6.87004 -0.7927,-11.09775 -2.64232,-15.06124 -2.90656,-6.34157 -8.71967,-9.512359 -15.06124,-8.45543 -4.22772,0.7927 -7.13427,2.64232 -11.62622,7.13427 l -4.22771,4.22772 v 11.09775 c 0,6.07734 0,11.89045 -0.26424,12.68315 0,1.32116 0.26424,1.84962 1.84963,3.69925 2.90655,3.17079 4.49195,4.49195 7.13427,6.34157 3.17079,2.11386 5.28464,2.90656 9.24813,2.90656 2.90655,-0.26423 3.96348,-0.26423 5.81311,-1.32116 z m -244.679057,9.77659 c -1.056929,-1.05693 -1.056929,-1.05693 -1.056929,-32.50057 0,-37.520974 -0.792697,-33.55749 6.341573,-33.293258 2.906553,0 4.756183,0.264232 5.020413,0.792697 0.7927,0.792696 0.7927,64.208431 0,65.265361 -0.26423,0.26423 -2.11386,0.52847 -5.020413,0.7927 -3.699251,-0.26423 -4.227715,-0.26423 -5.284644,-1.05693 z m 33.293257,0.52846 c -0.26423,-0.26423 -0.79269,-0.52846 -1.05692,-0.79269 -0.26424,-0.26423 -0.26424,-14.79701 -0.26424,-32.50057 0,-28.53708 0,-31.972099 0.7927,-32.500564 0.52846,-0.528464 1.58539,-0.792696 4.49195,-0.792696 5.28464,0 5.54888,0.264232 5.54888,5.813109 v 4.227711 l 2.11385,-2.378085 c 3.43502,-3.963484 5.54888,-5.81311 8.45544,-7.134271 2.37809,-1.056929 3.17078,-1.321161 6.34157,-1.321161 4.22771,0 8.1912,1.056929 8.71966,2.113858 0.52847,1.056929 0.52847,8.455429 0,9.512359 -0.52846,1.05693 -2.11386,1.05693 -5.02041,0.26423 -2.64232,-0.79269 -6.07734,-0.79269 -8.1912,0 -2.11386,0.7927 -6.07734,5.02042 -9.24813,9.51236 l -2.37809,3.43502 v 20.87435 20.87435 l -1.05693,0.52846 c -1.32116,0.52847 -7.92696,0.7927 -9.24813,0.26423 z M 25.476616,156.53581 c -0.792697,-0.26423 -1.321161,-1.32116 -1.585394,-1.84963 -0.264232,-0.79269 -0.264232,-19.81742 -0.264232,-42.80562 0,-33.557496 0,-41.748695 0.528465,-42.541392 1.321161,-2.113858 2.113858,-2.37809 23.780901,-2.37809 11.097754,0 21.138579,0 22.195508,0.264232 1.849626,0.264233 2.113858,0.528465 2.642323,1.585394 0.792697,1.849626 0.792697,5.548877 0,7.13427 l -0.528465,1.585394 H 54.27793 36.310138 V 91.534676 105.53899 H 51.89984 c 17.967792,0.26423 16.646631,-0.26424 16.646631,5.02041 0,5.28464 1.321161,5.02041 -16.646631,5.02041 l -15.589702,0.26423 v 15.5897 15.58971 h 15.853934 c 8.719664,0 16.910863,0.26423 18.496257,0.26423 2.642322,0.26423 2.642322,0.26423 3.170787,1.84962 0.792696,2.11386 0.792696,4.75619 0,6.60581 l -0.528465,1.58539 H 50.314446 c -20.08165,-0.26423 -23.780901,-0.26423 -24.83783,-0.79269 z m 151.405074,0 c -0.52847,-0.26423 -1.05693,-1.32116 -1.32116,-2.37809 -0.26423,-1.05693 -0.52847,-16.11817 -0.52847,-43.59832 V 68.546472 l 1.05693,-0.792697 c 0.7927,-0.528465 2.11386,-0.792697 4.75618,-0.792697 4.49195,0 5.54888,0.264232 6.07734,1.849626 0.26424,0.792697 0.52847,16.382399 0.52847,39.370606 v 38.31367 h 16.3824 c 14.797,0 16.3824,0.26423 17.17509,0.7927 1.05693,1.05693 1.32116,5.81311 0.52847,8.1912 l -0.7927,1.58539 h -21.40281 c -18.76049,0 -21.66704,0 -22.45974,-0.52846 z M 94.44123,78.851529 c -2.642322,-0.792697 -3.170786,-1.321161 -3.699251,-3.699251 -0.792697,-2.906555 -0.264232,-6.605806 0.792697,-7.926968 1.585393,-2.113858 7.662735,-2.906554 10.833524,-1.056929 1.58539,0.792697 2.37809,2.378091 2.37809,6.077342 0,3.435019 -0.7927,5.548877 -2.11386,6.077341 -1.32116,0.528465 -6.605806,0.792697 -8.1912,0.528465 z"
     style="stroke-width:2.64232"
     sodipodi:nodetypes="ccccccsccsscscsccsccccccccccccccccsccsccscccsccscccccccsccscsccccccsccccccsscsscccssscsccccccccscscccccccccsccccscccccccssccssscscccscccccssc" /><path
     style="fill:#39a9dc;fill-opacity:1;stroke-width:0.0686806"
     d="m 359.26056,63.94933 c -1.2996,-0.563692 -1.87895,-1.522331 -2.71119,-4.486208 -0.82512,-2.938529 -1.14187,-5.31103 -1.1458,-8.582271 -0.005,-4.376018 0.40092,-5.751983 2.17716,-7.375365 2.01702,-1.843436 5.52446,-2.871908 8.5269,-2.500303 1.88375,0.233147 6.56397,1.296424 8.68435,1.972954 2.06092,0.657559 5.73248,2.354714 7.52075,3.476416 1.71245,1.074148 4.00758,2.891178 5.45516,4.318789 2.54066,2.505618 3.67826,4.578061 4.36631,7.954391 0.44313,2.174443 0.46639,2.760004 0.11501,2.89484 -0.14311,0.05492 -1.2089,-0.314099 -2.36841,-0.820036 -2.72987,-1.191134 -3.84901,-1.468251 -6.45973,-1.599518 -2.68249,-0.134872 -3.34229,-0.0077 -8.33807,1.607177 -9.5886,3.099489 -13.92866,3.960547 -15.82244,3.139134 z"
     id="path952" /><path
     style="fill:#97be0d;stroke-width:0.0686806"
     d="m 376.63138,100.28813 c -2.76541,-1.188929 -4.0495,-2.707099 -4.78497,-5.657211 -0.49543,-1.987264 -0.41042,-6.096027 0.18529,-8.955082 1.85494,-8.902613 7.55765,-17.826284 13.11817,-20.527476 1.76151,-0.855705 4.55179,-1.6761 5.80447,-1.706622 0.81734,-0.01991 0.92538,0.02196 0.97606,0.378258 0.0313,0.220359 -0.31465,1.324291 -0.76888,2.453184 -0.45423,1.128893 -0.96249,2.584056 -1.12946,3.233696 -0.40336,1.56933 -0.39604,4.544198 0.0161,6.541823 0.31018,1.503442 1.67408,6.114565 3.27871,11.084757 1.09818,3.401529 1.42049,5.132622 1.33192,7.153582 -0.0892,2.035051 -0.54696,3.009645 -1.81183,3.857398 -2.02837,1.359461 -8.41447,2.627943 -13.1417,2.610353 -1.73218,-0.006 -2.15149,-0.0701 -3.07387,-0.46666 z"
     id="path991" /><path
     style="fill:#f29400;fill-opacity:1;stroke-width:0.0686806"
     d="m 394.23883,61.297787 c 0.0699,-0.232365 0.49476,-1.36287 0.94414,-2.512233 2.38665,-6.104257 2.28885,-7.942924 -0.94723,-17.808297 -1.59543,-4.863723 -2.19582,-7.105597 -2.44936,-9.145889 -0.30577,-2.460647 0.17384,-4.127958 1.43116,-4.975267 2.78167,-1.874562 11.82204,-3.214514 15.6307,-2.31676 4.13838,0.975475 6.03925,4.385669 5.76939,10.350385 -0.41318,9.132748 -5.98105,20.311323 -12.05063,24.193988 -1.5574,0.996253 -5.00936,2.139882 -7.57553,2.509757 -0.85875,0.123774 -0.8767,0.116722 -0.75264,-0.295684 z"
     id="path1255" /><path
     style="fill:#e2007a;fill-opacity:1;stroke-width:0.0686806"
     d="m 416.99931,83.587349 c -2.8411,-0.537008 -7.67593,-2.324165 -10.84767,-4.009758 -4.31927,-2.295434 -8.21724,-5.645588 -9.49744,-8.162682 -0.99289,-1.952212 -2.31765,-6.264919 -2.32492,-7.568729 l -0.003,-0.481752 1.68089,0.515553 c 0.92449,0.283553 2.41684,0.776527 3.31634,1.095497 1.44323,0.511779 1.9238,0.590334 4.08864,0.668336 3.04986,0.10989 4.63898,-0.16356 8.32664,-1.432813 9.24774,-3.182977 12.71087,-4.02977 15.1235,-3.697948 1.29452,0.178042 1.98659,0.715362 2.64576,2.05416 1.54581,3.139575 2.7148,11.783373 2.00164,14.800561 -0.15967,0.675518 -0.48759,1.617525 -0.72871,2.093349 -0.88587,1.748189 -3.01468,3.23843 -5.65361,3.957728 -1.54514,0.421163 -6.27308,0.519171 -8.12837,0.168498 z"
     id="path1516" /></g></svg>
