<?xml version="1.0" encoding="UTF-8" standalone="no"?>
<!-- Generator: Adobe Illustrator 24.2.2, SVG Export Plug-In . SVG Version: 6.00 Build 0)  -->

<svg
   version="1.1"
   id="svg5"
   inkscape:version="1.2 (56b05e47e7, 2022-06-09, custom)"
   sodipodi:docname="eirlab-keychain.svg"
   x="0px"
   y="0px"
   viewBox="0 0 595.3 841.9"
   style="enable-background:new 0 0 595.3 841.9;"
   xml:space="preserve"
   xmlns:inkscape="http://www.inkscape.org/namespaces/inkscape"
   xmlns:sodipodi="http://sodipodi.sourceforge.net/DTD/sodipodi-0.dtd"
   xmlns="http://www.w3.org/2000/svg"
   xmlns:svg="http://www.w3.org/2000/svg"><defs
   id="defs3791" />
<style
   type="text/css"
   id="style3783">
	.st0{fill:none;stroke:#FF0000;stroke-width:0.2835;stroke-miterlimit:10;}
</style>
<sodipodi:namedview
   bordercolor="#666666"
   borderopacity="1.0"
   id="namedview7"
   inkscape:current-layer="svg5"
   inkscape:cx="182.71783"
   inkscape:cy="325.08869"
   inkscape:document-units="mm"
   inkscape:pagecheckerboard="0"
   inkscape:pageopacity="0.0"
   inkscape:pageshadow="2"
   inkscape:window-height="1016"
   inkscape:window-maximized="1"
   inkscape:window-width="1920"
   inkscape:window-x="0"
   inkscape:window-y="0"
   inkscape:zoom="1.9456229"
   pagecolor="#ffffff"
   showgrid="false"
   inkscape:showpageshadow="2"
   inkscape:deskcolor="#d1d1d1">
	</sodipodi:namedview>


<g
   id="g5365"
   transform="matrix(1.2495861,0,0,1.2495861,-26.071323,-70.647393)"><path
     id="path1160_1_"
     class="st0"
     d="m 199.5,352 c -1.3,0 -3.3,-0.1 -5.2,-0.6 -0.8,-0.2 -1.6,-0.5 -2.3,-0.8 -1.2,0.6 -2.5,0.9 -3.9,0.9 H 180 c -3.5,0 -5.7,0 -7,0 -1.7,-0.1 -4.2,-0.1 -6.6,-1.8 -1.2,-0.8 -2,-1.8 -2.6,-2.7 -0.9,1.5 -2.3,2.8 -4,3.6 l -0.4,0.2 c -1.1,0.5 -2.6,1 -5.8,1 -1.9,0 -3.3,-0.2 -4.6,-0.7 -0.4,-0.2 -0.9,-0.4 -1.3,-0.6 -2.2,1.1 -4.4,1.2 -5.7,1.3 -0.4,0 -0.8,0 -1.2,0 -0.8,0 -2.7,0 -4.8,-1 -1.2,0.5 -2.5,0.8 -3.8,0.8 0,0 -8.7,0 -8.7,0 -4.2,0 -6.1,0 -7.4,-0.1 -1.7,0 -3.8,-0.1 -6,-1.3 -2.4,-1.3 -4.2,-3.6 -5,-6.2 -0.4,-1.4 -0.5,-1.6 -0.5,-18.6 0,-6.9 0,-10.5 0,-12.8 0,-3.5 0.1,-5.5 1.4,-7.7 1.8,-3.1 4.6,-4.9 8.5,-5.2 1.6,-0.2 3.8,-0.2 8.3,-0.2 8.2,0 9.2,0.1 9.6,0.2 1,0.1 1.9,0.4 2.7,0.7 1.8,-1.1 4.1,-1.7 6.5,-1.7 2.1,0 4.1,0.5 5.8,1.4 1.9,1 5,3.3 5.6,8.4 0.2,0 0.4,0 0.6,0 0.8,0 2.2,0 3.7,0.4 1.6,-0.6 3,-0.7 4.6,-0.7 0.3,-2.7 1.7,-5.2 4,-6.7 l 0.4,-0.3 c 2.3,-1.5 4.7,-1.7 6.7,-1.8 h 0.2 c 1.3,0 2.7,0.1 4.2,0.5 3,0.9 5.3,3.1 6.4,5.9 0.5,1.4 0.7,1.8 0.7,10.5 0.9,-2.1 2.5,-3.8 4.7,-5.1 3.5,-2.1 7.9,-3.2 12.3,-3.2 v 0 c 3.3,0 5.9,0.5 8.1,1.4 0,-0.7 0,-1.2 0,-1.7 0,-2.1 0.1,-4 1.5,-6.2 1.9,-3 5.4,-4.7 9.7,-4.7 1.4,0 2.7,0.2 3.9,0.5 2.3,0.6 4.1,1.9 5.4,3.6 0.1,-1.6 0.4,-3.3 1.2,-4.9 1.7,-3.4 4.9,-5.7 9,-6.4 0.6,-0.1 1.4,-0.2 2.4,-0.2 0.8,0 1.4,0.1 2.1,0.2 0.8,-1.5 1.7,-2.6 2.5,-3.2 2.7,-2.3 6.8,-3 9.7,-3.2 0.4,0 0.8,0 1.1,0 5.6,0 10,3 11.7,8 0.8,2.2 0.9,4.6 0.6,7 0.1,0.1 0.2,0.1 0.3,0.2 4.5,2.4 5.3,7.2 5.7,9.6 1.7,9.5 -3.8,13.4 -6.2,14.6 -1.8,0.9 -3.9,1.3 -6.3,1.3 -0.7,0 -1.4,0 -2.2,-0.1 -1.1,2.3 -2.9,3.7 -3.7,4.2 -2.7,1.7 -6.8,2.2 -8.8,2.3 0,4.2 -0.8,7.8 -2.3,11.1 -1.5,3.1 -3.5,5.6 -6.1,7.4 -3.6,2.5 -6.6,3.1 -10.1,3.2 -0.3,0 -0.6,0 -0.9,0 -2.7,0 -3.8,-0.3 -4.2,-0.4 -0.5,-0.1 -0.9,-0.2 -1.3,-0.4 -1.2,0.3 -2.5,0.5 -3.9,0.5 -2.3,0 -4.2,-0.4 -5.8,-1.3 -1.5,0.9 -3.2,1.3 -5,1.3 -0.5,0 -1,0 -1.3,-0.1 -0.1,0 -0.1,0 -0.2,0 -0.6,0 -1.8,-0.1 -3.2,-0.4 -0.2,0.1 -0.4,0.1 -0.6,0.2 -1.3,0.4 -3,0.6 -4.8,0.6 z" /><path
     id="path1160"
     d="m 196.5,342.7 c -3.6,-1 -5.6,-3.8 -5.3,-7.6 0.3,-3.3 2.5,-5.5 6.5,-6.6 1.4,-0.4 2.1,-0.4 5.1,-0.5 l 3.5,-0.1 -0.1,-1.9 c -0.1,-2.4 -0.3,-3 -1.3,-4 -1,-1 -1.9,-1.3 -4.2,-1.2 -2,0 -3.5,0.4 -5.7,1.6 -0.7,0.4 -1.4,0.7 -1.6,0.7 -0.6,0 -1,-0.6 -1,-1.8 0,-1.2 0.2,-1.6 1.3,-2.2 2.1,-1.3 5,-2 7.8,-2 4.3,0 7,1.3 8.2,3.8 0.9,1.8 1,2.6 1,12.5 0,10.4 0.2,9.4 -2.1,9.3 -1,0 -1.5,-0.1 -1.6,-0.3 -0.1,-0.1 -0.1,-0.8 -0.1,-1.4 0,-0.6 0,-1.2 0,-1.2 0,0 -0.4,0.3 -0.9,0.8 -1,0.9 -2.7,1.8 -4,2.2 -1.4,0.3 -4,0.3 -5.5,-0.1 z m 6.5,-3.9 c 0.6,-0.3 1.5,-1 2.2,-1.6 l 1.1,-1.1 v -2.5 -2.5 l -3.1,0.1 c -2.5,0.1 -3.3,0.2 -4.3,0.5 -2.6,0.8 -3.9,3.3 -2.8,5.6 0.5,1 0.8,1.3 1.8,1.8 0.7,0.4 1,0.4 2.5,0.4 1.4,-0.1 1.7,-0.2 2.6,-0.7 z m 24.9,4.1 c -1.4,-0.3 -3,-1.3 -4.6,-2.9 l -0.7,-0.7 -0.1,1.5 c 0,0.9 -0.1,1.5 -0.3,1.7 -0.4,0.4 -2.8,0.4 -3.3,0.1 l -0.4,-0.3 v -17.8 c 0,-9.8 0.1,-17.9 0.1,-18 0.3,-0.5 2.3,-0.7 3.6,-0.4 0.5,0.1 0.6,0.3 0.7,0.7 0.1,0.3 0.1,3.5 0.1,7.2 0,3.7 0,6.7 0,6.7 0,0 0.6,-0.4 1.2,-1 1.4,-1.2 3.1,-2.1 4.4,-2.4 1.3,-0.3 3.6,-0.2 4.7,0.1 4.4,1.3 6.7,5.1 7,11.4 0.1,3.5 -0.3,6.3 -1.5,8.7 -0.8,1.7 -1.8,2.9 -3.1,3.9 -1.7,1.2 -2.7,1.5 -5.1,1.6 -1.1,0 -2.3,0 -2.7,-0.1 z m 4.1,-4.2 c 2.5,-1.2 3.7,-4.2 3.7,-8.8 0,-2.6 -0.3,-4.2 -1,-5.7 -1.1,-2.4 -3.3,-3.6 -5.7,-3.2 -1.6,0.3 -2.7,1 -4.4,2.7 l -1.6,1.6 v 4.2 c 0,2.3 0,4.5 -0.1,4.8 0,0.5 0.1,0.7 0.7,1.4 1.1,1.2 1.7,1.7 2.7,2.4 1.2,0.8 2,1.1 3.5,1.1 1.1,-0.1 1.5,-0.1 2.2,-0.5 z m -92.6,3.7 C 139,342 139,342 139,330.1 c 0,-14.2 -0.3,-12.7 2.4,-12.6 1.1,0 1.8,0.1 1.9,0.3 0.3,0.3 0.3,24.3 0,24.7 -0.1,0.1 -0.8,0.2 -1.9,0.3 -1.4,-0.1 -1.6,-0.1 -2,-0.4 z m 12.6,0.2 c -0.1,-0.1 -0.3,-0.2 -0.4,-0.3 -0.1,-0.1 -0.1,-5.6 -0.1,-12.3 0,-10.8 0,-12.1 0.3,-12.3 0.2,-0.2 0.6,-0.3 1.7,-0.3 2,0 2.1,0.1 2.1,2.2 v 1.6 l 0.8,-0.9 c 1.3,-1.5 2.1,-2.2 3.2,-2.7 0.9,-0.4 1.2,-0.5 2.4,-0.5 1.6,0 3.1,0.4 3.3,0.8 0.2,0.4 0.2,3.2 0,3.6 -0.2,0.4 -0.8,0.4 -1.9,0.1 -1,-0.3 -2.3,-0.3 -3.1,0 -0.8,0.3 -2.3,1.9 -3.5,3.6 l -0.9,1.3 v 7.9 7.9 l -0.4,0.2 c -0.5,0.2 -3,0.3 -3.5,0.1 z m -37.9,-0.3 c -0.3,-0.1 -0.5,-0.5 -0.6,-0.7 -0.1,-0.3 -0.1,-7.5 -0.1,-16.2 0,-12.7 0,-15.8 0.2,-16.1 0.5,-0.8 0.8,-0.9 9,-0.9 4.2,0 8,0 8.4,0.1 0.7,0.1 0.8,0.2 1,0.6 0.3,0.7 0.3,2.1 0,2.7 l -0.2,0.6 h -6.8 -6.8 v 5.3 5.3 h 5.9 c 6.8,0.1 6.3,-0.1 6.3,1.9 0,2 0.5,1.9 -6.3,1.9 l -5.9,0.1 v 5.9 5.9 h 6 c 3.3,0 6.4,0.1 7,0.1 1,0.1 1,0.1 1.2,0.7 0.3,0.8 0.3,1.8 0,2.5 l -0.2,0.6 h -8.7 c -7.6,-0.1 -9,-0.1 -9.4,-0.3 z m 57.3,0 c -0.2,-0.1 -0.4,-0.5 -0.5,-0.9 -0.1,-0.4 -0.2,-6.1 -0.2,-16.5 V 309 l 0.4,-0.3 c 0.3,-0.2 0.8,-0.3 1.8,-0.3 1.7,0 2.1,0.1 2.3,0.7 0.1,0.3 0.2,6.2 0.2,14.9 v 14.5 h 6.2 c 5.6,0 6.2,0.1 6.5,0.3 0.4,0.4 0.5,2.2 0.2,3.1 l -0.3,0.6 h -8.1 c -7.1,0 -8.2,0 -8.5,-0.2 z m 76,-21.1 c -0.3,-0.1 -0.8,-0.3 -1.1,-0.5 -2.5,-1.5 -1.2,-8.4 2.4,-11.9 0.9,-0.9 1.4,-1.2 2.8,-1.6 1.5,-0.4 1.6,-0.3 1,1 -0.7,1.6 -0.7,2.8 -0.1,4.8 0.3,0.9 0.7,2.3 0.9,2.9 0.8,2.2 0.8,3.8 -0.1,4.3 -0.8,0.7 -4.7,1.2 -5.8,1 z m 14.3,-6.6 c -3,-0.8 -5.9,-2.5 -7,-4.2 -0.5,-0.7 -1.2,-3.2 -1,-3.4 0,0 0.6,0.2 1.3,0.4 1,0.4 1.4,0.5 2.4,0.5 1.1,0 1.7,-0.1 4.1,-1 2.9,-1 4.3,-1.2 5.1,-0.8 0.4,0.2 0.8,1.2 1.1,3.2 0.5,2.8 0.1,4.3 -1.4,5 -1,0.6 -3.1,0.7 -4.6,0.3 z m -121.5,-1.7 c -1,-0.3 -1.2,-0.5 -1.4,-1.4 -0.3,-1.1 -0.1,-2.5 0.3,-3 0.6,-0.8 2.9,-1.1 4.1,-0.4 0.6,0.3 0.9,0.9 0.9,2.3 0,1.3 -0.3,2.1 -0.8,2.3 -0.5,0.2 -2.5,0.3 -3.1,0.2 z m 100.2,-5.6 c -0.6,-0.2 -0.8,-0.8 -1.2,-2.3 -0.4,-1.8 -0.4,-4 0,-4.8 0.4,-0.8 1.3,-1.4 2.5,-1.6 0.9,-0.2 1.3,-0.1 2.7,0.2 3,0.6 5,1.7 6.8,3.4 1.1,1.1 1.5,1.8 1.8,3.6 0.1,0.8 0,0.8 -1.2,0.2 -0.7,-0.3 -1.3,-0.5 -2.2,-0.5 -1.1,-0.1 -1.4,0 -4.1,0.9 -2.8,0.9 -4.4,1.2 -5.1,0.9 z m 13.2,-0.9 c 0,-0.1 0.2,-0.7 0.5,-1.4 0.8,-1.9 0.7,-3 -0.5,-6.5 -1.1,-3.2 -1.2,-4.5 -0.5,-5.2 0.6,-0.5 2.5,-1 4.3,-1.1 2.2,-0.1 3.3,0.4 3.8,2 0.7,2.1 -0.2,6.1 -2.2,9 -1,1.5 -2.2,2.5 -3.4,2.8 -0.9,0.3 -2,0.5 -2,0.4 z" /><circle
     class="st0"
     cx="118.2"
     cy="312.60001"
     r="5.4000001"
     id="circle3788" /></g>
</svg>
