<?xml version="1.0" encoding="UTF-8" standalone="no"?>
<!-- Generator: Adobe Illustrator 24.2.2, SVG Export Plug-In . SVG Version: 6.00 Build 0)  -->

<svg
   version="1.1"
   id="svg5"
   inkscape:version="1.1.2 (0a00cf5339, 2022-02-04)"
   sodipodi:docname="eirlab-keychain-v2.svg"
   x="0px"
   y="0px"
   viewBox="0 0 219.35151 86.254201"
   xml:space="preserve"
   width="219.3515"
   height="86.254204"
   xmlns:inkscape="http://www.inkscape.org/namespaces/inkscape"
   xmlns:sodipodi="http://sodipodi.sourceforge.net/DTD/sodipodi-0.dtd"
   xmlns="http://www.w3.org/2000/svg"
   xmlns:svg="http://www.w3.org/2000/svg"><defs
   id="defs3791" />
<style
   type="text/css"
   id="style3783">
	.st0{fill:none;stroke:#FF0000;stroke-width:0.2835;stroke-miterlimit:10;}
</style>
<sodipodi:namedview
   bordercolor="#666666"
   borderopacity="1.0"
   id="namedview7"
   inkscape:current-layer="svg5"
   inkscape:cx="146.64588"
   inkscape:cy="13.628799"
   inkscape:document-units="mm"
   inkscape:pagecheckerboard="0"
   inkscape:pageopacity="0.0"
   inkscape:pageshadow="2"
   inkscape:window-height="991"
   inkscape:window-maximized="1"
   inkscape:window-width="1920"
   inkscape:window-x="0"
   inkscape:window-y="25"
   inkscape:zoom="2.7515263"
   pagecolor="#ffffff"
   showgrid="false"
   inkscape:showpageshadow="2"
   inkscape:deskcolor="#d1d1d1"
   fit-margin-top="0"
   fit-margin-left="0"
   fit-margin-right="0"
   fit-margin-bottom="0">
	</sodipodi:namedview>


<path
   id="path1160_1_"
   class="st0"
   d="m 194.56754,0.14174999 c -3.62379,0.24992 -8.74722,1.12399001 -12.1211,3.99805001 -0.99967,0.74975 -2.12337,2.12366 -3.12305,3.99804 -0.87471,-0.12496 -1.62532,-0.25 -2.625,-0.25 -1.24958,0 -2.24829,0.12504 -2.99804,0.25 -5.12331,0.87471 -9.12375,3.74946 -11.24805,7.99805 -0.99967,1.99934 -1.37309,4.12372 -1.49805,6.12305 -1.62446,-2.12429 -3.87399,-3.74829 -6.74804,-4.49805 -1.4995,-0.37487 -3.12363,-0.625 -4.87305,-0.625 -5.37322,0 -9.74687,2.12429 -12.12109,5.87305 -1.74942,2.74909 -1.875,5.12196 -1.875,7.74609 v 2.125 c -2.74909,-1.12463 -5.99747,-1.75 -10.1211,-1.75 -5.49818,0 -10.99754,1.37587 -15.37109,4 -2.74909,1.62446 -4.74842,3.74892 -5.87305,6.37305 0,-10.8714 -0.24824,-11.37168 -0.87304,-13.1211 -1.37454,-3.49884 -4.24929,-6.24841 -7.99805,-7.37304 -1.87438,-0.49984 -3.62359,-0.625 -5.24805,-0.625 h -0.25 c -2.49917,0.12495 -5.499,0.37562 -8.37304,2.25 l -0.5,0.375 c -2.87406,1.87438 -4.62318,4.99721 -4.99805,8.37109 -1.99934,0 -3.74871,0.12525 -5.74805,0.875 -1.87438,-0.49983 -3.62338,-0.5 -4.62305,-0.5 h -0.75 c -0.74975,-6.37289 -4.62383,-9.24651 -6.99804,-10.49609 -2.1243,-1.12463 -4.62392,-1.75 -7.24805,-1.75 -2.99901,0 -5.87184,0.75046 -8.12109,2.125 -0.99967,-0.37487 -2.12542,-0.75004 -3.375,-0.875 -0.29937,-0.0749 -1.64282,-0.13951 -4.25196,-0.1875 A 17.385824,17.385829 0 0 0 34.91324,17.53823 17.385824,17.385829 0 0 0 17.52847,0.15346999 17.385824,17.385829 0 0 0 0.14175001,17.53823 17.385824,17.385829 0 0 0 4.89175,29.42495 c -0.68379,2.03554 -0.76171,4.23351 -0.76171,7.45313 v 15.99609 c 0,21.24297 0.12516,21.49276 0.625,23.24219 0.99966,3.24892 3.24903,6.12163 6.24804,7.74609 2.74909,1.4995 5.37376,1.625 7.49805,1.625 1.62447,0.12496 3.99783,0.125 9.24609,0.125 h 10.8711 c 1.62446,0 3.25049,-0.37521 4.75,-1 2.62413,1.24959 4.99837,1.25 5.99804,1.25 h 1.49805 c 1.62447,-0.12496 4.37396,-0.25046 7.12305,-1.625 0.49984,0.24991 1.12516,0.50008 1.625,0.75 1.62446,0.62479 3.37383,0.875 5.74804,0.875 3.99868,0 5.87351,-0.62521 7.24805,-1.25 l 0.5,-0.25 c 2.12429,-0.99967 3.87342,-2.62367 4.99805,-4.49805 0.74975,1.12463 1.74854,2.37338 3.24805,3.37305 2.99901,2.12429 6.12375,2.12504 8.24804,2.25 h 8.7461 10.12304 c 1.74942,0 3.37354,-0.37524 4.87305,-1.125 0.87471,0.37488 1.87338,0.75009 2.87305,1 2.37421,0.6248 4.87358,0.75 6.49804,0.75 2.24926,0 4.37359,-0.25016 5.99805,-0.75 0.24991,-0.12496 0.50008,-0.12505 0.75,-0.25 1.74942,0.37487 3.2483,0.5 3.99805,0.5 h 0.25 c 0.37488,0.12496 1.00021,0.125 1.625,0.125 2.24926,0 4.37366,-0.50038 6.24804,-1.625 1.99934,1.12462 4.37401,1.625 7.24805,1.625 1.74942,0 3.37355,-0.25013 4.87305,-0.625 0.49983,0.24991 1.00021,0.37504 1.625,0.5 0.49984,0.12496 1.87416,0.5 5.24804,0.5 h 1.125 c 4.37355,-0.12495 8.12063,-0.87409 12.61914,-3.99805 3.24893,-2.24926 5.74867,-5.37432 7.62305,-9.24804 1.87437,-4.12363 2.875,-8.62088 2.875,-13.86914 2.49918,-0.12496 7.62222,-0.75071 10.9961,-2.875 0.99967,-0.6248 3.24849,-2.37401 4.62304,-5.24805 0.99967,0.12495 1.87529,0.125 2.75,0.125 2.99901,0 5.62185,-0.50037 7.8711,-1.625 2.99901,-1.4995 9.87233,-6.37308 7.74804,-18.24414 -0.49984,-2.99901 -1.4999,-8.99708 -7.12304,-11.99609 -0.12495,-0.12496 -0.25004,-0.12504 -0.375,-0.25 0.37487,-2.999 0.24967,-5.99701 -0.75,-8.7461 -2.1243,-6.24793 -7.62146,-9.99609001 -14.61914,-9.99609001 z" /><path
   id="path1160"
   d="m 118.96762,74.49118 c -4.49851,-1.24958 -6.99769,-4.74842 -6.62281,-9.49685 0.37488,-4.12364 3.12396,-6.87272 8.12231,-8.24727 1.74942,-0.49983 2.62413,-0.49983 6.37289,-0.62479 l 4.37355,-0.12496 -0.12496,-2.37421 c -0.12496,-2.99901 -0.37488,-3.74876 -1.62446,-4.99835 -1.24959,-1.24958 -2.37421,-1.62446 -5.24826,-1.4995 -2.49917,0 -4.37355,0.49983 -7.12264,1.99934 -0.87471,0.49983 -1.74942,0.87471 -1.99934,0.87471 -0.74975,0 -1.24959,-0.74976 -1.24959,-2.24926 0,-1.4995 0.24992,-1.99934 1.62446,-2.74909 2.62414,-1.62446 6.24794,-2.49917 9.74678,-2.49917 5.37322,0 8.7471,1.62446 10.2466,4.74843 1.12463,2.24925 1.24959,3.24892 1.24959,15.61982 0,12.9957 0.24992,11.74611 -2.62413,11.62115 -1.24959,0 -1.87438,-0.12496 -1.99934,-0.37487 -0.12496,-0.12496 -0.12496,-0.99967 -0.12496,-1.74942 0,-0.74975 0,-1.49951 0,-1.49951 0,0 -0.49983,0.37488 -1.12463,0.99967 -1.24958,1.12463 -3.37388,2.24926 -4.99834,2.74909 -1.74942,0.37488 -4.99835,0.37488 -6.87272,-0.12496 z m 8.12231,-4.87338 c 0.74975,-0.37488 1.87437,-1.24959 2.74908,-1.99934 l 1.37455,-1.37454 v -3.12397 -3.12397 l -3.87372,0.12496 c -3.12396,0.12496 -4.12363,0.24992 -5.37322,0.6248 -3.24892,0.99967 -4.87338,4.12363 -3.49884,6.99768 0.62479,1.24958 0.99967,1.62446 2.24926,2.24925 0.87471,0.49984 1.24958,0.49984 3.12396,0.49984 1.74942,-0.12496 2.1243,-0.24992 3.24893,-0.87471 z m 31.11469,5.1233 c -1.74942,-0.37488 -3.74876,-1.62446 -5.7481,-3.6238 l -0.87471,-0.87471 -0.12496,1.87438 c 0,1.12463 -0.12495,1.87438 -0.37487,2.1243 -0.49984,0.49983 -3.49884,0.49983 -4.12364,0.12495 l -0.49983,-0.37487 V 51.74872 c 0,-12.24595 0.12496,-22.36759 0.12496,-22.49255 0.37487,-0.6248 2.87405,-0.87471 4.49851,-0.49984 0.62479,0.12496 0.74975,0.37488 0.87471,0.87471 0.12496,0.37488 0.12496,4.37355 0.12496,8.99702 0,4.62347 0,8.37223 0,8.37223 0,0 0.74975,-0.49984 1.4995,-1.24959 1.74942,-1.4995 3.87372,-2.62413 5.49818,-2.999 1.62446,-0.37488 4.49851,-0.24992 5.87305,0.12496 5.49818,1.62446 8.37223,6.37288 8.74711,14.24528 0.12496,4.37355 -0.37488,7.87239 -1.87438,10.8714 -0.99967,2.12429 -2.24926,3.6238 -3.87372,4.87338 -2.1243,1.4995 -3.37388,1.87438 -6.37289,1.99934 -1.37454,0 -2.87405,0 -3.37388,-0.12496 z m 5.1233,-5.24826 c 3.12397,-1.4995 4.62347,-5.24826 4.62347,-10.99636 0,-3.24892 -0.37488,-5.24826 -1.24959,-7.12264 -1.37454,-2.99901 -4.12363,-4.49851 -7.12264,-3.99867 -1.99933,0.37487 -3.37388,1.24958 -5.49817,3.37388 l -1.99934,1.99934 v 5.24826 c 0,2.87404 0,5.62313 -0.12496,5.99801 0,0.62479 0.12496,0.87471 0.87471,1.74942 1.37454,1.4995 2.1243,2.1243 3.37388,2.99901 1.4995,0.99967 2.49917,1.37454 4.37355,1.37454 1.37455,-0.12496 1.87438,-0.12496 2.74909,-0.62479 z M 47.61625,74.11631 c -0.49984,-0.49984 -0.49984,-0.49984 -0.49984,-15.36991 0,-17.74412 -0.37487,-15.86974 2.99901,-15.74479 1.37455,0 2.24926,0.12496 2.37422,0.37488 0.37487,0.37488 0.37487,30.36494 0,30.86478 -0.12496,0.12495 -0.99967,0.24991 -2.37422,0.37487 -1.74942,-0.12496 -1.99934,-0.12496 -2.49917,-0.49983 z m 15.74478,0.24991 c -0.12495,-0.12495 -0.37487,-0.24991 -0.49983,-0.37487 -0.12496,-0.12496 -0.12496,-6.99768 -0.12496,-15.36991 0,-13.49553 0,-15.11999 0.37488,-15.36991 0.24991,-0.24992 0.74975,-0.37487 2.12429,-0.37487 2.49918,0 2.62413,0.12495 2.62413,2.74908 v 1.99934 l 0.99967,-1.12463 c 1.62446,-1.87437 2.62413,-2.74908 3.99868,-3.37388 1.12463,-0.49983 1.4995,-0.62479 2.99901,-0.62479 1.99933,0 3.87371,0.49983 4.12363,0.99967 0.24992,0.49983 0.24992,3.99867 0,4.49851 -0.24992,0.49983 -0.99967,0.49983 -2.37421,0.12496 -1.24959,-0.37488 -2.87405,-0.37488 -3.87372,0 -0.99967,0.37487 -2.87405,2.37421 -4.37355,4.49851 l -1.12463,1.62446 v 9.87173 9.87173 l -0.49983,0.24992 c -0.6248,0.24991 -3.74876,0.37487 -4.37356,0.12495 z M 16.00172,73.99135 c -0.37487,-0.12496 -0.62479,-0.62479 -0.74975,-0.87471 -0.12496,-0.37488 -0.12496,-9.3719 -0.12496,-20.2433 0,-15.86974 0,-19.74346 0.24992,-20.11833 0.62479,-0.99967 0.99967,-1.12463 11.24627,-1.12463 5.24826,0 9.99669,0 10.49653,0.12496 0.87471,0.12496 0.99966,0.24992 1.24958,0.74975 0.37488,0.87471 0.37488,2.62413 0,3.37388 l -0.24992,0.74975 h -8.49718 -8.49719 v 6.62281 6.62281 h 7.37256 c 8.49719,0.12496 7.87239,-0.12496 7.87239,2.37421 0,2.49917 0.6248,2.37421 -7.87239,2.37421 l -7.37256,0.12496 v 7.37256 7.37256 h 7.49752 c 4.12363,0 7.99735,0.12496 8.7471,0.12496 1.24959,0.12496 1.24959,0.12496 1.49951,0.87471 0.37487,0.99967 0.37487,2.24925 0,3.12396 l -0.24992,0.74975 H 27.74783 C 18.25098,74.24127 16.50156,74.24127 16.00172,73.99135 Z m 71.60128,0 C 87.35309,73.86639 87.10317,73.36656 86.97821,72.86672 86.85325,72.36689 86.72829,65.24425 86.72829,52.24855 V 32.38013 l 0.49984,-0.37487 c 0.37487,-0.24992 0.99967,-0.37488 2.24925,-0.37488 2.1243,0 2.62413,0.12496 2.87405,0.87471 0.12496,0.37488 0.24992,7.74743 0.24992,18.61883 v 18.119 h 7.74743 c 6.99768,0 7.74744,0.12496 8.12231,0.37488 0.49984,0.49983 0.6248,2.74909 0.24992,3.87371 l -0.37488,0.74976 H 98.22449 c -8.87206,0 -10.24661,0 -10.62149,-0.24992 z m 94.96855,-26.36627 c -0.37488,-0.12496 -0.99967,-0.37487 -1.37455,-0.62479 -3.12396,-1.87438 -1.4995,-10.49652 2.99901,-14.87008 1.12463,-1.12462 1.74942,-1.4995 3.49884,-1.99933 1.87438,-0.49984 1.99934,-0.37488 1.24959,1.24958 -0.87471,1.99934 -0.87471,3.49884 -0.12496,5.99802 0.37487,1.12462 0.87471,2.87404 1.12463,3.6238 0.99967,2.74909 0.99967,4.74842 -0.12496,5.37322 -0.99967,0.87471 -5.87306,1.4995 -7.2476,1.24958 z m 17.86908,-8.24727 c -3.74876,-0.99966 -7.37256,-3.12396 -8.7471,-5.24826 -0.6248,-0.87471 -1.49951,-3.99867 -1.24959,-4.24859 0,0 0.74975,0.24992 1.62446,0.49983 1.24959,0.49984 1.74942,0.6248 2.99901,0.6248 1.37454,0 2.1243,-0.12496 5.1233,-1.24959 3.6238,-1.24959 5.37322,-1.4995 6.37289,-0.99967 0.49984,0.24992 0.99967,1.49951 1.37455,3.99868 0.62479,3.49884 0.12495,5.37322 -1.74942,6.24793 -1.24959,0.74975 -3.87372,0.87471 -5.7481,0.37487 z M 48.61592,37.25352 c -1.24959,-0.37488 -1.49951,-0.6248 -1.74942,-1.74942 -0.37488,-1.37455 -0.12496,-3.12397 0.37487,-3.74876 0.74976,-0.99967 3.6238,-1.37455 5.12331,-0.49984 0.74975,0.37488 1.12462,1.12463 1.12462,2.87405 0,1.62446 -0.37487,2.62413 -0.99966,2.87405 -0.6248,0.24992 -3.12397,0.37488 -3.87372,0.24992 z m 125.20853,-6.99768 c -0.74976,-0.24992 -0.99967,-0.99967 -1.49951,-2.87405 -0.49983,-2.24926 -0.49983,-4.99835 0,-5.99802 0.49984,-0.99966 1.62446,-1.74942 3.12397,-1.99933 1.12462,-0.24992 1.62446,-0.12496 3.37388,0.24991 3.74876,0.74976 6.24793,2.1243 8.49719,4.2486 1.37454,1.37454 1.87437,2.24925 2.24925,4.49851 0.12496,0.99967 0,0.99967 -1.4995,0.24991 -0.87471,-0.37487 -1.62446,-0.62479 -2.74909,-0.62479 -1.37455,-0.12496 -1.74942,0 -5.12331,1.12463 -3.49884,1.12463 -5.49817,1.4995 -6.37288,1.12463 z m 16.49453,-1.12463 c 0,-0.12496 0.24992,-0.87471 0.6248,-1.74942 0.99966,-2.37422 0.87471,-3.74876 -0.6248,-8.12231 -1.37454,-3.99868 -1.4995,-5.62314 -0.62479,-6.49785 0.74975,-0.62479 3.12396,-1.24959 5.37322,-1.37454 2.74909,-0.12496 4.12363,0.49983 4.74843,2.49917 0.87471,2.62413 -0.24992,7.62247 -2.74909,11.24627 -1.24959,1.87438 -2.74909,3.12397 -4.2486,3.49884 -1.12462,0.37488 -2.49917,0.6248 -2.49917,0.49984 z"
   style="stroke-width:1.24959" />
<path
   id="path11951-36-26-6-9"
   style="fill:none;stroke:#ff0000;stroke-width:0.377953;stroke-linecap:round;stroke-linejoin:round;stroke-miterlimit:4;stroke-dasharray:none;stroke-opacity:1"
   d="m 25.82991,17.53849 a 8.3015793,8.3015793 0 0 1 -8.30158,8.30158 8.3015793,8.3015793 0 0 1 -8.30158,-8.30158 8.3015793,8.3015793 0 0 1 8.30158,-8.30158 8.3015793,8.3015793 0 0 1 8.30158,8.30158 z" /></svg>
