<?xml version="1.0" encoding="UTF-8" standalone="no"?>
<!-- Created with Inkscape (http://www.inkscape.org/) -->

<svg
   version="1.1"
   id="svg2"
   width="622.08301"
   height="625.73169"
   viewBox="0 0 622.08301 625.73168"
   sodipodi:docname="eirlab_logo.svg"
   inkscape:version="1.1 (ce6663b3b7, 2021-05-25)"
   inkscape:export-filename="/home/sedelpeuch/eirlab/communication-tools/eirlab_logo.png"
   inkscape:export-xdpi="96"
   inkscape:export-ydpi="96"
   xmlns:inkscape="http://www.inkscape.org/namespaces/inkscape"
   xmlns:sodipodi="http://sodipodi.sourceforge.net/DTD/sodipodi-0.dtd"
   xmlns="http://www.w3.org/2000/svg"
   xmlns:svg="http://www.w3.org/2000/svg">
  <defs
     id="defs6" />
  <sodipodi:namedview
     id="namedview4"
     pagecolor="#ffffff"
     bordercolor="#666666"
     borderopacity="1.0"
     inkscape:pageshadow="2"
     inkscape:pageopacity="0.0"
     inkscape:pagecheckerboard="0"
     showgrid="false"
     inkscape:zoom="0.45098655"
     inkscape:cx="167.41076"
     inkscape:cy="95.346525"
     inkscape:window-width="1392"
     inkscape:window-height="851"
     inkscape:window-x="1672"
     inkscape:window-y="27"
     inkscape:window-maximized="1"
     inkscape:current-layer="g16746" />
  <g
     inkscape:groupmode="layer"
     inkscape:label="Image"
     id="g8"
     transform="translate(-336.83018,-336.15906)">
    <g
       id="g16746"
       inkscape:export-filename="/home/sedelpeuch/eirlab.png"
       inkscape:export-xdpi="96"
       inkscape:export-ydpi="96">
      <path
         style="fill:#97be0d;fill-opacity:1;stroke:none;stroke-width:0.386835"
         d="m 529.55031,961.29014 c -24.70651,-2.56324 -41.45238,-13.41053 -51.08414,-33.09021 -7.12863,-14.56534 -9.84128,-30.24185 -8.87816,-51.3073 1.28728,-28.15459 9.23406,-60.48197 23.34011,-94.94712 9.46499,-23.12574 25.26148,-50.13435 40.24694,-68.8135 13.51677,-16.84852 31.04738,-32.66357 43.54906,-39.28739 10.16454,-5.3855 39.77513,-13.98791 55.01336,-15.98236 6.76634,-0.88562 6.82811,-0.28563 1.13502,11.02593 -11.25093,22.35439 -16.23171,41.75015 -16.23171,63.20805 0,25.04421 4.80984,47.18784 20.44669,94.13296 18.36169,55.12576 23.30514,77.58464 20.5008,93.13884 -3.62704,20.11713 -16.73687,28.59813 -56.00477,36.23052 -27.01452,5.25075 -54.9823,7.4606 -72.0332,5.69158 z"
         id="path15485" />
      <path
         style="fill:#39a9dc;fill-opacity:1;stroke:none;stroke-width:0.386835"
         d="m 372.34503,657.49718 c -12.49108,-4.3163 -17.21994,-10.16902 -23.27304,-28.80424 -7.86591,-24.2161 -12.12898,-52.56278 -12.23699,-81.36856 -0.0827,-22.07198 0.84755,-28.00223 6.13829,-39.12736 4.14693,-8.72007 14.14999,-19.36997 23.22157,-24.7232 12.47841,-7.36365 29.64818,-11.37698 48.67274,-11.37698 57.55016,0 135.65643,31.85753 180.77185,73.73214 17.91868,16.63153 25.97396,27.16372 31.77595,41.54676 7.51341,18.62551 14.55486,48.12576 12.07835,50.60227 -1.1876,1.18761 -10.2515,-1.92227 -20.30759,-6.96765 -7.84486,-3.93595 -19.85523,-8.05036 -31.07086,-10.644 -11.19366,-2.58854 -36.86263,-3.69703 -46.54923,-2.01019 -9.57662,1.66771 -32.8004,8.52209 -69.71979,20.57749 -48.08985,15.70292 -68.11942,20.49633 -85.37205,20.43098 -5.74479,-0.0218 -10.6728,-0.67309 -14.1292,-1.86746 z"
         id="path14665" />
      <path
         style="fill:#f29400;fill-opacity:1;stroke:none;stroke-width:0.386835"
         d="m 658.21245,636.05124 c -0.28212,-0.45637 1.93866,-6.09843 4.93491,-12.53793 10.75239,-23.1089 15.29875,-43.03257 15.28347,-66.9774 -0.007,-14.49124 -0.22489,-16.15547 -3.84291,-29.66432 -2.10827,-7.87146 -8.61206,-28.82771 -14.45298,-46.56943 -5.84088,-17.74171 -12.44378,-38.5035 -14.67313,-46.13731 -19.20292,-65.75496 -9.95435,-85.69552 43.38632,-93.54401 23.71,-3.48867 75.8798,-5.71484 86.5858,-3.69477 15.70727,2.96376 33.39933,17.2911 40.72976,32.98374 5.95325,12.74438 7.54255,21.68708 7.51973,42.31205 -0.0432,39.10064 -9.62523,75.49608 -31.2575,118.72645 -17.45709,34.88657 -43.12565,68.66986 -63.44011,83.49572 -10.20745,7.44959 -29.23198,15.29391 -48.37604,19.94674 -10.07185,2.44789 -21.39198,3.28713 -22.39732,1.66047 z"
         id="path14926" />
      <path
         style="fill:#e2007a;fill-opacity:1;stroke:none;stroke-width:0.386835"
         d="m 870.98152,824.53783 c -32.92844,-2.60371 -70.0206,-14.00619 -109.00317,-33.50859 -28.63908,-14.32772 -52.4846,-30.69144 -70.25834,-48.214 -15.07408,-14.86106 -20.40917,-23.8898 -27.51901,-46.57104 -3.40289,-10.85568 -7.39923,-27.16982 -8.24984,-33.67827 l -0.72299,-5.53191 3.45794,0.69159 c 1.90185,0.38037 8.76416,3.03767 15.24957,5.90511 21.12422,9.33981 27.53488,11.21067 42.6716,12.45309 10.04009,0.82409 18.35522,0.81262 31.31185,-0.0432 21.79393,-1.43948 34.23553,-4.45741 70.86368,-17.18921 38.93127,-13.53237 57.06852,-19.05388 73.54586,-22.38954 8.98654,-1.81922 25.86794,-2.148 31.39863,-0.61152 6.59072,1.83099 13.09288,6.82816 17.24657,13.25475 10.61187,16.41862 17.68785,56.86086 17.91787,102.40829 0.10154,20.11849 -0.0853,22.63018 -2.18083,29.29272 -7.5338,23.9542 -31.39557,39.90441 -64.8306,43.33551 -10.07374,1.03377 -12.3018,1.07602 -20.89879,0.39619 z"
         id="path15187" />
    </g>
  </g>
</svg>
