<?xml version="1.0" encoding="UTF-8" standalone="no"?>
<!-- Created with Inkscape (http://www.inkscape.org/) -->

<svg
   version="1.1"
   id="svg2"
   width="953.49146"
   height="344.15259"
   viewBox="0 0 953.49146 344.1526"
   sodipodi:docname="eirlab-white-border.svg"
   inkscape:version="1.1.2 (0a00cf5339, 2022-02-04)"
   inkscape:export-filename="/home/yoan/Eirlab/communication-tools/Logo/eirlab-white-border.png"
   inkscape:export-xdpi="50.34"
   inkscape:export-ydpi="50.34"
   xmlns:inkscape="http://www.inkscape.org/namespaces/inkscape"
   xmlns:sodipodi="http://sodipodi.sourceforge.net/DTD/sodipodi-0.dtd"
   xmlns="http://www.w3.org/2000/svg"
   xmlns:svg="http://www.w3.org/2000/svg">
  <defs
     id="defs6" />
  <sodipodi:namedview
     id="namedview4"
     pagecolor="#ffffff"
     bordercolor="#666666"
     borderopacity="1.0"
     inkscape:pageshadow="2"
     inkscape:pageopacity="0.0"
     inkscape:pagecheckerboard="0"
     showgrid="false"
     inkscape:zoom="0.90197309"
     inkscape:cx="499.46058"
     inkscape:cy="397.46197"
     inkscape:window-width="1920"
     inkscape:window-height="991"
     inkscape:window-x="1920"
     inkscape:window-y="25"
     inkscape:window-maximized="1"
     inkscape:current-layer="g8"
     fit-margin-top="0"
     fit-margin-left="0"
     fit-margin-right="0"
     fit-margin-bottom="0" />
  <g
     inkscape:groupmode="layer"
     inkscape:label="Image"
     id="g8"
     transform="translate(-28.21295,-312.7472)">
    <path
       id="path15187-3"
       style="fill:#ffffff;fill-opacity:1;stroke:none;stroke-width:0.104757"
       d="m 861.25391,-16.017578 c -10.94317,0.3464 -22.07366,0.589464 -32.63282,3.802734 -8.5276,2.7334102 -16.31929,8.4722065 -20.50586,16.5039065 -4.02962,7.5502905 -4.7779,16.4871915 -3.38281,24.8320315 -9.40756,-3.98379 -19.35174,-6.822593 -29.52539,-7.908203 -9.6794,-0.94301 -19.76382,-0.05834 -28.67383,4.060547 -10.19305,4.72028 -18.46403,13.722006 -21.72265,24.535156 -1.61866,5.21454 -2.00165,10.731159 -1.78321,16.162109 0.14443,11.09217 1.83582,22.466645 6.04297,32.859375 1.41231,3.808922 3.60902,7.301852 6.36719,10.277342 -1.57943,-0.11047 -3.15519,-0.23828 -4.76367,-0.23828 H 675.00586 V 76.054688 c -3.82176,-1.215431 -7.52442,-2.79918 -10.97852,-4.84375 -4.70512,-2.809321 -10.00289,-4.71111 -15.49218,-5.09961 -3.14501,-0.34618 -6.31262,-0.433599 -9.47461,-0.417969 -6.72084,0.13194 -13.67672,0.81038 -19.71289,4.00586 -7.02132,3.69157 -11.52106,11.24382 -12.33594,19.03125 -0.57153,6.700456 -0.74362,13.417741 -0.81055,20.138671 H 393.21484 c -0.078,-2.0368 -0.0453,-4.07859 -0.20117,-6.11133 -0.42377,-4.353698 -1.72778,-8.729246 -4.47656,-12.199216 -3.9864,-5.29336 -10.3334,-8.64423 -16.91992,-9.16211 -5.19857,-0.73744 -10.46642,-0.643171 -15.70313,-0.644531 -6.29718,0.14035 -12.84067,0.442596 -18.60351,3.259766 -7.80154,3.76384 -12.67109,12.445294 -12.44532,21.021481 -0.0643,1.27789 -0.0646,2.55765 -0.11523,3.83594 H 209.73242 c -0.11061,-1.68427 -0.15251,-3.3742 -0.39844,-5.04297 -1.07442,-6.694108 -3.89723,-13.262263 -8.79101,-18.052732 -4.76583,-4.816571 -11.19358,-7.790909 -17.85352,-8.824219 -4.34322,-0.73524 -8.76944,-0.766855 -13.16211,-0.703125 -7.63177,0.23822 -15.47994,1.99967 -21.75781,6.53125 -5.04641,3.61039 -8.69111,8.954467 -10.73437,14.773437 -1.80497,-4.21821 -4.72189,-7.813412 -7.375,-11.513672 -1.99275,-2.89384 -5.47958,-4.458998 -8.90039,-4.824218 -2.20582,-0.16717 -4.42368,0.0061 -6.63477,-0.04687 -33.05866,0.0741 -66.117057,0.01135 -99.175781,0.03125 H 4.7421875 L -13.994141,99.933594 c 0.01578,57.369896 -0.05828,114.741706 0.140625,172.111326 0.144088,9.69526 0.118396,19.43797 1.490235,29.05664 1.162455,6.7299 4.4508895,13.31614 9.9960935,17.47266 5.490442,4.2537 12.5701215,6.02767 19.4374995,5.9043 25.93978,0.82394 51.89522,0.57507 77.84375,0.6914 11.285808,0.0169 22.571608,0.0318 33.857418,0.0488 2.05218,-4.9789 5.37693,-9.26153 8,-13.92969 0.38628,-0.70994 0.67084,-1.46859 1.00782,-2.20312 h 1.91015 c 3.68059,8.40434 11.84929,14.64403 20.91797,16.02929 6.66387,1.20042 13.49373,1.12071 20.21485,0.51172 4.80153,-0.55119 9.43437,-2.01836 13.93945,-3.71679 3.79011,-1.29921 7.83352,-2.45613 11.75976,-3.58204 0.82626,0.0203 0.37149,-0.92251 0.48438,-1.43945 v -7.80273 h 6.06836 c 2.13617,5.55436 5.97414,10.50187 11.31055,13.23047 5.99604,3.22722 12.98097,3.79778 19.67187,3.62109 6.77094,-0.15976 13.69181,-0.5747 20.0918,-2.97656 6.13904,-2.47953 11.09548,-7.6413 13.3457,-13.875 h 50.18555 c 0.61168,1.22071 1.29219,2.40451 2.125,3.49414 3.49854,4.77968 8.45457,8.53364 14.07226,10.44336 5.45147,1.69501 11.2252,1.3802 16.85547,1.67578 13.46994,0.36009 26.94639,0.33571 40.41992,0.41797 11.74228,0.024 23.48662,0.10355 35.22657,-0.1543 6.66034,-0.24687 13.5203,-0.73976 19.66992,-3.5332 4.1686,-1.97282 7.91062,-4.92546 10.5957,-8.69336 8.95623,7.26985 19.92668,11.77474 31.21094,13.88867 16.69405,3.22612 34.42842,1.25879 49.8457,-5.99023 5.76684,3.99205 12.90542,5.37575 19.80664,5.56835 5.32349,0.11349 10.70052,-0.36533 15.83985,-1.79882 4.70716,-1.45161 8.96951,-4.11881 12.60351,-7.41407 2.73075,-2.09226 5.59748,-4.43886 6.67188,-7.8457 0.006,-0.0191 10e-4,-0.0395 0.008,-0.0586 h 5.44922 c 0.627,2.09621 1.48144,4.1149 2.7793,5.91406 3.80575,5.55957 10.13605,9.12162 16.73828,10.08984 5.98193,1.11556 12.1217,1.05874 18.16601,0.58399 6.22004,-0.72001 12.0595,-3.0979 17.98047,-4.98047 9.35825,4.78968 19.85295,7.35521 30.37109,7.33008 11.66009,0.17266 23.38362,-1.8957 34.19922,-6.28321 7.30525,-3.08287 13.84761,-7.75785 19.5625,-13.21875 0.78812,-0.73735 1.50573,-1.5513 2.27149,-2.31445 15.56442,-20.34245 27.47461,-33.76335 27.47461,-64.07031 v -40.92383 c 2.99059,0.26481 26.00642,0.29544 28.99023,0.14258 7.15431,-0.34209 14.25579,-1.48935 21.23438,-3.07227 6.54941,-1.54222 13.03732,-4.02638 18.24218,-8.39843 5.03239,-4.10417 8.77569,-9.76437 10.4961,-16.03321 1.71187,-5.98037 1.75284,-12.34827 0.6914,-18.44922 9.4713,4.15514 19.46657,7.31729 29.76954,8.49805 9.16967,1.02254 18.65884,0.0893 27.21679,-3.47656 7.90335,-3.24624 14.98119,-8.77611 19.45703,-16.11524 4.17159,-6.70409 6.16341,-14.70835 5.71289,-22.58593 -0.075,-11.83153 -1.0914,-23.863285 -5.1875,-35.050785 -3.35133,-8.85123 -10.35344,-16.490966 -19.33593,-19.753906 -6.47862,-2.36663 -13.57375,-2.437537 -20.32227,-1.373047 5.36568,-12.15196 8.5607,-25.406435 8.19141,-38.740234 -0.13484,-6.3214 -1.01973,-12.742124 -3.6836,-18.5332036 -4.92577,-11.12546 -14.8942,-20.0919484 -26.75976,-23.1113284 -3.6137,-0.92251 -7.35907,-1.249734 -11.08203,-1.177734 z M 767.34766,119.0332 c -0.0847,0.1994 -0.14878,0.40755 -0.23243,0.60742 -0.26661,-0.17285 -0.54717,-0.325 -0.8164,-0.49414 0.3494,-0.0405 0.70047,-0.0663 1.04883,-0.11328 z"
       transform="translate(42.208113,328.77442)"
       sodipodi:nodetypes="ccccccccccscccccccccccccccccccccccccccccccccccccccccccccccccccccccccccccccccccccccccsccccccccccccccccccccc" />
    <path
       style="fill:#97be0d;fill-opacity:1;stroke:none;stroke-width:0.104757"
       d="m 792.40432,169.47828 c -6.69065,-0.69414 -11.22552,-3.63164 -13.83385,-8.961 -1.93047,-3.94437 -2.66507,-8.18965 -2.40425,-13.89428 0.3486,-7.62441 2.50063,-16.37883 6.32062,-25.71217 2.56317,-6.26257 6.84094,-13.57664 10.89908,-18.63505 3.66041,-4.562666 8.40779,-8.845465 11.79331,-10.63923 2.75261,-1.458421 10.77131,-3.787998 14.8979,-4.328105 1.83236,-0.239829 1.84909,-0.07735 0.30737,2.985878 -3.04681,6.053684 -4.39563,11.306157 -4.39563,17.117067 0,6.7821 1.30253,12.77871 5.53707,25.49169 4.97244,14.92834 6.31115,21.01032 5.55172,25.22248 -0.98222,5.44782 -4.53243,7.74452 -15.16638,9.81141 -7.31567,1.42193 -14.88949,2.02037 -19.50696,1.54131 z"
       id="path15485"
       transform="translate(50.235233,335.96952)" />
    <path
       style="fill:#000000;fill-opacity:1;stroke:none"
       d="m 542.44599,633.27158 c -19.23298,-4.17633 -31.00338,-16.38486 -33.28041,-34.51921 -3.06744,-24.42924 9.71274,-41.66405 36.28802,-48.93649 9.44858,-2.58565 23.09411,-3.98022 39.15701,-4.00184 l 12.87326,-0.0173 -0.44033,-11.75 c -0.33656,-8.98122 -0.92009,-12.81038 -2.47633,-16.25 -4.53199,-10.01664 -11.95795,-14.17676 -26.42584,-14.80413 -12.37188,-0.53648 -22.25406,1.87391 -36.09938,8.80512 -5.59259,2.79975 -11.08774,4.95738 -12.21145,4.79473 -4.29754,-0.62202 -6.12356,-10.76842 -3.08888,-17.16353 4.19849,-8.84767 30.62003,-17.65291 52.85617,-17.61483 23.96886,0.0411 40.59837,7.93754 47.72684,22.663 5.22489,10.79318 5.2442,11.03159 5.6542,69.80979 l 0.38358,54.99014 -2.17333,1.75986 c -2.45661,1.98923 -12.97033,2.46369 -17.38666,0.7846 -2.46028,-0.9354 -2.5651,-1.30421 -2.5651,-9.02554 v -8.0503 l -6.35608,5.39203 c -14.92269,12.65931 -33.35689,17.27669 -52.43529,13.13393 z m 29.14579,-20.50262 c 6.89942,-2.13102 12.98987,-6.15386 20.89558,-13.80189 l 4.75,-4.59518 V 579.5843 564.79671 l -15.75,0.0174 c -22.9164,0.0253 -32.89888,2.60156 -40.53127,10.46039 -3.98725,4.10554 -5.72716,9.18721 -5.69677,16.63827 0.0409,10.03621 5.55679,17.66498 15.17409,20.98674 6.94181,2.39765 13.09603,2.35969 21.15837,-0.13051 z m 154.14558,20.62098 c -8.168,-2.02024 -15.83729,-6.39807 -24.93119,-14.23138 l -8.56881,-7.38101 v 9.43203 9.43203 l -3.59892,1.18775 c -4.04358,1.3345 -15.86055,0.90788 -17.39648,-0.62805 -0.65483,-0.65483 -1.01327,-37.4418 -1.03656,-106.38329 -0.0319,-94.44417 0.12732,-105.54524 1.5339,-106.95182 1.98166,-1.98166 17.81598,-2.17211 21.24806,-0.25557 l 2.25,1.25645 v 42.46846 42.46847 l 7.62103,-6.3869 c 12.9818,-10.87955 24.93346,-15.6204 39.37897,-15.6204 19.68277,0 35.98888,9.40325 45.32737,26.13896 13.37894,23.97667 13.865,68.98169 1.034,95.7392 -4.46229,9.30557 -15.8682,21.1855 -24.38558,25.39901 -10.57622,5.23202 -27.2227,7.09935 -38.47579,4.31606 z m 23.05963,-23.87008 c 5.69013,-2.8834 12.31172,-9.5905 15.35231,-15.55053 4.96668,-9.7355 6.57587,-18.62953 6.54471,-36.17262 -0.0222,-12.47287 -0.45401,-18.07027 -1.76936,-22.93374 -5.86519,-21.68626 -17.90975,-32.32131 -34.86389,-30.78396 -9.96852,0.90391 -17.76619,5.3678 -28.99971,16.60132 l -9.82369,9.8237 v 27.9818 27.9818 l 7.75,7.99598 c 4.2625,4.39779 9.95902,9.49266 12.65894,11.32193 10.83992,7.34437 23.26461,8.74398 33.15069,3.73432 z m -543.70573,22.1492 c -1.45536,-0.53336 -2.91172,-1.96034 -3.23635,-3.17105 -0.76863,-2.8666 -0.77219,-137.52282 -0.004,-140.3884 0.33665,-1.25535 1.88547,-2.63991 3.63557,-3.25 4.0624,-1.41616 16.0145,-1.35541 19.20354,0.0976 l 2.54705,1.16051 v 72.24166 72.24166 l -3.14922,1.09782 c -3.81193,1.32885 -15.33896,1.31075 -18.99688,-0.0298 z m 73.6461,0.45092 c -4.66239,-1.25531 -4.5,1.41228 -4.5,-73.92266 v -71.3545 l 2.48698,-1.62953 c 2.97322,-1.94814 17.62275,-1.70685 19.6533,0.3237 0.83989,0.83989 1.18412,4.64082 1.0863,11.99461 l -0.14321,10.76511 3.14061,-4 c 5.98575,-7.62367 16.29912,-17.11124 21.13344,-19.44126 9.3661,-4.51422 27.16411,-3.62812 32.4056,1.61337 2.34699,2.34699 2.44892,2.9364 2.05712,11.89467 -0.23963,5.47903 -0.91656,9.92964 -1.61677,10.62985 -0.93938,0.93938 -3.05149,0.72013 -9.59488,-0.99605 -10.55969,-2.76955 -12.91971,-2.74564 -19.10849,0.19364 -5.88875,2.79679 -12.18257,9.10715 -19.90854,19.96087 l -5.59146,7.8551 v 46.77246 c 0,42.27601 -0.15888,46.9044 -1.65271,48.14491 -1.69046,1.40379 -15.89585,2.2596 -19.84729,1.19571 z M 55.594356,630.80513 c -5.629535,-2.2718 -5.356999,2.78046 -5.356999,-99.30785 v -93.85442 l 2.923077,-2.92307 2.923077,-2.92308 h 50.520219 50.52022 l 1.55671,2.22251 c 2.1191,3.02545 2.1191,14.52953 0,17.55498 l -1.55671,2.22251 H 117.18066 77.237357 v 31.52237 31.52237 l 34.250003,-0.0719 34.25,-0.0719 1.84762,2.28088 c 1.51363,1.86857 1.78081,3.60383 1.47804,9.59958 -0.25512,5.05198 -0.82736,7.60819 -1.84762,8.25335 -0.84092,0.53176 -16.24181,0.94125 -35.72804,0.94996 l -34.250003,0.0153 v 36 36 h 40.428573 c 44.65554,0 43.38828,-0.18312 43.74646,6.32143 0.33578,6.09769 -0.33765,11.19473 -1.7742,13.42857 l -1.44694,2.25 -50.22695,-0.0634 c -27.624817,-0.0349 -51.191294,-0.45255 -52.369944,-0.92819 z m 337.094174,-0.13915 c -1.12685,-0.54745 -2.59789,-1.87455 -3.26896,-2.94912 -1.61433,-2.58495 -1.73485,-193.76751 -0.12317,-195.37919 1.3702,-1.3702 22.51012,-1.3718 23.88011,-0.002 0.70227,0.70227 1.04974,28.97898 1.07182,87.22507 0.018,47.40227 0.296,86.87215 0.61784,87.71086 0.50975,1.32839 5.33524,1.52492 37.443,1.52492 h 36.85782 l 1.17843,2.20191 c 0.64814,1.21105 1.20738,5.4599 1.24277,9.44188 0.10954,12.32481 4.36975,11.36787 -50.25582,11.28853 -28.73473,-0.0417 -47.38034,-0.44921 -48.64384,-1.06305 z M 208.28227,456.70395 c -2.4503,-0.48013 -5.24043,-1.66818 -6.2003,-2.64011 -3.38619,-3.42871 -4.32122,-15.20936 -1.71156,-21.56429 1.70128,-4.14288 5.63124,-5.70284 14.36695,-5.70284 12.41174,0 15.5,2.98864 15.5,15 0,7.39764 -1.57363,11.73604 -4.85842,13.3944 -3.64667,1.84105 -11.75853,2.55885 -17.09667,1.51284 z"
       id="path863"
       sodipodi:nodetypes="sssscssssssssscssscssssscccsssssssscccssssscccsssssssssssscccssscscsscccsccsscssscsssssssscssssscccccsscccccccsssscccssscsscsssssscsssccsssssss" />
    <path
       style="fill:#39aedc;fill-opacity:1;stroke:none;stroke-width:0.104757"
       d="m 749.83232,87.209581 c -3.38265,-1.168876 -4.66325,-2.753824 -6.30246,-7.800338 -2.13013,-6.557845 -3.28459,-14.234272 -3.31384,-22.035026 -0.0224,-5.977204 0.22952,-7.583147 1.66228,-10.595891 1.12301,-2.361438 3.83189,-5.245486 6.28852,-6.695168 3.37922,-1.994114 8.02888,-3.080945 13.18083,-3.080945 15.58488,0 36.73646,8.627182 48.95395,19.967044 4.85247,4.503903 7.03388,7.356073 8.60509,11.251077 2.03467,5.043884 3.94153,13.032703 3.27088,13.703355 -0.32161,0.321609 -2.77616,-0.520562 -5.4994,-1.886877 -2.12443,-1.065875 -5.3769,-2.180079 -8.41415,-2.882448 -3.0313,-0.700991 -9.98259,-1.001177 -12.60577,-0.54437 -2.5934,0.451623 -8.88252,2.307826 -18.88048,5.572489 -13.02298,4.252432 -18.44709,5.550512 -23.11919,5.532814 -1.55572,-0.0059 -2.89025,-0.182275 -3.82626,-0.505716 z"
       id="path14665"
       transform="translate(50.235233,335.96952)" />
    <path
       style="fill:#f29400;fill-opacity:1;stroke:none;stroke-width:0.104757"
       d="m 827.24669,81.401908 c -0.0764,-0.123585 0.525,-1.651485 1.3364,-3.395334 2.9118,-6.258011 4.14298,-11.653444 4.13884,-18.137825 -0.002,-3.924305 -0.0609,-4.374987 -1.04068,-8.033253 -0.57093,-2.131632 -2.33219,-7.806691 -3.91394,-12.611241 -1.58174,-4.804547 -3.36984,-10.426946 -3.97356,-12.494221 -5.20025,-17.8067819 -2.69569,-23.2067872 11.74924,-25.3322011 6.42079,-0.94474862 20.54864,-1.54760816 23.44788,-1.00056099 4.25361,0.80259979 9.04471,4.68251909 11.02983,8.93216499 1.61217,3.4512451 2.04256,5.8729751 2.03638,11.4583231 -0.0117,10.588653 -2.60656,20.444726 -8.46469,32.151735 -4.72747,9.447463 -11.67865,18.596151 -17.17991,22.611071 -2.76423,2.017386 -7.91617,4.14167 -13.10048,5.401678 -2.72751,0.662902 -5.79306,0.890173 -6.06531,0.449664 z"
       id="path14926"
       transform="translate(50.235233,335.96952)" />
    <path
       style="fill:#e2007a;fill-opacity:1;stroke:none;stroke-width:0.104757"
       d="m 884.86565,132.44505 c -8.91719,-0.7051 -18.96194,-3.79295 -29.51862,-9.0743 -7.75561,-3.88002 -14.2131,-8.3114 -19.02632,-13.0566 -4.08214,-4.02445 -5.52691,-6.46948 -7.45229,-12.611678 -0.92152,-2.939773 -2.00375,-7.357726 -2.2341,-9.120249 l -0.19579,-1.49807 0.93643,0.187286 c 0.51503,0.103007 2.37338,0.822617 4.12966,1.599134 5.72055,2.529271 7.45659,3.035908 11.55569,3.372362 2.71891,0.223167 4.97069,0.220063 8.47941,-0.01169 5.90191,-0.389819 9.27116,-1.20709 19.19025,-4.654928 10.54279,-3.664634 15.45445,-5.159889 19.9166,-6.063203 2.4336,-0.492653 7.00517,-0.581689 8.50291,-0.165601 1.7848,0.49584 3.54562,1.849101 4.67046,3.589455 2.87375,4.446245 4.78996,15.398212 4.85225,27.732692 0.0275,5.44819 -0.0231,6.12837 -0.59058,7.93262 -2.04019,6.48692 -8.50208,10.80632 -17.55646,11.73548 -2.72802,0.27995 -3.33139,0.29139 -5.6595,0.10729 z"
       id="path15187"
       transform="translate(50.235233,335.96952)" />
  </g>
</svg>
