<?xml version="1.0" encoding="UTF-8" standalone="no"?>
<!-- Created with Inkscape (http://www.inkscape.org/) -->

<svg
   version="1.1"
   id="svg2"
   width="4165.7212"
   height="1368.8557"
   viewBox="0 0 4165.7212 1368.8557"
   sodipodi:docname="eirlab_white.svg"
   inkscape:version="1.1 (ce6663b3b7, 2021-05-25)"
   xmlns:inkscape="http://www.inkscape.org/namespaces/inkscape"
   xmlns:sodipodi="http://sodipodi.sourceforge.net/DTD/sodipodi-0.dtd"
   xmlns="http://www.w3.org/2000/svg"
   xmlns:svg="http://www.w3.org/2000/svg">
  <defs
     id="defs6" />
  <sodipodi:namedview
     id="namedview4"
     pagecolor="#ffffff"
     bordercolor="#666666"
     borderopacity="1.0"
     inkscape:pageshadow="2"
     inkscape:pageopacity="0.0"
     inkscape:pagecheckerboard="0"
     showgrid="false"
     inkscape:zoom="0.31889565"
     inkscape:cx="3921.3454"
     inkscape:cy="1147.7108"
     inkscape:window-width="1600"
     inkscape:window-height="863"
     inkscape:window-x="0"
     inkscape:window-y="0"
     inkscape:window-maximized="1"
     inkscape:current-layer="g16746" />
  <g
     inkscape:groupmode="layer"
     inkscape:label="Image"
     id="g8"
     transform="translate(536.90373,541.17127)">
    <g
       id="g16746"
       inkscape:export-filename="/home/sedelpeuch/eirlab.png"
       inkscape:export-xdpi="96"
       inkscape:export-ydpi="96">
      <path
         style="fill:#97be0d;fill-opacity:1;stroke:none;stroke-width:0.480245"
         d="m 3095.7751,234.91176 c -30.6724,-3.1822 -51.462,-16.6488 -63.4195,-41.08059 -8.85,-18.08247 -12.2177,-37.54443 -11.022,-63.6966 1.5981,-34.953153 11.4638,-75.086701 28.9761,-117.874235 11.7505,-28.709972 31.3614,-62.240415 49.9655,-85.430065 16.7807,-20.916974 38.5444,-40.55093 54.0649,-48.77422 12.619,-6.68595 49.3798,-17.36561 68.2976,-19.84166 8.4002,-1.09947 8.4769,-0.3546 1.4091,13.68838 -13.9677,27.75236 -20.1512,51.831671 -20.1512,78.471064 0,31.091692 5.9713,58.5824038 25.384,116.863477 22.7955,68.437119 28.9327,96.319189 25.4511,115.629319 -4.5028,24.97485 -20.7783,35.50378 -69.5283,44.97918 -33.5378,6.51866 -68.259,9.26214 -89.4273,7.06595 z"
         id="path15485" />
      <path
         style="fill:#ffffff;fill-opacity:1;stroke:none;stroke-width:4.58438"
         d="M 1719.5752,820.90395 C 1631.404,801.75809 1577.444,745.7896 1567.0053,662.65494 c -14.0623,-111.99281 44.5268,-191.00365 166.3579,-224.34325 43.3158,-11.85359 105.872,-18.24682 179.5104,-18.34593 l 59.0159,-0.0793 -2.0187,-53.86641 c -1.5429,-41.17329 -4.218,-58.72759 -11.3524,-74.4961 -20.7764,-45.92004 -54.8197,-64.99159 -121.146,-67.86769 -56.7173,-2.45943 -102.0209,8.5907 -165.4931,40.36597 -25.6385,12.83511 -50.8304,22.72649 -55.9819,21.98085 -19.7015,-2.85158 -28.0727,-49.36648 -14.1605,-78.68407 19.2474,-40.56104 140.3737,-80.92757 242.3125,-80.75299 109.8822,0.18842 186.1181,36.38866 218.7977,103.8957 23.9529,49.47999 24.0414,50.57295 25.921,320.03428 l 1.7585,252.09545 -9.9634,8.06786 c -11.262,9.11937 -59.4608,11.29447 -79.707,3.5969 -11.2788,-4.28823 -11.7593,-5.97899 -11.7593,-41.37647 v -36.90559 l -29.1387,24.71908 c -68.4112,58.03503 -152.9205,79.20284 -240.383,60.21087 z m 133.6152,-93.9917 c 31.6295,-9.7694 59.5504,-28.21161 95.7932,-63.27305 l 21.7758,-21.06603 v -67.79186 -67.79187 l -72.204,0.0798 c -105.0573,0.11599 -150.8208,11.92653 -185.8105,47.95436 -18.2791,18.82133 -26.2555,42.11762 -26.1161,76.27607 0.1875,46.00976 25.4744,80.9829 69.5637,96.2111 31.8238,10.99172 60.0371,10.8177 96.9979,-0.59831 z m 706.6612,94.53431 c -37.4452,-9.26154 -72.6041,-29.33116 -114.2939,-65.24199 l -39.2827,-33.83732 v 43.23997 43.23996 l -16.4988,5.44509 c -18.5373,6.11785 -72.7107,4.16207 -79.752,-2.87921 -3.002,-3.00199 -4.6452,-171.64727 -4.752,-487.70094 -0.1462,-432.96753 0.5837,-483.859 7.032,-490.30729 9.0847,-9.08468 81.6752,-9.95777 97.4091,-1.17163 l 10.3149,5.76004 V 32.684601 227.37601 l 34.9376,-29.27995 c 59.5135,-49.87594 114.3044,-71.60977 180.528,-71.60977 90.2332,0 164.9865,43.10802 207.7977,119.8308 61.3341,109.91806 63.5623,316.23796 4.7402,438.90443 -20.4568,42.66023 -72.7458,97.12229 -111.7926,116.4386 -48.4854,23.98554 -124.7991,32.54609 -176.3875,19.78644 z m 105.714,-109.42941 c 26.0857,-13.21859 56.4415,-43.96645 70.3808,-71.28947 22.7691,-44.63118 30.1462,-85.40475 30.0034,-165.82886 -0.1018,-57.18032 -2.0814,-82.84091 -8.1115,-105.13688 -26.8882,-99.41795 -82.105,-148.17302 -159.8291,-141.12523 -45.6994,4.14387 -81.4469,24.60801 -132.9456,76.10669 l -45.0354,45.03552 V 478.058 606.33708 l 35.5289,36.65657 c 19.5409,20.16112 45.6558,43.51792 58.0333,51.90398 49.6943,33.66935 106.6537,40.08568 151.9752,17.11952 z M 173.01443,813.5574 c -6.67192,-2.44512 -13.34842,-8.98693 -14.83665,-14.53728 -3.52368,-13.14157 -3.54001,-630.45624 -0.0183,-643.59313 1.54333,-5.755 8.6437,-12.10234 16.66681,-14.89922 18.62357,-6.49221 73.41648,-6.21371 88.03624,0.44743 l 11.67663,5.32022 v 331.18289 331.18288 l -14.4372,5.03282 c -17.47532,6.09195 -70.31955,6.00897 -87.08883,-0.13661 z m 337.62137,2.06719 c -21.37415,-5.75482 -20.62969,6.47442 -20.62969,-338.88923 V 149.61955 l 11.40125,-7.47038 c 13.63035,-8.931 80.7893,-7.82484 90.0981,1.48396 3.85037,3.85037 5.42845,21.27526 4.98001,54.9878 l -0.65653,49.3513 14.39774,-18.3375 c 27.44092,-34.94976 74.72128,-78.44435 96.88362,-89.12603 42.93772,-20.69488 124.53048,-16.63267 148.55943,7.39629 10.75949,10.75948 11.22677,13.46156 9.43061,54.52963 -1.09855,25.11793 -4.20185,45.5212 -7.41188,48.73123 -4.30647,4.30647 -13.98917,3.30134 -43.98653,-4.56627 -48.40958,-12.69666 -59.2288,-12.58704 -87.60049,0.88772 -26.99624,12.82153 -55.84947,41.75059 -91.26822,91.50812 l -25.63335,36.01073 v 214.42251 c 0,193.8091 -0.72837,215.02738 -7.57665,220.71434 -7.7497,6.4355 -72.87254,10.35886 -90.98742,5.48159 z m -1022.9713,-6.02777 c -25.8079,-10.41478 -24.5585,12.74667 -24.5585,-455.26446 V -75.931539 l 13.40049,-13.40045 13.40048,-13.400491 h 231.60365 231.603651 l 7.136543,10.188815 c 9.71475,13.869799 9.71475,66.60882 0,80.478619 l -7.136543,10.1888199 H -230.00076 -413.11586 V 142.63415 287.14453 l 157.01487,-0.32962 157.014858,-0.32961 8.470184,10.45641 c 6.939048,8.56622 8.163901,16.52131 6.77589,44.00807 -1.169566,23.16018 -3.792929,34.8788 -8.470184,37.83646 -3.855093,2.43779 -74.458558,4.31504 -163.790748,4.35497 l -157.01487,0.0701 v 165.03752 165.03751 h 185.33975 c 204.717764,0 198.908168,-0.83949 200.5502,28.97981 1.539342,27.9541 -1.547914,51.32085 -8.133599,61.56161 l -6.633316,10.31484 -230.259195,-0.29065 c -126.64253,-0.15999 -234.68011,-2.07466 -240.08348,-4.25517 z m 1545.3662,-0.63792 c -5.1659,-2.50971 -11.9097,-8.59364 -14.9861,-13.51987 -7.4007,-11.85038 -7.9532,-888.303005 -0.5647,-895.69155 6.2816,-6.28151 103.1949,-6.28885 109.4754,-0.009 3.2195,3.219469 4.8124,132.850523 4.9137,399.87247 0.082,217.3098 1.3569,398.25454 2.8324,402.0995 2.3368,6.08984 24.4587,6.99081 171.6527,6.99081 h 168.9701 l 5.4024,10.09438 c 2.9713,5.55191 5.5351,25.03023 5.6973,43.28512 0.5022,56.50156 20.0326,52.11459 -230.3915,51.75086 -131.7308,-0.19116 -217.2093,-2.05934 -223.0017,-4.87342 z M 187.64321,11.451653 C 176.41012,9.2505573 163.61912,3.8040901 159.21871,-0.65160187 143.69515,-16.370096 139.40862,-70.377018 151.37228,-99.510402 c 7.7993,-18.992518 25.81572,-26.143958 65.86349,-26.143958 56.90008,0 71.05782,13.70105 71.05782,68.765629 0,33.913559 -7.21411,53.8024132 -22.27282,61.404958 -16.71771,8.440064 -53.90552,11.730729 -78.37756,6.935426 z"
         id="path863"
         sodipodi:nodetypes="sssscssssssssscssscssssscccsssssssscccssssscccsssssssssssscccssscscsscccsccsscssscsssssssscssssscccccsscccccccsssscccssscsscsssssscsssccsssssss" />
      <path
         style="fill:#39a9dc;fill-opacity:1;stroke:none;stroke-width:0.480245"
         d="m 2900.6091,-142.23884 c -15.5073,-5.35857 -21.3781,-12.62457 -28.8928,-35.75968 -9.7653,-30.06362 -15.0578,-65.25525 -15.1919,-101.01683 -0.1027,-27.40175 1.0522,-34.76399 7.6205,-48.57554 5.1483,-10.82572 17.5668,-24.04728 28.8289,-30.69317 15.4916,-9.14176 36.8074,-14.1242 60.4259,-14.1242 71.4469,0 168.4137,39.55024 224.4233,91.53642 22.2455,20.64758 32.2459,33.723 39.449,51.57916 9.3276,23.12306 18.0694,59.7468 14.9949,62.82132 -1.4744,1.47438 -12.727,-2.38645 -25.2113,-8.65015 -9.7392,-4.88637 -24.6497,-9.9943 -38.5736,-13.21422 -13.8967,-3.21361 -45.764,-4.58977 -57.7896,-2.4956 -11.8891,2.07041 -40.7208,10.57994 -86.5552,25.54638 -59.7023,19.49475 -84.5684,25.44563 -105.9871,25.3645 -7.132,-0.0271 -13.25,-0.83562 -17.541,-2.31839 z"
         id="path14665" />
      <path
         style="fill:#f29400;fill-opacity:1;stroke:none;stroke-width:0.480245"
         d="m 3255.5056,-168.8634 c -0.3502,-0.56656 2.4068,-7.57102 6.1266,-15.56548 13.3488,-28.68907 18.993,-53.42376 18.974,-83.1506 -0.01,-17.99049 -0.2792,-20.05658 -4.7709,-36.82745 -2.6173,-9.7722 -10.6916,-35.7888 -17.9429,-57.81466 -7.2513,-22.02585 -15.4486,-47.80104 -18.2163,-57.2782 -23.8399,-81.63297 -12.3581,-106.38862 53.8629,-116.13232 29.4353,-4.33108 94.2027,-7.09482 107.4939,-4.58695 19.5001,3.67942 41.4643,21.46643 50.5649,40.9484 7.3908,15.8218 9.3638,26.92392 9.3355,52.52926 -0.054,48.54236 -11.9495,93.72629 -38.8053,147.39562 -21.6725,43.31072 -53.5393,85.25174 -78.7592,103.65764 -12.6722,9.24845 -36.2907,18.98697 -60.0575,24.76332 -12.5039,3.03899 -26.5576,4.08088 -27.8057,2.06142 z"
         id="path14926" />
      <path
         style="fill:#e2007a;fill-opacity:1;stroke:none;stroke-width:0.480245"
         d="m 3519.6526,65.137529 c -40.8798,-3.232443 -86.9287,-17.388307 -135.3244,-41.599998 -35.5547,-17.7874679 -65.1582,-38.102577 -87.2238,-59.856355 -18.7141,-18.44959 -25.3375,-29.658525 -34.1641,-57.816667 -4.2246,-13.477019 -9.186,-33.730579 -10.242,-41.810649 l -0.8976,-6.86771 4.293,0.85859 c 2.3611,0.47222 10.8804,3.77118 18.9319,7.33103 26.2251,11.59513 34.1838,13.91774 52.9756,15.46017 12.4645,1.02308 22.7875,1.00885 38.8728,-0.0536 27.0566,-1.78708 42.5025,-5.53375 87.9753,-21.33994 48.3321,-16.80005 70.849,-23.65486 91.3052,-27.796 11.1565,-2.2585 32.1143,-2.66668 38.9805,-0.75917 8.1822,2.27311 16.2545,8.47697 21.4112,16.45541 13.1743,20.38325 21.9589,70.591181 22.2445,127.137068 0.1261,24.97654784 -0.1059,28.0947483 -2.7074,36.366108 -9.353,29.738476 -38.9768,49.540227 -80.4854,53.799845 -12.5063,1.283396 -15.2724,1.335842 -25.9453,0.491858 z"
         id="path15187" />
    </g>
  </g>
</svg>
