<?xml version="1.0" encoding="UTF-8" standalone="no"?>
<!-- Created with Inkscape (http://www.inkscape.org/) -->

<svg
   width="40.112591mm"
   height="21.231432mm"
   viewBox="0 0 40.112591 21.231432"
   version="1.1"
   id="svg8"
   inkscape:version="1.1 (ce6663b3b7, 2021-05-25)"
   sodipodi:docname="reseauCondense.svg"
   xmlns:inkscape="http://www.inkscape.org/namespaces/inkscape"
   xmlns:sodipodi="http://sodipodi.sourceforge.net/DTD/sodipodi-0.dtd"
   xmlns="http://www.w3.org/2000/svg"
   xmlns:svg="http://www.w3.org/2000/svg"
   xmlns:rdf="http://www.w3.org/1999/02/22-rdf-syntax-ns#"
   xmlns:cc="http://creativecommons.org/ns#"
   xmlns:dc="http://purl.org/dc/elements/1.1/">
  <defs
     id="defs2" />
  <sodipodi:namedview
     id="base"
     pagecolor="#ffffff"
     bordercolor="#666666"
     borderopacity="1.0"
     inkscape:pageopacity="0.0"
     inkscape:pageshadow="2"
     inkscape:zoom="1.979899"
     inkscape:cx="52.275395"
     inkscape:cy="101.52033"
     inkscape:document-units="mm"
     inkscape:current-layer="layer1"
     showgrid="false"
     inkscape:window-width="1392"
     inkscape:window-height="851"
     inkscape:window-x="1672"
     inkscape:window-y="27"
     inkscape:window-maximized="1"
     inkscape:pagecheckerboard="0" />
  <metadata
     id="metadata5">
    <rdf:RDF>
      <cc:Work
         rdf:about="">
        <dc:format>image/svg+xml</dc:format>
        <dc:type
           rdf:resource="http://purl.org/dc/dcmitype/StillImage" />
      </cc:Work>
    </rdf:RDF>
  </metadata>
  <g
     inkscape:label="Calque 1"
     inkscape:groupmode="layer"
     id="layer1"
     transform="translate(-36.834008,275.67375)">
    <g
       id="g2112"
       transform="matrix(0.35277777,0,0,0.35277777,32.996172,-499.31281)">
      <path
         style="clip-rule:nonzero;fill:#54abee;fill-opacity:1;fill-rule:nonzero;stroke:none"
         d="m 27.371094,642.18359 c 0,4.55469 -3.691406,8.2461 -8.246094,8.2461 -4.554688,0 -8.246094,-3.69141 -8.246094,-8.2461 0,-4.55078 3.691406,-8.24609 8.246094,-8.24609 4.554688,0 8.246094,3.69531 8.246094,8.24609 z m 0,0"
         id="path59" />
      <path
         style="fill:#ffffff;fill-opacity:1;fill-rule:nonzero;stroke:none"
         d="m 24.175781,639.86719 c -0.351562,0.15625 -0.734375,0.26172 -1.132812,0.30859 0.40625,-0.24609 0.71875,-0.62891 0.867187,-1.08984 -0.378906,0.22265 -0.800781,0.39062 -1.25,0.47656 -0.359375,-0.38281 -0.875,-0.62109 -1.441406,-0.62109 -1.085938,0 -1.96875,0.88281 -1.96875,1.96875 0,0.15625 0.01563,0.30468 0.05078,0.44921 -1.636719,-0.082 -3.089843,-0.86718 -4.0625,-2.05859 -0.171875,0.29297 -0.265625,0.62891 -0.265625,0.99219 0,0.68359 0.347656,1.28515 0.875,1.64062 -0.324218,-0.0117 -0.625,-0.10156 -0.894531,-0.24609 0,0.008 0,0.0156 0,0.0234 0,0.95312 0.679687,1.75 1.582031,1.93359 -0.164062,0.043 -0.339844,0.0703 -0.519531,0.0703 -0.125,0 -0.25,-0.0156 -0.371094,-0.0351 0.253907,0.78125 0.980469,1.35156 1.84375,1.36718 -0.675781,0.52735 -1.527343,0.84375 -2.449219,0.84375 -0.160156,0 -0.316406,-0.008 -0.46875,-0.0273 0.871094,0.55859 1.90625,0.88672 3.019532,0.88672 3.625,0 5.609375,-3.00391 5.609375,-5.60938 0,-0.0859 -0.0039,-0.17187 -0.0078,-0.2539 0.386719,-0.28125 0.71875,-0.625 0.984375,-1.01953 z m 0,0"
         id="path63" />
      <path
         style="clip-rule:nonzero;fill:#3d4fb3;fill-opacity:1;fill-rule:nonzero;stroke:none"
         d="m 19.246094,656.54297 c -0.519532,0 -1.039063,0.0508 -1.550782,0.15234 -0.511718,0.10156 -1.007812,0.25391 -1.488281,0.45313 -0.484375,0.20312 -0.941406,0.44922 -1.375,0.73828 -0.433593,0.29297 -0.835937,0.625 -1.207031,0.99609 -0.367188,0.3711 -0.699219,0.77344 -0.988281,1.20703 -0.289063,0.4375 -0.535157,0.89844 -0.734375,1.38282 -0.199219,0.48437 -0.351563,0.98437 -0.453125,1.49609 -0.101563,0.51562 -0.152344,1.03516 -0.152344,1.55859 0,0.52344 0.05078,1.04297 0.152344,1.5586 0.101562,0.51562 0.253906,1.01172 0.453125,1.5 0.199218,0.48437 0.445312,0.9414 0.734375,1.3789 0.289062,0.4375 0.621093,0.83985 0.988281,1.21094 0.371094,0.37109 0.773438,0.69922 1.207031,0.99219 0.433594,0.29297 0.890625,0.53906 1.375,0.73828 0.480469,0.19922 0.976563,0.35156 1.488281,0.45312 0.511719,0.10157 1.03125,0.15625 1.550782,0.15625 0.523437,0 1.039062,-0.0547 1.554687,-0.15625 0.511719,-0.10156 1.007813,-0.2539 1.488281,-0.45312 0.484376,-0.19922 0.941407,-0.44531 1.375,-0.73828 0.433594,-0.29297 0.835938,-0.6211 1.207032,-0.99219 0.367187,-0.37109 0.699218,-0.77344 0.988281,-1.21094 0.289063,-0.4375 0.535156,-0.89453 0.734375,-1.3789 0.199219,-0.48828 0.351562,-0.98438 0.453125,-1.5 0.101563,-0.51563 0.152344,-1.03516 0.152344,-1.5586 0,-0.52343 -0.05078,-1.04297 -0.152344,-1.55859 -0.101563,-0.51172 -0.253906,-1.01172 -0.453125,-1.49609 -0.199219,-0.48438 -0.445312,-0.94532 -0.734375,-1.38282 -0.289063,-0.43359 -0.621094,-0.83593 -0.988281,-1.20703 -0.371094,-0.37109 -0.773438,-0.70312 -1.207032,-0.99609 -0.433593,-0.28906 -0.890624,-0.53516 -1.375,-0.73828 -0.480468,-0.19922 -0.976562,-0.35157 -1.488281,-0.45313 -0.515625,-0.10156 -1.03125,-0.15234 -1.554687,-0.15234 z m 0,0"
         id="path65" />
      <path
         style="fill:#ffffff;fill-opacity:1;fill-rule:nonzero;stroke:none"
         d="m 21.382812,664.52734 h -1.339843 v 4.79297 h -1.988281 v -4.79297 h -1.191407 v -1.59765 h 1.191407 v -0.96094 c 0,-1.40234 0.582031,-2.23047 2.222656,-2.23047 h 1.355468 v 1.59375 h -0.910156 c -0.636718,0 -0.679687,0.24219 -0.679687,0.69141 v 0.90625 h 1.589843 z m 0,0"
         id="path69" />
      <path
         style="fill:#000000;fill-opacity:1;fill-rule:nonzero;stroke:none"
         d="M 24.816406,682.02344 H 12.929688 c -0.167969,0 -0.304688,-0.13672 -0.304688,-0.30469 0,-0.16406 0.136719,-0.30078 0.304688,-0.30078 h 11.886718 c 0.167969,0 0.300782,0.13672 0.300782,0.30078 0,0.16797 -0.132813,0.30469 -0.300782,0.30469 z m 0,0"
         id="path71" />
      <path
         style="fill:#000000;fill-opacity:1;fill-rule:nonzero;stroke:none"
         d="M 24.84375,691.08203 H 13.230469 c -0.167969,0 -0.300781,-0.13672 -0.300781,-0.30469 0,-0.16406 0.132812,-0.30078 0.300781,-0.30078 H 24.84375 c 0.167969,0 0.300781,0.13672 0.300781,0.30078 0,0.16797 -0.132812,0.30469 -0.300781,0.30469 z m 0,0"
         id="path73" />
      <path
         style="clip-rule:nonzero;fill:#000000;fill-opacity:1;fill-rule:nonzero;stroke:none"
         d="m 18.996094,694.12109 c -0.449219,0 -1.105469,-0.30468 -1.675782,-1.7539 -0.40625,-1.03516 -0.695312,-2.42969 -0.832031,-4.03516 -0.0078,-0.0859 0.01953,-0.16797 0.07813,-0.23047 0.05859,-0.0625 0.136719,-0.0976 0.222656,-0.0976 h 4.414063 c 0.08203,0 0.164063,0.0351 0.21875,0.0976 0.05859,0.0625 0.08594,0.14453 0.07813,0.23047 -0.136719,1.60547 -0.421875,3.00391 -0.828125,4.03516 -0.570313,1.44922 -1.226563,1.7539 -1.675781,1.7539 z m -1.875,-5.51562 c 0.140625,1.39844 0.40625,2.64453 0.757812,3.53906 0.347656,0.875 0.753906,1.375 1.117188,1.375 0.363281,0 0.769531,-0.5 1.113281,-1.375 0.351563,-0.89453 0.621094,-2.14062 0.761719,-3.53906 z m 4.082031,-4.10938 h -4.414063 c -0.08594,0 -0.164062,-0.0351 -0.222656,-0.0976 -0.05859,-0.0625 -0.08594,-0.14453 -0.07813,-0.22657 0.136719,-1.60937 0.425781,-3.00781 0.832031,-4.03906 0.570313,-1.44922 1.226563,-1.7539 1.675782,-1.7539 0.449218,0 1.105468,0.30468 1.675781,1.7539 0.402344,1.02735 0.691406,2.41406 0.828125,4.01563 0.0039,0.0156 0.0039,0.0312 0.0039,0.0469 0,0.16797 -0.136718,0.30078 -0.300781,0.30078 z m -4.082031,-0.60156 h 3.75 c -0.140625,-1.39844 -0.410156,-2.64453 -0.761719,-3.53906 -0.34375,-0.875 -0.75,-1.375 -1.113281,-1.375 -0.363282,0 -0.769532,0.5 -1.117188,1.375 -0.351562,0.89453 -0.617187,2.14062 -0.757812,3.53906 z m 0,0"
         id="path75" />
      <path
         style="clip-rule:nonzero;fill:#000000;fill-opacity:1;fill-rule:nonzero;stroke:none"
         d="m 18.996094,694.12109 c -1.3125,0 -2.550782,-0.57422 -3.578125,-1.65625 -0.976563,-1.03125 -1.699219,-2.48828 -2.027344,-4.10156 -0.01953,-0.0859 0.0039,-0.17969 0.05859,-0.25 0.05859,-0.0703 0.144531,-0.10937 0.234375,-0.10937 h 10.621094 c 0.08984,0 0.175781,0.0391 0.234374,0.10937 0.05859,0.0703 0.08203,0.16406 0.0625,0.25 -0.332031,1.61328 -1.050781,3.06641 -2.027343,4.10156 -1.03125,1.08203 -2.265625,1.65625 -3.578125,1.65625 z M 14.0625,688.60547 c 0.714844,2.91015 2.707031,4.91406 4.933594,4.91406 2.222656,0 4.214844,-2.00391 4.933594,-4.91406 z m 10.242188,-4.10938 H 13.683594 c -0.08984,0 -0.175782,-0.0391 -0.234375,-0.10937 -0.05469,-0.0703 -0.07813,-0.16406 -0.05859,-0.25 0.328125,-1.61328 1.050781,-3.07031 2.027344,-4.10156 1.027343,-1.08204 2.265625,-1.65625 3.578125,-1.65625 1.3125,0 2.546875,0.57421 3.578125,1.65625 0.972656,1.02734 1.691406,2.47656 2.023437,4.07812 0.0078,0.0273 0.01172,0.0547 0.01172,0.082 0,0.16797 -0.136719,0.30078 -0.304687,0.30078 z M 14.0625,683.89453 h 9.867188 c -0.71875,-2.91016 -2.710938,-4.91406 -4.933594,-4.91406 -2.226563,0 -4.21875,2.0039 -4.933594,4.91406 z m 0,0"
         id="path79" />
      <path
         style="fill:#000000;fill-opacity:1;fill-rule:nonzero;stroke:none"
         d="m 13.769531,685.41797 0.226563,0.67969 c 0.03516,0.0937 0.05469,0.17187 0.0625,0.22656 0.0078,-0.0312 0.01563,-0.0664 0.02344,-0.10156 0.01172,-0.0352 0.02344,-0.0781 0.04297,-0.13282 l 0.226562,-0.67187 h 0.554688 l -0.636719,1.51562 h -0.378906 l -0.222656,-0.6875 c -0.01172,-0.0391 -0.02344,-0.0781 -0.03125,-0.11718 -0.01172,-0.0391 -0.01953,-0.0781 -0.02734,-0.11719 -0.01172,0.0586 -0.03125,0.13672 -0.05859,0.22656 l -0.0039,0.0117 -0.222656,0.68359 h -0.378925 l -0.632812,-1.5156 h 0.550781 l 0.226563,0.67187 c 0.01563,0.0469 0.03125,0.0899 0.04297,0.12891 0.0078,0.0352 0.01563,0.0703 0.02344,0.10547 0.0078,-0.0508 0.02734,-0.1211 0.05859,-0.20703 0.0039,-0.0117 0.0039,-0.0234 0.0078,-0.0274 l 0.226563,-0.67187 z m 0,0"
         id="path83" />
      <path
         style="fill:#000000;fill-opacity:1;fill-rule:nonzero;stroke:none"
         d="m 16.238281,685.41797 0.226563,0.67969 c 0.03516,0.0937 0.05469,0.17187 0.0625,0.22656 0.0078,-0.0312 0.01563,-0.0664 0.02344,-0.10156 0.01172,-0.0352 0.02344,-0.0781 0.04297,-0.13282 l 0.226562,-0.67187 H 17.375 l -0.636719,1.51562 h -0.378906 l -0.222656,-0.6875 c -0.01172,-0.0391 -0.02344,-0.0781 -0.03516,-0.11718 -0.0078,-0.0391 -0.01562,-0.0781 -0.02344,-0.11719 -0.01172,0.0586 -0.03125,0.13672 -0.05859,0.22656 l -0.0039,0.0117 -0.222656,0.68359 h -0.378907 l -0.632812,-1.51562 h 0.550781 l 0.226563,0.67187 c 0.01563,0.0469 0.03125,0.0899 0.03906,0.12891 0.01172,0.0352 0.01953,0.0703 0.02344,0.10547 0.01172,-0.0508 0.03125,-0.1211 0.05859,-0.20703 0.0039,-0.0117 0.0078,-0.0234 0.01172,-0.0274 l 0.222656,-0.67187 z m 0,0"
         id="path85" />
      <path
         style="fill:#000000;fill-opacity:1;fill-rule:nonzero;stroke:none"
         d="m 18.707031,685.41797 0.226563,0.67969 c 0.03125,0.0937 0.05469,0.17187 0.0625,0.22656 0.0078,-0.0312 0.01563,-0.0664 0.02344,-0.10156 0.0078,-0.0352 0.02344,-0.0781 0.04297,-0.13282 l 0.226562,-0.67187 h 0.550782 l -0.632813,1.51562 h -0.378906 l -0.226563,-0.6875 c -0.01172,-0.0391 -0.01953,-0.0781 -0.03125,-0.11718 -0.0078,-0.0391 -0.01562,-0.0781 -0.02734,-0.11719 -0.0078,0.0586 -0.02734,0.13672 -0.05469,0.22656 l -0.0039,0.0117 -0.222656,0.68359 H 17.882812 L 17.25,685.41797 h 0.550781 l 0.226563,0.67187 c 0.01563,0.0469 0.03125,0.0899 0.03906,0.12891 0.01172,0.0352 0.01953,0.0703 0.02344,0.10547 0.01172,-0.0508 0.03125,-0.1211 0.05859,-0.20703 0.0039,-0.0117 0.0078,-0.0234 0.01172,-0.0274 l 0.222656,-0.67187 z m 0,0"
         id="path87" />
      <path
         style="fill:#000000;fill-opacity:1;fill-rule:nonzero;stroke:none"
         d="m 19.738281,686.6875 c 0,-0.0859 0.02734,-0.15625 0.08594,-0.21484 0.05859,-0.0586 0.128906,-0.0859 0.210937,-0.0859 0.08984,0 0.160156,0.0273 0.21875,0.0859 0.05859,0.0586 0.08594,0.1289 0.08594,0.21484 0,0.0859 -0.02734,0.15625 -0.08594,0.21484 -0.05859,0.0586 -0.132812,0.0899 -0.21875,0.0899 -0.08203,0 -0.152344,-0.0312 -0.210937,-0.0899 -0.05859,-0.0586 -0.08594,-0.1289 -0.08594,-0.21484 z m 0,0"
         id="path89" />
      <path
         style="fill:#000000;fill-opacity:1;fill-rule:nonzero;stroke:none"
         d="m 25.089844,687.06641 h -3.917969 c -0.167969,0 -0.304687,-0.13282 -0.304687,-0.30079 0,-0.16796 0.136718,-0.30078 0.304687,-0.30078 h 3.917969 c 0.167968,0 0.300781,0.13282 0.300781,0.30078 0,0.16797 -0.132813,0.30079 -0.300781,0.30079 z m 0,0"
         id="path91" />
      <path
         style="clip-rule:nonzero;fill:#000000;fill-opacity:1;fill-rule:nonzero;stroke:none"
         d="M 26.285156,688.60547 H 11.707031 c -0.136719,0 -0.253906,-0.0898 -0.289062,-0.21875 -0.160157,-0.57031 -0.257813,-1.16016 -0.285157,-1.75391 0,-0.004 0,-0.008 0,-0.0156 v -0.73438 c 0,-0.008 0,-0.0117 0,-0.0156 0.02734,-0.59375 0.125,-1.1836 0.285157,-1.75391 0.03516,-0.12891 0.15625,-0.21875 0.289062,-0.21875 h 14.578125 c 0.132813,0 0.253906,0.0898 0.289063,0.21875 0.195312,0.69531 0.292969,1.41016 0.292969,2.13672 0,0.72266 -0.09766,1.44141 -0.292969,2.13672 -0.03516,0.1289 -0.15625,0.21875 -0.289063,0.21875 z m -14.34375,-0.60156 h 14.109375 c 0.140625,-0.57422 0.210938,-1.16016 0.210938,-1.75391 0,-0.59375 -0.07031,-1.17969 -0.210938,-1.75391 H 11.941406 c -0.113281,0.45703 -0.183594,0.92188 -0.207031,1.39063 v 0.72656 c 0.02344,0.46875 0.09375,0.93359 0.207031,1.39063 z m 0,0"
         id="path93" />
      <path
         style="clip-rule:nonzero;fill:#000000;fill-opacity:1;fill-rule:nonzero;stroke:none"
         d="m 18.996094,694.12109 c -2.101563,0 -4.078125,-0.8164 -5.566406,-2.30468 C 11.941406,690.32812 11.125,688.35156 11.125,686.25 c 0,-4.33984 3.53125,-7.87109 7.871094,-7.87109 4.339844,0 7.871094,3.53125 7.871094,7.87109 0,2.10156 -0.820313,4.07812 -2.304688,5.56641 -1.488281,1.48828 -3.464844,2.30468 -5.566406,2.30468 z m 0,-15.14062 c -4.007813,0 -7.269532,3.26172 -7.269532,7.26953 0,4.00781 3.261719,7.26953 7.269532,7.26953 4.007812,0 7.265625,-3.26172 7.265625,-7.26953 0,-4.00781 -3.257813,-7.26953 -7.265625,-7.26953 z m 0,0"
         id="path97" />
      <g
         transform="translate(34.004242,646.06377)"
         id="g103"
         style="fill:#000000;fill-opacity:1">
        <path
           style="stroke:none"
           d="M 3.71875,-6.21875 H 5.25 c 0.507812,0 0.894531,0.117188 1.15625,0.34375 0.257812,0.230469 0.390625,0.59375 0.390625,1.09375 v 3.375 H 6.28125 l -0.0625,-0.828125 c -0.242188,0.230469 -0.574219,0.4375 -1,0.625 -0.417969,0.1875 -0.839844,0.28125 -1.265625,0.28125 -0.429687,0 -0.765625,-0.101563 -1.015625,-0.3125 -0.25,-0.21875 -0.375,-0.523437 -0.375,-0.921875 V -3.125 c 0,-0.34375 0.109375,-0.609375 0.328125,-0.796875 0.21875,-0.1875 0.523437,-0.28125 0.921875,-0.28125 h 2.34375 v -0.5625 c 0,-0.300781 -0.078125,-0.519531 -0.234375,-0.65625 -0.148437,-0.144531 -0.40625,-0.21875 -0.78125,-0.21875 h -1.40625 c -0.273437,0 -0.492187,0.00781 -0.65625,0.015625 -0.15625,0 -0.324219,0.015625 -0.5,0.046875 -0.179687,0.03125 -0.3125,0.074219 -0.40625,0.125 C 2.085938,-5.410156 2,-5.335938 1.90625,-5.234375 c -0.09375,0.105469 -0.164062,0.21875 -0.203125,0.34375 -0.03125,0.117187 -0.070313,0.277344 -0.109375,0.484375 -0.03125,0.210938 -0.054688,0.433594 -0.0625,0.671875 0,0.230469 0,0.523437 0,0.875 0,0.367187 0,0.671875 0,0.921875 0.00781,0.242188 0.035156,0.46875 0.078125,0.6875 0.039063,0.210938 0.078125,0.375 0.109375,0.5 0.039062,0.125 0.113281,0.242188 0.21875,0.34375 0.113281,0.105469 0.21875,0.183594 0.3125,0.234375 C 2.351562,-0.128906 2.503906,-0.09375 2.703125,-0.0625 2.910156,-0.03125 3.101562,-0.0078125 3.28125,0 3.46875,0 3.722656,0 4.046875,0 h 2.71875 V 0.515625 C 5.867188,0.554688 4.96875,0.578125 4.0625,0.578125 3.550781,0.585938 3.140625,0.582031 2.828125,0.5625 2.515625,0.539062 2.226562,0.476562 1.96875,0.375 1.707031,0.28125 1.515625,0.164062 1.390625,0.03125 1.265625,-0.101562 1.160156,-0.3125 1.078125,-0.59375 0.992188,-0.875 0.9375,-1.179688 0.90625,-1.515625 0.882812,-1.847656 0.875,-2.289062 0.875,-2.84375 c 0,-0.539062 0.007812,-0.96875 0.03125,-1.28125 0.019531,-0.320312 0.066406,-0.625 0.140625,-0.90625 0.082031,-0.28125 0.175781,-0.484375 0.28125,-0.609375 0.113281,-0.132813 0.285156,-0.25 0.515625,-0.34375 0.226562,-0.101563 0.484375,-0.164063 0.765625,-0.1875 0.28125,-0.03125 0.648437,-0.046875 1.109375,-0.046875 z m 2.4375,2.4375 -2.140625,0.046875 c -0.53125,0.023437 -0.796875,0.25 -0.796875,0.6875 v 0.375 c 0,0.523437 0.28125,0.78125 0.84375,0.78125 0.332031,0.011719 0.695312,-0.054687 1.09375,-0.203125 0.40625,-0.15625 0.738281,-0.347656 1,-0.578125 z m 0,0"
           id="path101" />
      </g>
      <g
         transform="translate(41.620674,646.06377)"
         id="g109"
         style="fill:#000000;fill-opacity:1">
        <path
           style="stroke:none"
           d="m 5.375,-0.59375 0.046875,0.546875 C 4.742188,-0.00390625 3.6875,0.015625 2.25,0.015625 1.851562,0.015625 1.535156,-0.09375 1.296875,-0.3125 1.054688,-0.539062 0.9375,-0.84375 0.9375,-1.21875 v -4.984375 c 0,-0.375 0.117188,-0.671875 0.359375,-0.890625 C 1.535156,-7.3125 1.851562,-7.421875 2.25,-7.421875 c 1.4375,0 2.492188,0.023437 3.171875,0.0625 L 5.375,-6.828125 H 2.359375 c -0.480469,0 -0.71875,0.261719 -0.71875,0.78125 v 1.828125 h 3.3125 v 0.5625 h -3.3125 v 2.296875 c 0,0.511719 0.238281,0.765625 0.71875,0.765625 z m 0,0"
           id="path107" />
      </g>
      <g
         transform="translate(47.604245,646.06377)"
         id="g115"
         style="fill:#000000;fill-opacity:1">
        <path
           style="stroke:none"
           d="m 1.125,-7.390625 h 0.3125 c 0.15625,0 0.234375,0.074219 0.234375,0.21875 v 0.625 c 0,0.148437 -0.078125,0.21875 -0.234375,0.21875 H 1.125 c -0.148438,0 -0.21875,-0.070313 -0.21875,-0.21875 v -0.625 c 0,-0.144531 0.070312,-0.21875 0.21875,-0.21875 z M 1.625,0 H 0.953125 V -5.203125 H 1.625 Z m 0,0"
           id="path113" />
      </g>
      <g
         transform="translate(50.16096,646.06377)"
         id="g121"
         style="fill:#000000;fill-opacity:1">
        <path
           style="stroke:none"
           d="M 4.03125,-5.34375 3.9375,-4.703125 h -0.25 c -0.304688,0 -0.609375,0.0625 -0.921875,0.1875 -0.304687,0.125 -0.695313,0.335937 -1.171875,0.625 V 0 H 0.90625 V -5.203125 H 1.4375 L 1.5,-4.34375 c 0.851562,-0.664062 1.625,-1 2.3125,-1 z m 0,0"
           id="path119" />
      </g>
      <g
         transform="translate(54.393503,646.06377)"
         id="g127"
         style="fill:#000000;fill-opacity:1">
        <path
           style="stroke:none"
           d="m 1.59375,-7.53125 v 6.234375 c 0,0.511719 0.253906,0.765625 0.765625,0.765625 H 2.90625 l 0.078125,0.515625 C 2.785156,0.0546875 2.5,0.09375 2.125,0.09375 1.75,0.09375 1.453125,-0.015625 1.234375,-0.234375 1.015625,-0.453125 0.90625,-0.757812 0.90625,-1.15625 v -6.375 z m 0,0"
           id="path125" />
      </g>
      <g
         transform="translate(57.476604,646.06377)"
         id="g133"
         style="fill:#000000;fill-opacity:1">
        <path
           style="stroke:none"
           d="m 0.890625,-4.59375 -0.0625,-0.515625 c 1.039063,-0.15625 1.875,-0.234375 2.5,-0.234375 0.5625,0 0.976563,0.125 1.25,0.375 C 4.859375,-4.71875 5,-4.304688 5,-3.734375 V 0 H 4.46875 L 4.375,-0.90625 c -0.261719,0.25 -0.601562,0.480469 -1.015625,0.6875 -0.40625,0.2109375 -0.828125,0.3125 -1.265625,0.3125 -0.460938,0 -0.824219,-0.1171875 -1.09375,-0.359375 -0.261719,-0.25 -0.390625,-0.601563 -0.390625,-1.0625 v -0.59375 c 0,-0.40625 0.117187,-0.71875 0.359375,-0.9375 C 1.207031,-3.078125 1.546875,-3.1875 1.984375,-3.1875 H 4.3125 v -0.546875 c 0,-0.34375 -0.085938,-0.597656 -0.25,-0.765625 -0.15625,-0.164062 -0.445312,-0.25 -0.859375,-0.25 -0.617187,0 -1.386719,0.054688 -2.3125,0.15625 z m 0.40625,2.75 v 0.453125 c 0,0.585937 0.304687,0.875 0.921875,0.875 0.3125,0.011719 0.660156,-0.0625 1.046875,-0.21875 0.394531,-0.164063 0.742187,-0.382813 1.046875,-0.65625 v -1.25 H 2.078125 c -0.523437,0.023437 -0.78125,0.289063 -0.78125,0.796875 z m 0,0"
           id="path131" />
      </g>
      <g
         transform="translate(63.331264,646.06377)"
         id="g139"
         style="fill:#000000;fill-opacity:1">
        <path
           style="stroke:none"
           d="m 1.5625,-7.53125 v 2.09375 c 0,0.5 -0.027344,0.871094 -0.078125,1.109375 0.695313,-0.675781 1.382813,-1.015625 2.0625,-1.015625 0.664063,0 1.144531,0.214844 1.4375,0.640625 0.300781,0.417969 0.453125,1.117187 0.453125,2.09375 0,0.949219 -0.167969,1.640625 -0.5,2.078125 C 4.601562,-0.09375 4.023438,0.125 3.203125,0.125 2.410156,0.125 1.632812,0.0078125 0.875,-0.21875 v -7.3125 z m 0,3.671875 v 3.1875 c 0.53125,0.15625 1.070312,0.226563 1.625,0.203125 0.5625,0 0.957031,-0.160156 1.1875,-0.484375 0.238281,-0.320313 0.359375,-0.875 0.359375,-1.65625 0,-0.800781 -0.101563,-1.351563 -0.296875,-1.65625 -0.199219,-0.3125 -0.558594,-0.46875 -1.078125,-0.46875 -0.28125,0 -0.554687,0.070313 -0.8125,0.203125 -0.261719,0.136719 -0.589844,0.359375 -0.984375,0.671875 z m 0,0"
           id="path137" />
      </g>
      <g
         transform="translate(69.411523,646.06377)"
         id="g145"
         style="fill:#000000;fill-opacity:1">
        <path
           style="stroke:none"
           d="M 5.59375,-0.625 5.6875,-0.09375 C 5.125,0.0507812 4.414062,0.125 3.5625,0.125 c -1.054688,0 -1.792969,-0.285156 -2.21875,-0.859375 -0.417969,-0.570313 -0.625,-1.5625 -0.625,-2.96875 0,-1.414063 0.207031,-2.410156 0.625,-2.984375 0.425781,-0.570312 1.164062,-0.859375 2.21875,-0.859375 0.78125,0 1.4375,0.070313 1.96875,0.203125 L 5.453125,-6.8125 C 4.910156,-6.875 4.28125,-6.90625 3.5625,-6.90625 c -0.792969,0 -1.34375,0.234375 -1.65625,0.703125 -0.304688,0.460937 -0.453125,1.292969 -0.453125,2.5 0,1.199219 0.148437,2.03125 0.453125,2.5 C 2.21875,-0.734375 2.769531,-0.5 3.5625,-0.5 c 0.8125,0 1.488281,-0.039062 2.03125,-0.125 z m 0,0"
           id="path143" />
      </g>
      <g
         transform="translate(75.502526,646.06377)"
         id="g151"
         style="fill:#000000;fill-opacity:1">
        <path
           style="stroke:none"
           d="m 1.1875,-4.71875 c 0.363281,-0.414062 0.984375,-0.625 1.859375,-0.625 0.875,0 1.488281,0.210938 1.84375,0.625 0.351563,0.40625 0.53125,1.117188 0.53125,2.125 0,1 -0.179687,1.703125 -0.53125,2.109375 C 4.535156,-0.078125 3.921875,0.125 3.046875,0.125 2.171875,0.125 1.550781,-0.078125 1.1875,-0.484375 0.820312,-0.898438 0.640625,-1.601562 0.640625,-2.59375 c 0,-1.007812 0.179687,-1.71875 0.546875,-2.125 z m 3.15625,0.4375 C 4.101562,-4.59375 3.664062,-4.75 3.03125,-4.75 c -0.625,0 -1.0625,0.15625 -1.3125,0.46875 -0.242188,0.304688 -0.359375,0.867188 -0.359375,1.6875 0,0.8125 0.117187,1.375 0.359375,1.6875 0.25,0.304688 0.6875,0.453125 1.3125,0.453125 0.632812,0 1.070312,-0.148437 1.3125,-0.453125 0.25,-0.3125 0.375,-0.875 0.375,-1.6875 0,-0.820312 -0.125,-1.382812 -0.375,-1.6875 z m 0,0"
           id="path149" />
      </g>
      <g
         transform="translate(81.57204,646.06377)"
         id="g157"
         style="fill:#000000;fill-opacity:1">
        <path
           style="stroke:none"
           d="M 1.46875,-5.203125 1.5,-4.34375 c 0.769531,-0.664062 1.503906,-1 2.203125,-1 0.738281,0 1.175781,0.328125 1.3125,0.984375 C 5.773438,-5.015625 6.5,-5.34375 7.1875,-5.34375 c 0.445312,0 0.785156,0.125 1.015625,0.375 C 8.441406,-4.726562 8.5625,-4.375 8.5625,-3.90625 V 0 H 7.890625 V -3.734375 C 7.878906,-4.085938 7.800781,-4.34375 7.65625,-4.5 7.507812,-4.664062 7.28125,-4.75 6.96875,-4.75 6.675781,-4.75 6.394531,-4.679688 6.125,-4.546875 5.863281,-4.421875 5.507812,-4.1875 5.0625,-3.84375 V 0 H 4.40625 v -3.734375 c 0,-0.351563 -0.078125,-0.609375 -0.234375,-0.765625 -0.148437,-0.164062 -0.375,-0.25 -0.6875,-0.25 -0.28125,0 -0.558594,0.070312 -0.828125,0.203125 -0.273438,0.125 -0.632812,0.355469 -1.078125,0.6875 V 0 H 0.90625 v -5.203125 z m 0,0"
           id="path155" />
      </g>
      <g
         transform="translate(90.993212,646.06377)"
         id="g163"
         style="fill:#000000;fill-opacity:1">
        <path
           style="stroke:none"
           d="M 1.46875,-5.203125 1.5,-4.34375 c 0.769531,-0.664062 1.503906,-1 2.203125,-1 0.738281,0 1.175781,0.328125 1.3125,0.984375 C 5.773438,-5.015625 6.5,-5.34375 7.1875,-5.34375 c 0.445312,0 0.785156,0.125 1.015625,0.375 C 8.441406,-4.726562 8.5625,-4.375 8.5625,-3.90625 V 0 H 7.890625 V -3.734375 C 7.878906,-4.085938 7.800781,-4.34375 7.65625,-4.5 7.507812,-4.664062 7.28125,-4.75 6.96875,-4.75 6.675781,-4.75 6.394531,-4.679688 6.125,-4.546875 5.863281,-4.421875 5.507812,-4.1875 5.0625,-3.84375 V 0 H 4.40625 v -3.734375 c 0,-0.351563 -0.078125,-0.609375 -0.234375,-0.765625 -0.148437,-0.164062 -0.375,-0.25 -0.6875,-0.25 -0.28125,0 -0.558594,0.070312 -0.828125,0.203125 -0.273438,0.125 -0.632812,0.355469 -1.078125,0.6875 V 0 H 0.90625 v -5.203125 z m 0,0"
           id="path161" />
      </g>
      <g
         transform="translate(100.41438,646.06377)"
         id="g169"
         style="fill:#000000;fill-opacity:1">
        <path
           style="stroke:none"
           d="M 5.1875,-5.203125 V 0 H 4.640625 L 4.59375,-0.8125 C 3.789062,-0.1875 3.019531,0.125 2.28125,0.125 1.34375,0.125 0.875,-0.347656 0.875,-1.296875 v -3.90625 h 0.671875 v 3.734375 c 0,0.355469 0.070313,0.609375 0.21875,0.765625 0.15625,0.15625 0.398437,0.234375 0.734375,0.234375 0.300781,0 0.597656,-0.0625 0.890625,-0.1875 C 3.679688,-0.789062 4.050781,-1.015625 4.5,-1.328125 v -3.875 z m 0,0"
           id="path167" />
      </g>
      <g
         transform="translate(106.50539,646.06377)"
         id="g175"
         style="fill:#000000;fill-opacity:1">
        <path
           style="stroke:none"
           d="m 1.46875,-5.203125 0.0625,0.859375 c 0.863281,-0.664062 1.664062,-1 2.40625,-1 0.925781,0 1.390625,0.480469 1.390625,1.4375 V 0 H 4.65625 v -3.734375 c 0,-0.363281 -0.074219,-0.625 -0.21875,-0.78125 C 4.300781,-4.671875 4.070312,-4.75 3.75,-4.75 c -0.3125,0 -0.632812,0.074219 -0.953125,0.21875 -0.3125,0.136719 -0.714844,0.367188 -1.203125,0.6875 V 0 h -0.6875 v -5.203125 z m 0,0"
           id="path173" />
      </g>
      <g
         transform="translate(112.70381,646.06377)"
         id="g181"
         style="fill:#000000;fill-opacity:1">
        <path
           style="stroke:none"
           d="m 1.125,-7.390625 h 0.3125 c 0.15625,0 0.234375,0.074219 0.234375,0.21875 v 0.625 c 0,0.148437 -0.078125,0.21875 -0.234375,0.21875 H 1.125 c -0.148438,0 -0.21875,-0.070313 -0.21875,-0.21875 v -0.625 c 0,-0.144531 0.070312,-0.21875 0.21875,-0.21875 z M 1.625,0 H 0.953125 V -5.203125 H 1.625 Z m 0,0"
           id="path179" />
      </g>
      <g
         transform="translate(115.26053,646.06377)"
         id="g187"
         style="fill:#000000;fill-opacity:1">
        <path
           style="stroke:none"
           d="m 3.546875,-0.53125 0.09375,0.515625 C 3.273438,0.0546875 2.910156,0.09375 2.546875,0.09375 1.679688,0.09375 1.25,-0.34375 1.25,-1.21875 V -4.671875 H 0.3125 V -5.15625 L 1.25,-5.203125 V -6.78125 h 0.6875 v 1.578125 h 1.765625 v 0.53125 H 1.9375 v 3.375 c 0,0.511719 0.253906,0.765625 0.765625,0.765625 z m 0,0"
           id="path185" />
      </g>
      <g
         transform="translate(119.22451,646.06377)"
         id="g193"
         style="fill:#000000;fill-opacity:1">
        <path
           style="stroke:none"
           d="M 5.359375,-5.203125 3.15625,0.359375 C 2.945312,0.890625 2.6875,1.316406 2.375,1.640625 2.0625,1.972656 1.632812,2.164062 1.09375,2.21875 L 1.015625,1.78125 C 1.421875,1.644531 1.738281,1.453125 1.96875,1.203125 2.195312,0.960938 2.382812,0.660156 2.53125,0.296875 L 2.65625,0 H 2.484375 C 2.347656,0 2.257812,-0.0625 2.21875,-0.1875 L 0.234375,-5.203125 H 0.96875 L 2.5,-1.140625 c 0.113281,0.304687 0.1875,0.507813 0.21875,0.609375 H 2.875 l 0.21875,-0.625 1.53125,-4.046875 z m 0,0"
           id="path191" />
      </g>
      <g
         transform="translate(35.528989,668.28442)"
         id="g199"
         style="fill:#000000;fill-opacity:1">
        <path
           style="stroke:none"
           d="M 3.71875,-6.21875 H 5.25 c 0.507812,0 0.894531,0.117188 1.15625,0.34375 0.257812,0.230469 0.390625,0.59375 0.390625,1.09375 v 3.375 H 6.28125 l -0.0625,-0.828125 c -0.242188,0.230469 -0.574219,0.4375 -1,0.625 -0.417969,0.1875 -0.839844,0.28125 -1.265625,0.28125 -0.429687,0 -0.765625,-0.101563 -1.015625,-0.3125 -0.25,-0.21875 -0.375,-0.523437 -0.375,-0.921875 V -3.125 c 0,-0.34375 0.109375,-0.609375 0.328125,-0.796875 0.21875,-0.1875 0.523437,-0.28125 0.921875,-0.28125 h 2.34375 v -0.5625 c 0,-0.300781 -0.078125,-0.519531 -0.234375,-0.65625 -0.148437,-0.144531 -0.40625,-0.21875 -0.78125,-0.21875 h -1.40625 c -0.273437,0 -0.492187,0.00781 -0.65625,0.015625 -0.15625,0 -0.324219,0.015625 -0.5,0.046875 -0.179687,0.03125 -0.3125,0.074219 -0.40625,0.125 C 2.085938,-5.410156 2,-5.335938 1.90625,-5.234375 c -0.09375,0.105469 -0.164062,0.21875 -0.203125,0.34375 -0.03125,0.117187 -0.070313,0.277344 -0.109375,0.484375 -0.03125,0.210938 -0.054688,0.433594 -0.0625,0.671875 0,0.230469 0,0.523437 0,0.875 0,0.367187 0,0.671875 0,0.921875 0.00781,0.242188 0.035156,0.46875 0.078125,0.6875 0.039063,0.210938 0.078125,0.375 0.109375,0.5 0.039062,0.125 0.113281,0.242188 0.21875,0.34375 0.113281,0.105469 0.21875,0.183594 0.3125,0.234375 C 2.351562,-0.128906 2.503906,-0.09375 2.703125,-0.0625 2.910156,-0.03125 3.101562,-0.0078125 3.28125,0 3.46875,0 3.722656,0 4.046875,0 h 2.71875 V 0.515625 C 5.867188,0.554688 4.96875,0.578125 4.0625,0.578125 3.550781,0.585938 3.140625,0.582031 2.828125,0.5625 2.515625,0.539062 2.226562,0.476562 1.96875,0.375 1.707031,0.28125 1.515625,0.164062 1.390625,0.03125 1.265625,-0.101562 1.160156,-0.3125 1.078125,-0.59375 0.992188,-0.875 0.9375,-1.179688 0.90625,-1.515625 0.882812,-1.847656 0.875,-2.289062 0.875,-2.84375 c 0,-0.539062 0.007812,-0.96875 0.03125,-1.28125 0.019531,-0.320312 0.066406,-0.625 0.140625,-0.90625 0.082031,-0.28125 0.175781,-0.484375 0.28125,-0.609375 0.113281,-0.132813 0.285156,-0.25 0.515625,-0.34375 0.226562,-0.101563 0.484375,-0.164063 0.765625,-0.1875 0.28125,-0.03125 0.648437,-0.046875 1.109375,-0.046875 z m 2.4375,2.4375 -2.140625,0.046875 c -0.53125,0.023437 -0.796875,0.25 -0.796875,0.6875 v 0.375 c 0,0.523437 0.28125,0.78125 0.84375,0.78125 0.332031,0.011719 0.695312,-0.054687 1.09375,-0.203125 0.40625,-0.15625 0.738281,-0.347656 1,-0.578125 z m 0,0"
           id="path197" />
      </g>
      <g
         transform="translate(43.145421,668.28442)"
         id="g205"
         style="fill:#000000;fill-opacity:1">
        <path
           style="stroke:none"
           d="m 3.953125,-2.265625 h -2.59375 c 0.039063,0.6875 0.195313,1.164063 0.46875,1.421875 0.269531,0.25 0.710937,0.375 1.328125,0.375 0.539062,0 1.140625,-0.039062 1.796875,-0.125 L 5.03125,-0.125 c -0.449219,0.1640625 -1.105469,0.25 -1.96875,0.25 -0.875,0 -1.5,-0.2070312 -1.875,-0.625 -0.367188,-0.414062 -0.546875,-1.125 -0.546875,-2.125 0,-1 0.175781,-1.703125 0.53125,-2.109375 0.363281,-0.40625 0.96875,-0.609375 1.8125,-0.609375 0.726563,0 1.269531,0.136719 1.625,0.40625 0.351563,0.273438 0.535156,0.679688 0.546875,1.21875 C 5.16406,-2.75 4.765625,-2.265625 3.953125,-2.265625 Z M 1.359375,-2.8125 h 2.4375 c 0.457031,0 0.679687,-0.296875 0.671875,-0.890625 C 4.457031,-4.066406 4.335938,-4.332031 4.109375,-4.5 3.878906,-4.664062 3.515625,-4.75 3.015625,-4.75 2.398438,-4.75 1.96875,-4.609375 1.71875,-4.328125 1.476562,-4.046875 1.359375,-3.539062 1.359375,-2.8125 Z m 0,0"
           id="path203" />
      </g>
      <g
         transform="translate(48.881915,668.28442)"
         id="g211"
         style="fill:#000000;fill-opacity:1">
        <path
           style="stroke:none"
           d="m 1.125,-7.390625 h 0.3125 c 0.15625,0 0.234375,0.074219 0.234375,0.21875 v 0.625 c 0,0.148437 -0.078125,0.21875 -0.234375,0.21875 H 1.125 c -0.148438,0 -0.21875,-0.070313 -0.21875,-0.21875 v -0.625 c 0,-0.144531 0.070312,-0.21875 0.21875,-0.21875 z M 1.625,0 H 0.953125 V -5.203125 H 1.625 Z m 0,0"
           id="path209" />
      </g>
      <g
         transform="translate(51.438629,668.28442)"
         id="g217"
         style="fill:#000000;fill-opacity:1">
        <path
           style="stroke:none"
           d="M 4.03125,-5.34375 3.9375,-4.703125 h -0.25 c -0.304688,0 -0.609375,0.0625 -0.921875,0.1875 -0.304687,0.125 -0.695313,0.335937 -1.171875,0.625 V 0 H 0.90625 V -5.203125 H 1.4375 L 1.5,-4.34375 c 0.851562,-0.664062 1.625,-1 2.3125,-1 z m 0,0"
           id="path215" />
      </g>
      <g
         transform="translate(55.671172,668.28442)"
         id="g223"
         style="fill:#000000;fill-opacity:1">
        <path
           style="stroke:none"
           d="m 1.59375,-7.53125 v 6.234375 c 0,0.511719 0.253906,0.765625 0.765625,0.765625 H 2.90625 l 0.078125,0.515625 C 2.785156,0.0546875 2.5,0.09375 2.125,0.09375 1.75,0.09375 1.453125,-0.015625 1.234375,-0.234375 1.015625,-0.453125 0.90625,-0.757812 0.90625,-1.15625 v -6.375 z m 0,0"
           id="path221" />
      </g>
      <g
         transform="translate(58.754274,668.28442)"
         id="g229"
         style="fill:#000000;fill-opacity:1">
        <path
           style="stroke:none"
           d="m 0.890625,-4.59375 -0.0625,-0.515625 c 1.039063,-0.15625 1.875,-0.234375 2.5,-0.234375 0.5625,0 0.976563,0.125 1.25,0.375 C 4.859375,-4.71875 5,-4.304688 5,-3.734375 V 0 H 4.46875 L 4.375,-0.90625 c -0.261719,0.25 -0.601562,0.480469 -1.015625,0.6875 -0.40625,0.2109375 -0.828125,0.3125 -1.265625,0.3125 -0.460938,0 -0.824219,-0.1171875 -1.09375,-0.359375 -0.261719,-0.25 -0.390625,-0.601563 -0.390625,-1.0625 v -0.59375 c 0,-0.40625 0.117187,-0.71875 0.359375,-0.9375 C 1.207031,-3.078125 1.546875,-3.1875 1.984375,-3.1875 H 4.3125 v -0.546875 c 0,-0.34375 -0.085938,-0.597656 -0.25,-0.765625 -0.15625,-0.164062 -0.445312,-0.25 -0.859375,-0.25 -0.617187,0 -1.386719,0.054688 -2.3125,0.15625 z m 0.40625,2.75 v 0.453125 c 0,0.585937 0.304687,0.875 0.921875,0.875 0.3125,0.011719 0.660156,-0.0625 1.046875,-0.21875 0.394531,-0.164063 0.742187,-0.382813 1.046875,-0.65625 v -1.25 H 2.078125 c -0.523437,0.023437 -0.78125,0.289063 -0.78125,0.796875 z m 0,0"
           id="path227" />
      </g>
      <g
         transform="translate(64.608934,668.28442)"
         id="g235"
         style="fill:#000000;fill-opacity:1">
        <path
           style="stroke:none"
           d="m 1.5625,-7.53125 v 2.09375 c 0,0.5 -0.027344,0.871094 -0.078125,1.109375 0.695313,-0.675781 1.382813,-1.015625 2.0625,-1.015625 0.664063,0 1.144531,0.214844 1.4375,0.640625 0.300781,0.417969 0.453125,1.117187 0.453125,2.09375 0,0.949219 -0.167969,1.640625 -0.5,2.078125 C 4.601562,-0.09375 4.023438,0.125 3.203125,0.125 2.410156,0.125 1.632812,0.0078125 0.875,-0.21875 v -7.3125 z m 0,3.671875 v 3.1875 c 0.53125,0.15625 1.070312,0.226563 1.625,0.203125 0.5625,0 0.957031,-0.160156 1.1875,-0.484375 0.238281,-0.320313 0.359375,-0.875 0.359375,-1.65625 0,-0.800781 -0.101563,-1.351563 -0.296875,-1.65625 -0.199219,-0.3125 -0.558594,-0.46875 -1.078125,-0.46875 -0.28125,0 -0.554687,0.070313 -0.8125,0.203125 -0.261719,0.136719 -0.589844,0.359375 -0.984375,0.671875 z m 0,0"
           id="path233" />
      </g>
      <g
         transform="translate(35.20951,690.01598)"
         id="g241"
         style="fill:#000000;fill-opacity:1">
        <path
           style="stroke:none"
           d="m 3.953125,-2.265625 h -2.59375 c 0.039063,0.6875 0.195313,1.164063 0.46875,1.421875 0.269531,0.25 0.710937,0.375 1.328125,0.375 0.539062,0 1.140625,-0.039062 1.796875,-0.125 L 5.03125,-0.125 c -0.449219,0.1640625 -1.105469,0.25 -1.96875,0.25 -0.875,0 -1.5,-0.2070312 -1.875,-0.625 -0.367188,-0.414062 -0.546875,-1.125 -0.546875,-2.125 0,-1 0.175781,-1.703125 0.53125,-2.109375 0.363281,-0.40625 0.96875,-0.609375 1.8125,-0.609375 0.726563,0 1.269531,0.136719 1.625,0.40625 0.351563,0.273438 0.535156,0.679688 0.546875,1.21875 C 5.16406,-2.75 4.765625,-2.265625 3.953125,-2.265625 Z M 1.359375,-2.8125 h 2.4375 c 0.457031,0 0.679687,-0.296875 0.671875,-0.890625 C 4.457031,-4.066406 4.335938,-4.332031 4.109375,-4.5 3.878906,-4.664062 3.515625,-4.75 3.015625,-4.75 2.398438,-4.75 1.96875,-4.609375 1.71875,-4.328125 1.476562,-4.046875 1.359375,-3.539062 1.359375,-2.8125 Z m 0,0"
           id="path239" />
      </g>
      <g
         transform="translate(40.947675,690.01598)"
         id="g247"
         style="fill:#000000;fill-opacity:1">
        <path
           style="stroke:none"
           d="m 1.125,-7.390625 h 0.3125 c 0.15625,0 0.234375,0.074219 0.234375,0.21875 v 0.625 c 0,0.148437 -0.078125,0.21875 -0.234375,0.21875 H 1.125 c -0.148438,0 -0.21875,-0.070313 -0.21875,-0.21875 v -0.625 c 0,-0.144531 0.070312,-0.21875 0.21875,-0.21875 z M 1.625,0 H 0.953125 V -5.203125 H 1.625 Z m 0,0"
           id="path245" />
      </g>
      <g
         transform="translate(43.505139,690.01598)"
         id="g253"
         style="fill:#000000;fill-opacity:1">
        <path
           style="stroke:none"
           d="M 4.03125,-5.34375 3.9375,-4.703125 h -0.25 c -0.304688,0 -0.609375,0.0625 -0.921875,0.1875 -0.304687,0.125 -0.695313,0.335937 -1.171875,0.625 V 0 H 0.90625 V -5.203125 H 1.4375 L 1.5,-4.34375 c 0.851562,-0.664062 1.625,-1 2.3125,-1 z m 0,0"
           id="path251" />
      </g>
      <g
         transform="translate(47.738917,690.01598)"
         id="g259"
         style="fill:#000000;fill-opacity:1">
        <path
           style="stroke:none"
           d="m 1.59375,-7.53125 v 6.234375 c 0,0.511719 0.253906,0.765625 0.765625,0.765625 H 2.90625 l 0.078125,0.515625 C 2.785156,0.0546875 2.5,0.09375 2.125,0.09375 1.75,0.09375 1.453125,-0.015625 1.234375,-0.234375 1.015625,-0.453125 0.90625,-0.757812 0.90625,-1.15625 v -6.375 z m 0,0"
           id="path257" />
      </g>
      <g
         transform="translate(50.822909,690.01598)"
         id="g265"
         style="fill:#000000;fill-opacity:1">
        <path
           style="stroke:none"
           d="m 0.890625,-4.59375 -0.0625,-0.515625 c 1.039063,-0.15625 1.875,-0.234375 2.5,-0.234375 0.5625,0 0.976563,0.125 1.25,0.375 C 4.859375,-4.71875 5,-4.304688 5,-3.734375 V 0 H 4.46875 L 4.375,-0.90625 c -0.261719,0.25 -0.601562,0.480469 -1.015625,0.6875 -0.40625,0.2109375 -0.828125,0.3125 -1.265625,0.3125 -0.460938,0 -0.824219,-0.1171875 -1.09375,-0.359375 -0.261719,-0.25 -0.390625,-0.601563 -0.390625,-1.0625 v -0.59375 c 0,-0.40625 0.117187,-0.71875 0.359375,-0.9375 C 1.207031,-3.078125 1.546875,-3.1875 1.984375,-3.1875 H 4.3125 v -0.546875 c 0,-0.34375 -0.085938,-0.597656 -0.25,-0.765625 -0.15625,-0.164062 -0.445312,-0.25 -0.859375,-0.25 -0.617187,0 -1.386719,0.054688 -2.3125,0.15625 z m 0.40625,2.75 v 0.453125 c 0,0.585937 0.304687,0.875 0.921875,0.875 0.3125,0.011719 0.660156,-0.0625 1.046875,-0.21875 0.394531,-0.164063 0.742187,-0.382813 1.046875,-0.65625 v -1.25 H 2.078125 c -0.523437,0.023437 -0.78125,0.289063 -0.78125,0.796875 z m 0,0"
           id="path263" />
      </g>
      <g
         transform="translate(56.679285,690.01598)"
         id="g271"
         style="fill:#000000;fill-opacity:1">
        <path
           style="stroke:none"
           d="m 1.5625,-7.53125 v 2.09375 c 0,0.5 -0.027344,0.871094 -0.078125,1.109375 0.695313,-0.675781 1.382813,-1.015625 2.0625,-1.015625 0.664063,0 1.144531,0.214844 1.4375,0.640625 0.300781,0.417969 0.453125,1.117187 0.453125,2.09375 0,0.949219 -0.167969,1.640625 -0.5,2.078125 C 4.601562,-0.09375 4.023438,0.125 3.203125,0.125 2.410156,0.125 1.632812,0.0078125 0.875,-0.21875 v -7.3125 z m 0,3.671875 v 3.1875 c 0.53125,0.15625 1.070312,0.226563 1.625,0.203125 0.5625,0 0.957031,-0.160156 1.1875,-0.484375 0.238281,-0.320313 0.359375,-0.875 0.359375,-1.65625 0,-0.800781 -0.101563,-1.351563 -0.296875,-1.65625 -0.199219,-0.3125 -0.558594,-0.46875 -1.078125,-0.46875 -0.28125,0 -0.554687,0.070313 -0.8125,0.203125 -0.261719,0.136719 -0.589844,0.359375 -0.984375,0.671875 z m 0,0"
           id="path269" />
      </g>
      <g
         transform="translate(62.761316,690.01598)"
         id="g277"
         style="fill:#000000;fill-opacity:1">
        <path
           style="stroke:none"
           d="m 1.0625,-1.15625 h 0.234375 c 0.175781,0 0.265625,0.09375 0.265625,0.28125 v 0.609375 C 1.5625,-0.0859375 1.472656,0 1.296875,0 H 1.0625 c -0.167969,0 -0.25,-0.0859375 -0.25,-0.265625 V -0.875 c 0,-0.1875 0.082031,-0.28125 0.25,-0.28125 z m 0,0"
           id="path275" />
      </g>
      <g
         transform="translate(65.136096,690.01598)"
         id="g283"
         style="fill:#000000;fill-opacity:1">
        <path
           style="stroke:none"
           d="m 1.1875,-4.71875 c 0.363281,-0.414062 0.984375,-0.625 1.859375,-0.625 0.875,0 1.488281,0.210938 1.84375,0.625 0.351563,0.40625 0.53125,1.117188 0.53125,2.125 0,1 -0.179687,1.703125 -0.53125,2.109375 C 4.535156,-0.078125 3.921875,0.125 3.046875,0.125 2.171875,0.125 1.550781,-0.078125 1.1875,-0.484375 0.820312,-0.898438 0.640625,-1.601562 0.640625,-2.59375 c 0,-1.007812 0.179687,-1.71875 0.546875,-2.125 z m 3.15625,0.4375 C 4.101562,-4.59375 3.664062,-4.75 3.03125,-4.75 c -0.625,0 -1.0625,0.15625 -1.3125,0.46875 -0.242188,0.304688 -0.359375,0.867188 -0.359375,1.6875 0,0.8125 0.117187,1.375 0.359375,1.6875 0.25,0.304688 0.6875,0.453125 1.3125,0.453125 0.632812,0 1.070312,-0.148437 1.3125,-0.453125 0.25,-0.3125 0.375,-0.875 0.375,-1.6875 0,-0.820312 -0.125,-1.382812 -0.375,-1.6875 z m 0,0"
           id="path281" />
      </g>
      <g
         transform="translate(71.207381,690.01598)"
         id="g289"
         style="fill:#000000;fill-opacity:1">
        <path
           style="stroke:none"
           d="M 4.03125,-5.34375 3.9375,-4.703125 h -0.25 c -0.304688,0 -0.609375,0.0625 -0.921875,0.1875 -0.304687,0.125 -0.695313,0.335937 -1.171875,0.625 V 0 H 0.90625 V -5.203125 H 1.4375 L 1.5,-4.34375 c 0.851562,-0.664062 1.625,-1 2.3125,-1 z m 0,0"
           id="path287" />
      </g>
      <g
         transform="translate(75.441159,690.01598)"
         id="g295"
         style="fill:#000000;fill-opacity:1">
        <path
           style="stroke:none"
           d="m 5.640625,-4.8125 -0.875,0.0625 c 0.207031,0.242188 0.3125,0.59375 0.3125,1.0625 0,0.5625 -0.167969,0.976562 -0.5,1.234375 C 4.242188,-2.191406 3.6875,-2.0625 2.90625,-2.0625 2.414062,-2.0625 2.019531,-2.109375 1.71875,-2.203125 1.613281,-2.066406 1.550781,-1.925781 1.53125,-1.78125 1.507812,-1.632812 1.546875,-1.5 1.640625,-1.375 1.734375,-1.25 1.894531,-1.164062 2.125,-1.125 l 2,0.328125 C 4.59375,-0.722656 4.914062,-0.570312 5.09375,-0.34375 5.28125,-0.125 5.375,0.203125 5.375,0.640625 5.375,1.222656 5.195312,1.628906 4.84375,1.859375 4.488281,2.085938 3.859375,2.203125 2.953125,2.203125 2.035156,2.203125 1.394531,2.085938 1.03125,1.859375 0.675781,1.640625 0.5,1.238281 0.5,0.65625 0.5,0.3125 0.5625,0.0390625 0.6875,-0.15625 0.820312,-0.363281 1.054688,-0.554688 1.390625,-0.734375 1.078125,-0.921875 0.925781,-1.1875 0.9375,-1.53125 0.945312,-1.875 1.085938,-2.148438 1.359375,-2.359375 0.929688,-2.585938 0.71875,-3.03125 0.71875,-3.6875 c 0,-0.582031 0.160156,-1.003906 0.484375,-1.265625 0.332031,-0.257813 0.898437,-0.390625 1.703125,-0.390625 0.476562,0 0.859375,0.046875 1.140625,0.140625 H 5.6875 Z m -3.9375,1.96875 c 0.238281,0.167969 0.632813,0.25 1.1875,0.25 0.5625,0 0.957031,-0.082031 1.1875,-0.25 0.226563,-0.175781 0.34375,-0.457031 0.34375,-0.84375 0,-0.40625 -0.117187,-0.691406 -0.34375,-0.859375 C 3.847656,-4.722656 3.457031,-4.8125 2.90625,-4.8125 c -0.574219,0 -0.976562,0.089844 -1.203125,0.265625 -0.230469,0.167969 -0.34375,0.453125 -0.34375,0.859375 0,0.386719 0.113281,0.667969 0.34375,0.84375 z m 0.140625,2.265625 -0.03125,0.03125 c -0.242188,0.167969 -0.40625,0.335937 -0.5,0.5 -0.09375,0.15625 -0.140625,0.375 -0.140625,0.65625 0,0.394531 0.125,0.660156 0.375,0.796875 0.25,0.144531 0.71875,0.21875 1.40625,0.21875 0.675781,0 1.132813,-0.074219 1.375,-0.21875 0.25,-0.148438 0.375,-0.414062 0.375,-0.796875 0,-0.304687 -0.058594,-0.5117188 -0.171875,-0.625 C 4.414062,-0.128906 4.171875,-0.21875 3.796875,-0.28125 Z m 0,0"
           id="path293" />
      </g>
    </g>
  </g>
</svg>
