<?xml version="1.0" encoding="UTF-8" standalone="no"?>
<svg
   contentScriptType="text/ecmascript"
   width="144.37309pt"
   zoomAndPan="magnify"
   contentStyleType="text/css"
   viewBox="0 0 144.37309 104.66797"
   height="104.66797pt"
   preserveAspectRatio="xMidYMid meet"
   version="1.2"
   id="svg724"
   sodipodi:docname="reseauEtendu.svg"
   inkscape:version="1.1 (ce6663b3b7, 2021-05-25)"
   xmlns:inkscape="http://www.inkscape.org/namespaces/inkscape"
   xmlns:sodipodi="http://sodipodi.sourceforge.net/DTD/sodipodi-0.dtd"
   xmlns="http://www.w3.org/2000/svg"
   xmlns:svg="http://www.w3.org/2000/svg">
  <sodipodi:namedview
     id="namedview726"
     pagecolor="#ffffff"
     bordercolor="#666666"
     borderopacity="1.0"
     inkscape:pageshadow="2"
     inkscape:pageopacity="0.0"
     inkscape:pagecheckerboard="0"
     inkscape:document-units="pt"
     showgrid="false"
     inkscape:zoom="2.4541407"
     inkscape:cx="1.8336357"
     inkscape:cy="112.46299"
     inkscape:window-width="1600"
     inkscape:window-height="863"
     inkscape:window-x="0"
     inkscape:window-y="0"
     inkscape:window-maximized="1"
     inkscape:current-layer="svg724" />
  <defs
     id="defs49">
    <g
       id="g2" />
    <clipPath
       xml:id="clip1"
       id="clip1">
      <path
         d="M 0.015625,0 H 594.98437 V 841.5 H 0.015625 Z m 0,0"
         id="path4" />
    </clipPath>
    <clipPath
       xml:id="clip2"
       id="clip2">
      <path
         d="m 10.878906,633.92969 h 16.5 v 16.5 h -16.5 z m 0,0"
         id="path7" />
    </clipPath>
    <clipPath
       xml:id="clip3"
       id="clip3">
      <path
         d="m 11,656.54297 h 16.378906 v 15.75 H 11 Z m 0,0"
         id="path10" />
    </clipPath>
    <clipPath
       xml:id="clip4"
       id="clip4">
      <path
         d="m 16,678.37891 h 6 v 15.73828 h -6 z m 0,0"
         id="path13" />
    </clipPath>
    <clipPath
       xml:id="clip5"
       id="clip5">
      <path
         d="m 13,678.37891 h 12 v 15.73828 H 13 Z m 0,0"
         id="path16" />
    </clipPath>
    <clipPath
       xml:id="clip6"
       id="clip6">
      <path
         d="m 11.128906,683 h 15.738282 v 6 H 11.128906 Z m 0,0"
         id="path19" />
    </clipPath>
    <clipPath
       xml:id="clip7"
       id="clip7">
      <path
         d="m 11.128906,678.37891 h 15.738282 v 15.73828 H 11.128906 Z m 0,0"
         id="path22" />
    </clipPath>
    <clipPath
       xml:id="clip8"
       id="clip8">
      <path
         d="m 174.57031,633.92969 h 16.5 v 16.5 h -16.5 z m 0,0"
         id="path25" />
    </clipPath>
    <clipPath
       xml:id="clip9"
       id="clip9">
      <path
         d="M 174.57031,657.36719 H 191 v 15.74609 h -16.42969 z m 0,0"
         id="path28" />
    </clipPath>
    <clipPath
       xml:id="clip10"
       id="clip10">
      <path
         d="m 180,680.02734 h 6 v 15.73828 h -6 z m 0,0"
         id="path31" />
    </clipPath>
    <clipPath
       xml:id="clip11"
       id="clip11">
      <path
         d="m 177,680.02734 h 12 v 15.73828 h -12 z m 0,0"
         id="path34" />
    </clipPath>
    <clipPath
       xml:id="clip12"
       id="clip12">
      <path
         d="m 174.82031,685 h 15.73828 v 6 h -15.73828 z m 0,0"
         id="path37" />
    </clipPath>
    <clipPath
       xml:id="clip13"
       id="clip13">
      <path
         d="m 174.82031,680.02734 h 15.73828 v 15.73828 h -15.73828 z m 0,0"
         id="path40" />
    </clipPath>
    <clipPath
       xml:id="clip14"
       id="clip14">
      <path
         d="m 174.57031,702.96094 h 17.7461 v 12.65625 h -17.7461 z m 0,0"
         id="path43" />
    </clipPath>
    <clipPath
       xml:id="clip15"
       id="clip15">
      <path
         d="m 174.82031,723 h 15.73828 v 15.71875 h -15.73828 z m 0,0"
         id="path46" />
    </clipPath>
  </defs>
  <g
     clip-rule="nonzero"
     clip-path="url(#clip8)"
     id="g301"
     transform="translate(-174.57031,-633.9375)">
    <path
       style="fill:#54abee;fill-opacity:1;fill-rule:nonzero;stroke:none"
       d="m 191.0625,642.18359 c 0,4.55469 -3.69141,8.2461 -8.24609,8.2461 -4.55079,0 -8.2461,-3.69141 -8.2461,-8.2461 0,-4.55078 3.69531,-8.24609 8.2461,-8.24609 4.55468,0 8.24609,3.69531 8.24609,8.24609 z m 0,0"
       id="path299" />
  </g>
  <path
     style="fill:#ffffff;fill-opacity:1;fill-rule:nonzero;stroke:none"
     d="m 13.296878,5.92969 c -0.35157,0.15625 -0.73438,0.26172 -1.13282,0.30859 0.41016,-0.24609 0.72266,-0.62891 0.86719,-1.08984 -0.3789,0.22265 -0.80078,0.39062 -1.25,0.47656 -0.35937,-0.38281 -0.87109,-0.62109 -1.4375,-0.62109 -1.08984,0 -1.97265,0.88281 -1.97265,1.96875 0,0.15625 0.0156,0.30468 0.0508,0.44921 -1.63672,-0.082 -3.08985,-0.86718 -4.0625,-2.05859 -0.16797,0.29297 -0.26563,0.62891 -0.26563,0.99219 0,0.68359 0.34766,1.28515 0.875,1.64062 -0.32031,-0.0117 -0.625,-0.10156 -0.89062,-0.24609 0,0.008 0,0.0156 0,0.0234 0,0.95312 0.67968,1.75 1.57812,1.93359 -0.16406,0.043 -0.33984,0.0703 -0.51562,0.0703 -0.12891,0 -0.25391,-0.0156 -0.3711,-0.0351 0.25,0.78125 0.97657,1.35156 1.83985,1.36718 -0.67578,0.52735 -1.52344,0.84375 -2.44922,0.84375 -0.15625,0 -0.31641,-0.008 -0.46875,-0.0273 0.87109,0.55859 1.90625,0.88672 3.01953,0.88672 3.625,0 5.60937,-3.00391 5.60937,-5.60938 0,-0.0859 -0.004,-0.17187 -0.008,-0.2539 0.38672,-0.28125 0.72266,-0.625 0.98438,-1.01953 z m 0,0"
     id="path303" />
  <g
     style="fill:#000000;fill-opacity:1"
     id="g309"
     transform="translate(-174.57031,-633.9375)">
    <g
       transform="translate(197.6967,646.06377)"
       id="g307">
      <path
         style="stroke:none"
         d="M 3.71875,-6.21875 H 5.25 c 0.507812,0 0.894531,0.117188 1.15625,0.34375 0.257812,0.230469 0.390625,0.59375 0.390625,1.09375 v 3.375 H 6.28125 l -0.0625,-0.828125 c -0.242188,0.230469 -0.574219,0.4375 -1,0.625 -0.417969,0.1875 -0.839844,0.28125 -1.265625,0.28125 -0.429687,0 -0.765625,-0.101563 -1.015625,-0.3125 -0.25,-0.21875 -0.375,-0.523437 -0.375,-0.921875 V -3.125 c 0,-0.34375 0.109375,-0.609375 0.328125,-0.796875 0.21875,-0.1875 0.523437,-0.28125 0.921875,-0.28125 h 2.34375 v -0.5625 c 0,-0.300781 -0.078125,-0.519531 -0.234375,-0.65625 -0.148437,-0.144531 -0.40625,-0.21875 -0.78125,-0.21875 h -1.40625 c -0.273437,0 -0.492187,0.00781 -0.65625,0.015625 -0.15625,0 -0.324219,0.015625 -0.5,0.046875 -0.179687,0.03125 -0.3125,0.074219 -0.40625,0.125 C 2.085938,-5.410156 2,-5.335938 1.90625,-5.234375 c -0.09375,0.105469 -0.164062,0.21875 -0.203125,0.34375 -0.03125,0.117187 -0.070313,0.277344 -0.109375,0.484375 -0.03125,0.210938 -0.054688,0.433594 -0.0625,0.671875 0,0.230469 0,0.523437 0,0.875 0,0.367187 0,0.671875 0,0.921875 0.00781,0.242188 0.035156,0.46875 0.078125,0.6875 0.039063,0.210938 0.078125,0.375 0.109375,0.5 0.039062,0.125 0.113281,0.242188 0.21875,0.34375 0.113281,0.105469 0.21875,0.183594 0.3125,0.234375 C 2.351562,-0.128906 2.503906,-0.09375 2.703125,-0.0625 2.910156,-0.03125 3.101562,-0.0078125 3.28125,0 3.46875,0 3.722656,0 4.046875,0 h 2.71875 V 0.515625 C 5.867188,0.554688 4.96875,0.578125 4.0625,0.578125 3.550781,0.585938 3.140625,0.582031 2.828125,0.5625 2.515625,0.539062 2.226562,0.476562 1.96875,0.375 1.707031,0.28125 1.515625,0.164062 1.390625,0.03125 1.265625,-0.101562 1.160156,-0.3125 1.078125,-0.59375 0.992188,-0.875 0.9375,-1.179688 0.90625,-1.515625 0.882812,-1.847656 0.875,-2.289062 0.875,-2.84375 c 0,-0.539062 0.007812,-0.96875 0.03125,-1.28125 0.019531,-0.320312 0.066406,-0.625 0.140625,-0.90625 0.082031,-0.28125 0.175781,-0.484375 0.28125,-0.609375 0.113281,-0.132813 0.285156,-0.25 0.515625,-0.34375 0.226562,-0.101563 0.484375,-0.164063 0.765625,-0.1875 0.28125,-0.03125 0.648437,-0.046875 1.109375,-0.046875 z m 2.4375,2.4375 -2.140625,0.046875 c -0.53125,0.023437 -0.796875,0.25 -0.796875,0.6875 v 0.375 c 0,0.523437 0.28125,0.78125 0.84375,0.78125 0.332031,0.011719 0.695312,-0.054687 1.09375,-0.203125 0.40625,-0.15625 0.738281,-0.347656 1,-0.578125 z m 0,0"
         id="path305" />
    </g>
  </g>
  <g
     style="fill:#000000;fill-opacity:1"
     id="g315"
     transform="translate(-174.57031,-633.9375)">
    <g
       transform="translate(205.31313,646.06377)"
       id="g313">
      <path
         style="stroke:none"
         d="m 5.375,-0.59375 0.046875,0.546875 C 4.742188,-0.00390625 3.6875,0.015625 2.25,0.015625 1.851562,0.015625 1.535156,-0.09375 1.296875,-0.3125 1.054688,-0.539062 0.9375,-0.84375 0.9375,-1.21875 v -4.984375 c 0,-0.375 0.117188,-0.671875 0.359375,-0.890625 C 1.535156,-7.3125 1.851562,-7.421875 2.25,-7.421875 c 1.4375,0 2.492188,0.023437 3.171875,0.0625 L 5.375,-6.828125 H 2.359375 c -0.480469,0 -0.71875,0.261719 -0.71875,0.78125 v 1.828125 h 3.3125 v 0.5625 h -3.3125 v 2.296875 c 0,0.511719 0.238281,0.765625 0.71875,0.765625 z m 0,0"
         id="path311" />
    </g>
  </g>
  <g
     style="fill:#000000;fill-opacity:1"
     id="g321"
     transform="translate(-174.57031,-633.9375)">
    <g
       transform="translate(211.29671,646.06377)"
       id="g319">
      <path
         style="stroke:none"
         d="m 1.125,-7.390625 h 0.3125 c 0.15625,0 0.234375,0.074219 0.234375,0.21875 v 0.625 c 0,0.148437 -0.078125,0.21875 -0.234375,0.21875 H 1.125 c -0.148438,0 -0.21875,-0.070313 -0.21875,-0.21875 v -0.625 c 0,-0.144531 0.070312,-0.21875 0.21875,-0.21875 z M 1.625,0 H 0.953125 V -5.203125 H 1.625 Z m 0,0"
         id="path317" />
    </g>
  </g>
  <g
     style="fill:#000000;fill-opacity:1"
     id="g327"
     transform="translate(-174.57031,-633.9375)">
    <g
       transform="translate(213.85342,646.06377)"
       id="g325">
      <path
         style="stroke:none"
         d="M 4.03125,-5.34375 3.9375,-4.703125 h -0.25 c -0.304688,0 -0.609375,0.0625 -0.921875,0.1875 -0.304687,0.125 -0.695313,0.335937 -1.171875,0.625 V 0 H 0.90625 V -5.203125 H 1.4375 L 1.5,-4.34375 c 0.851562,-0.664062 1.625,-1 2.3125,-1 z m 0,0"
         id="path323" />
    </g>
  </g>
  <g
     style="fill:#000000;fill-opacity:1"
     id="g333"
     transform="translate(-174.57031,-633.9375)">
    <g
       transform="translate(218.08596,646.06377)"
       id="g331">
      <path
         style="stroke:none"
         d="m 1.59375,-7.53125 v 6.234375 c 0,0.511719 0.253906,0.765625 0.765625,0.765625 H 2.90625 l 0.078125,0.515625 C 2.785156,0.0546875 2.5,0.09375 2.125,0.09375 1.75,0.09375 1.453125,-0.015625 1.234375,-0.234375 1.015625,-0.453125 0.90625,-0.757812 0.90625,-1.15625 v -6.375 z m 0,0"
         id="path329" />
    </g>
  </g>
  <g
     style="fill:#000000;fill-opacity:1"
     id="g339"
     transform="translate(-174.57031,-633.9375)">
    <g
       transform="translate(221.16906,646.06377)"
       id="g337">
      <path
         style="stroke:none"
         d="m 0.890625,-4.59375 -0.0625,-0.515625 c 1.039063,-0.15625 1.875,-0.234375 2.5,-0.234375 0.5625,0 0.976563,0.125 1.25,0.375 C 4.859375,-4.71875 5,-4.304688 5,-3.734375 V 0 H 4.46875 L 4.375,-0.90625 c -0.261719,0.25 -0.601562,0.480469 -1.015625,0.6875 -0.40625,0.2109375 -0.828125,0.3125 -1.265625,0.3125 -0.460938,0 -0.824219,-0.1171875 -1.09375,-0.359375 -0.261719,-0.25 -0.390625,-0.601563 -0.390625,-1.0625 v -0.59375 c 0,-0.40625 0.117187,-0.71875 0.359375,-0.9375 C 1.207031,-3.078125 1.546875,-3.1875 1.984375,-3.1875 H 4.3125 v -0.546875 c 0,-0.34375 -0.085938,-0.597656 -0.25,-0.765625 -0.15625,-0.164062 -0.445312,-0.25 -0.859375,-0.25 -0.617187,0 -1.386719,0.054688 -2.3125,0.15625 z m 0.40625,2.75 v 0.453125 c 0,0.585937 0.304687,0.875 0.921875,0.875 0.3125,0.011719 0.660156,-0.0625 1.046875,-0.21875 0.394531,-0.164063 0.742187,-0.382813 1.046875,-0.65625 v -1.25 H 2.078125 c -0.523437,0.023437 -0.78125,0.289063 -0.78125,0.796875 z m 0,0"
         id="path335" />
    </g>
  </g>
  <g
     style="fill:#000000;fill-opacity:1"
     id="g345"
     transform="translate(-174.57031,-633.9375)">
    <g
       transform="translate(227.02373,646.06377)"
       id="g343">
      <path
         style="stroke:none"
         d="m 1.5625,-7.53125 v 2.09375 c 0,0.5 -0.027344,0.871094 -0.078125,1.109375 0.695313,-0.675781 1.382813,-1.015625 2.0625,-1.015625 0.664063,0 1.144531,0.214844 1.4375,0.640625 0.300781,0.417969 0.453125,1.117187 0.453125,2.09375 0,0.949219 -0.167969,1.640625 -0.5,2.078125 C 4.601562,-0.09375 4.023438,0.125 3.203125,0.125 2.410156,0.125 1.632812,0.0078125 0.875,-0.21875 v -7.3125 z m 0,3.671875 v 3.1875 c 0.53125,0.15625 1.070312,0.226563 1.625,0.203125 0.5625,0 0.957031,-0.160156 1.1875,-0.484375 0.238281,-0.320313 0.359375,-0.875 0.359375,-1.65625 0,-0.800781 -0.101563,-1.351563 -0.296875,-1.65625 -0.199219,-0.3125 -0.558594,-0.46875 -1.078125,-0.46875 -0.28125,0 -0.554687,0.070313 -0.8125,0.203125 -0.261719,0.136719 -0.589844,0.359375 -0.984375,0.671875 z m 0,0"
         id="path341" />
    </g>
  </g>
  <g
     style="fill:#000000;fill-opacity:1"
     id="g351"
     transform="translate(-174.57031,-633.9375)">
    <g
       transform="translate(233.10398,646.06377)"
       id="g349">
      <path
         style="stroke:none"
         d="M 5.59375,-0.625 5.6875,-0.09375 C 5.125,0.0507812 4.414062,0.125 3.5625,0.125 c -1.054688,0 -1.792969,-0.285156 -2.21875,-0.859375 -0.417969,-0.570313 -0.625,-1.5625 -0.625,-2.96875 0,-1.414063 0.207031,-2.410156 0.625,-2.984375 0.425781,-0.570312 1.164062,-0.859375 2.21875,-0.859375 0.78125,0 1.4375,0.070313 1.96875,0.203125 L 5.453125,-6.8125 C 4.910156,-6.875 4.28125,-6.90625 3.5625,-6.90625 c -0.792969,0 -1.34375,0.234375 -1.65625,0.703125 -0.304688,0.460937 -0.453125,1.292969 -0.453125,2.5 0,1.199219 0.148437,2.03125 0.453125,2.5 C 2.21875,-0.734375 2.769531,-0.5 3.5625,-0.5 c 0.8125,0 1.488281,-0.039062 2.03125,-0.125 z m 0,0"
         id="path347" />
    </g>
  </g>
  <g
     style="fill:#000000;fill-opacity:1"
     id="g357"
     transform="translate(-174.57031,-633.9375)">
    <g
       transform="translate(239.19499,646.06377)"
       id="g355">
      <path
         style="stroke:none"
         d="m 1.1875,-4.71875 c 0.363281,-0.414062 0.984375,-0.625 1.859375,-0.625 0.875,0 1.488281,0.210938 1.84375,0.625 0.351563,0.40625 0.53125,1.117188 0.53125,2.125 0,1 -0.179687,1.703125 -0.53125,2.109375 C 4.535156,-0.078125 3.921875,0.125 3.046875,0.125 2.171875,0.125 1.550781,-0.078125 1.1875,-0.484375 0.820312,-0.898438 0.640625,-1.601562 0.640625,-2.59375 c 0,-1.007812 0.179687,-1.71875 0.546875,-2.125 z m 3.15625,0.4375 C 4.101562,-4.59375 3.664062,-4.75 3.03125,-4.75 c -0.625,0 -1.0625,0.15625 -1.3125,0.46875 -0.242188,0.304688 -0.359375,0.867188 -0.359375,1.6875 0,0.8125 0.117187,1.375 0.359375,1.6875 0.25,0.304688 0.6875,0.453125 1.3125,0.453125 0.632812,0 1.070312,-0.148437 1.3125,-0.453125 0.25,-0.3125 0.375,-0.875 0.375,-1.6875 0,-0.820312 -0.125,-1.382812 -0.375,-1.6875 z m 0,0"
         id="path353" />
    </g>
  </g>
  <g
     style="fill:#000000;fill-opacity:1"
     id="g363"
     transform="translate(-174.57031,-633.9375)">
    <g
       transform="translate(245.2645,646.06377)"
       id="g361">
      <path
         style="stroke:none"
         d="M 1.46875,-5.203125 1.5,-4.34375 c 0.769531,-0.664062 1.503906,-1 2.203125,-1 0.738281,0 1.175781,0.328125 1.3125,0.984375 C 5.773438,-5.015625 6.5,-5.34375 7.1875,-5.34375 c 0.445312,0 0.785156,0.125 1.015625,0.375 C 8.441406,-4.726562 8.5625,-4.375 8.5625,-3.90625 V 0 H 7.890625 V -3.734375 C 7.878906,-4.085938 7.800781,-4.34375 7.65625,-4.5 7.507812,-4.664062 7.28125,-4.75 6.96875,-4.75 6.675781,-4.75 6.394531,-4.679688 6.125,-4.546875 5.863281,-4.421875 5.507812,-4.1875 5.0625,-3.84375 V 0 H 4.40625 v -3.734375 c 0,-0.351563 -0.078125,-0.609375 -0.234375,-0.765625 -0.148437,-0.164062 -0.375,-0.25 -0.6875,-0.25 -0.28125,0 -0.558594,0.070312 -0.828125,0.203125 -0.273438,0.125 -0.632812,0.355469 -1.078125,0.6875 V 0 H 0.90625 v -5.203125 z m 0,0"
         id="path359" />
    </g>
  </g>
  <g
     style="fill:#000000;fill-opacity:1"
     id="g369"
     transform="translate(-174.57031,-633.9375)">
    <g
       transform="translate(254.68567,646.06377)"
       id="g367">
      <path
         style="stroke:none"
         d="M 1.46875,-5.203125 1.5,-4.34375 c 0.769531,-0.664062 1.503906,-1 2.203125,-1 0.738281,0 1.175781,0.328125 1.3125,0.984375 C 5.773438,-5.015625 6.5,-5.34375 7.1875,-5.34375 c 0.445312,0 0.785156,0.125 1.015625,0.375 C 8.441406,-4.726562 8.5625,-4.375 8.5625,-3.90625 V 0 H 7.890625 V -3.734375 C 7.878906,-4.085938 7.800781,-4.34375 7.65625,-4.5 7.507812,-4.664062 7.28125,-4.75 6.96875,-4.75 6.675781,-4.75 6.394531,-4.679688 6.125,-4.546875 5.863281,-4.421875 5.507812,-4.1875 5.0625,-3.84375 V 0 H 4.40625 v -3.734375 c 0,-0.351563 -0.078125,-0.609375 -0.234375,-0.765625 -0.148437,-0.164062 -0.375,-0.25 -0.6875,-0.25 -0.28125,0 -0.558594,0.070312 -0.828125,0.203125 -0.273438,0.125 -0.632812,0.355469 -1.078125,0.6875 V 0 H 0.90625 v -5.203125 z m 0,0"
         id="path365" />
    </g>
  </g>
  <g
     style="fill:#000000;fill-opacity:1"
     id="g375"
     transform="translate(-174.57031,-633.9375)">
    <g
       transform="translate(264.10684,646.06377)"
       id="g373">
      <path
         style="stroke:none"
         d="M 5.1875,-5.203125 V 0 H 4.640625 L 4.59375,-0.8125 C 3.789062,-0.1875 3.019531,0.125 2.28125,0.125 1.34375,0.125 0.875,-0.347656 0.875,-1.296875 v -3.90625 h 0.671875 v 3.734375 c 0,0.355469 0.070313,0.609375 0.21875,0.765625 0.15625,0.15625 0.398437,0.234375 0.734375,0.234375 0.300781,0 0.597656,-0.0625 0.890625,-0.1875 C 3.679688,-0.789062 4.050781,-1.015625 4.5,-1.328125 v -3.875 z m 0,0"
         id="path371" />
    </g>
  </g>
  <g
     style="fill:#000000;fill-opacity:1"
     id="g381"
     transform="translate(-174.57031,-633.9375)">
    <g
       transform="translate(270.19785,646.06377)"
       id="g379">
      <path
         style="stroke:none"
         d="m 1.46875,-5.203125 0.0625,0.859375 c 0.863281,-0.664062 1.664062,-1 2.40625,-1 0.925781,0 1.390625,0.480469 1.390625,1.4375 V 0 H 4.65625 v -3.734375 c 0,-0.363281 -0.074219,-0.625 -0.21875,-0.78125 C 4.300781,-4.671875 4.070312,-4.75 3.75,-4.75 c -0.3125,0 -0.632812,0.074219 -0.953125,0.21875 -0.3125,0.136719 -0.714844,0.367188 -1.203125,0.6875 V 0 h -0.6875 v -5.203125 z m 0,0"
         id="path377" />
    </g>
  </g>
  <g
     style="fill:#000000;fill-opacity:1"
     id="g387"
     transform="translate(-174.57031,-633.9375)">
    <g
       transform="translate(276.39627,646.06377)"
       id="g385">
      <path
         style="stroke:none"
         d="m 1.125,-7.390625 h 0.3125 c 0.15625,0 0.234375,0.074219 0.234375,0.21875 v 0.625 c 0,0.148437 -0.078125,0.21875 -0.234375,0.21875 H 1.125 c -0.148438,0 -0.21875,-0.070313 -0.21875,-0.21875 v -0.625 c 0,-0.144531 0.070312,-0.21875 0.21875,-0.21875 z M 1.625,0 H 0.953125 V -5.203125 H 1.625 Z m 0,0"
         id="path383" />
    </g>
  </g>
  <g
     style="fill:#000000;fill-opacity:1"
     id="g393"
     transform="translate(-174.57031,-633.9375)">
    <g
       transform="translate(278.95299,646.06377)"
       id="g391">
      <path
         style="stroke:none"
         d="m 3.546875,-0.53125 0.09375,0.515625 C 3.273438,0.0546875 2.910156,0.09375 2.546875,0.09375 1.679688,0.09375 1.25,-0.34375 1.25,-1.21875 V -4.671875 H 0.3125 V -5.15625 L 1.25,-5.203125 V -6.78125 h 0.6875 v 1.578125 h 1.765625 v 0.53125 H 1.9375 v 3.375 c 0,0.511719 0.253906,0.765625 0.765625,0.765625 z m 0,0"
         id="path389" />
    </g>
  </g>
  <g
     style="fill:#000000;fill-opacity:1"
     id="g399"
     transform="translate(-174.57031,-633.9375)">
    <g
       transform="translate(282.91697,646.06377)"
       id="g397">
      <path
         style="stroke:none"
         d="M 5.359375,-5.203125 3.15625,0.359375 C 2.945312,0.890625 2.6875,1.316406 2.375,1.640625 2.0625,1.972656 1.632812,2.164062 1.09375,2.21875 L 1.015625,1.78125 C 1.421875,1.644531 1.738281,1.453125 1.96875,1.203125 2.195312,0.960938 2.382812,0.660156 2.53125,0.296875 L 2.65625,0 H 2.484375 C 2.347656,0 2.257812,-0.0625 2.21875,-0.1875 L 0.234375,-5.203125 H 0.96875 L 2.5,-1.140625 c 0.113281,0.304687 0.1875,0.507813 0.21875,0.609375 H 2.875 l 0.21875,-0.625 1.53125,-4.046875 z m 0,0"
         id="path395" />
    </g>
  </g>
  <g
     clip-rule="nonzero"
     clip-path="url(#clip9)"
     id="g403"
     transform="translate(-174.57031,-633.9375)">
    <path
       style="fill:#3d4fb3;fill-opacity:1;fill-rule:nonzero;stroke:none"
       d="m 182.94141,657.36719 c -0.52344,0 -1.03907,0.0508 -1.55079,0.15234 -0.51171,0.10156 -1.01171,0.25391 -1.49218,0.45313 -0.48438,0.20312 -0.94141,0.44921 -1.375,0.73828 -0.4336,0.29297 -0.83594,0.62109 -1.20703,0.99218 -0.36719,0.3711 -0.69532,0.77735 -0.98829,1.21094 -0.28906,0.4375 -0.53515,0.89844 -0.73437,1.38281 -0.19922,0.48438 -0.34766,0.98047 -0.45313,1.4961 -0.10156,0.51562 -0.15234,1.03515 -0.15234,1.55859 0,0.52344 0.0508,1.04297 0.15234,1.5586 0.10547,0.51171 0.25391,1.01171 0.45313,1.49609 0.19922,0.48437 0.44531,0.94531 0.73437,1.38281 0.29297,0.4336 0.6211,0.83985 0.98829,1.20703 0.37109,0.3711 0.77343,0.70313 1.20703,0.9961 0.43359,0.28906 0.89062,0.53515 1.375,0.73828 0.48047,0.19922 0.98047,0.35156 1.49218,0.45312 0.51172,0.10157 1.02735,0.15235 1.55079,0.15235 0.51953,0 1.03906,-0.0508 1.55078,-0.15235 0.51172,-0.10156 1.00781,-0.2539 1.49218,-0.45312 0.48047,-0.20313 0.9375,-0.44922 1.3711,-0.73828 0.4375,-0.29297 0.83594,-0.625 1.20703,-0.9961 0.36719,-0.36718 0.69922,-0.77343 0.98828,-1.20703 0.28906,-0.4375 0.53516,-0.89844 0.73438,-1.38281 0.19921,-0.48438 0.35156,-0.98438 0.45312,-1.49609 0.10156,-0.51563 0.15234,-1.03516 0.15234,-1.5586 0,-0.52344 -0.0508,-1.04297 -0.15234,-1.55859 -0.10156,-0.51563 -0.25391,-1.01172 -0.45312,-1.4961 -0.19922,-0.48437 -0.44532,-0.94531 -0.73438,-1.38281 -0.28906,-0.43359 -0.62109,-0.83984 -0.98828,-1.21094 -0.37109,-0.37109 -0.76953,-0.69921 -1.20703,-0.99218 -0.4336,-0.28907 -0.89063,-0.53516 -1.3711,-0.73828 -0.48437,-0.19922 -0.98046,-0.35157 -1.49218,-0.45313 -0.51172,-0.10156 -1.03125,-0.15234 -1.55078,-0.15234 z m 0,0"
       id="path401" />
  </g>
  <path
     style="fill:#ffffff;fill-opacity:1;fill-rule:nonzero;stroke:none"
     d="m 10.503908,31.41406 h -1.33985 v 4.79297 h -1.98828 v -4.79297 h -1.1914 v -1.59765 h 1.1914 v -0.96094 c 0.004,-1.40235 0.58203,-2.23438 2.22266,-2.23438 h 1.35547 v 1.59766 h -0.90625 c -0.64063,0 -0.6836,0.24219 -0.6836,0.6875 v 0.91016 h 1.58985 z m 0,0"
     id="path405" />
  <g
     style="fill:#000000;fill-opacity:1"
     id="g411"
     transform="translate(-174.57031,-633.9375)">
    <g
       transform="translate(199.22145,669.10768)"
       id="g409">
      <path
         style="stroke:none"
         d="M 3.71875,-6.21875 H 5.25 c 0.507812,0 0.894531,0.117188 1.15625,0.34375 0.257812,0.230469 0.390625,0.59375 0.390625,1.09375 v 3.375 H 6.28125 l -0.0625,-0.828125 c -0.242188,0.230469 -0.574219,0.4375 -1,0.625 -0.417969,0.1875 -0.839844,0.28125 -1.265625,0.28125 -0.429687,0 -0.765625,-0.101563 -1.015625,-0.3125 -0.25,-0.21875 -0.375,-0.523437 -0.375,-0.921875 V -3.125 c 0,-0.34375 0.109375,-0.609375 0.328125,-0.796875 0.21875,-0.1875 0.523437,-0.28125 0.921875,-0.28125 h 2.34375 v -0.5625 c 0,-0.300781 -0.078125,-0.519531 -0.234375,-0.65625 -0.148437,-0.144531 -0.40625,-0.21875 -0.78125,-0.21875 h -1.40625 c -0.273437,0 -0.492187,0.00781 -0.65625,0.015625 -0.15625,0 -0.324219,0.015625 -0.5,0.046875 -0.179687,0.03125 -0.3125,0.074219 -0.40625,0.125 C 2.085938,-5.410156 2,-5.335938 1.90625,-5.234375 c -0.09375,0.105469 -0.164062,0.21875 -0.203125,0.34375 -0.03125,0.117187 -0.070313,0.277344 -0.109375,0.484375 -0.03125,0.210938 -0.054688,0.433594 -0.0625,0.671875 0,0.230469 0,0.523437 0,0.875 0,0.367187 0,0.671875 0,0.921875 0.00781,0.242188 0.035156,0.46875 0.078125,0.6875 0.039063,0.210938 0.078125,0.375 0.109375,0.5 0.039062,0.125 0.113281,0.242188 0.21875,0.34375 0.113281,0.105469 0.21875,0.183594 0.3125,0.234375 C 2.351562,-0.128906 2.503906,-0.09375 2.703125,-0.0625 2.910156,-0.03125 3.101562,-0.0078125 3.28125,0 3.46875,0 3.722656,0 4.046875,0 h 2.71875 V 0.515625 C 5.867188,0.554688 4.96875,0.578125 4.0625,0.578125 3.550781,0.585938 3.140625,0.582031 2.828125,0.5625 2.515625,0.539062 2.226562,0.476562 1.96875,0.375 1.707031,0.28125 1.515625,0.164062 1.390625,0.03125 1.265625,-0.101562 1.160156,-0.3125 1.078125,-0.59375 0.992188,-0.875 0.9375,-1.179688 0.90625,-1.515625 0.882812,-1.847656 0.875,-2.289062 0.875,-2.84375 c 0,-0.539062 0.007812,-0.96875 0.03125,-1.28125 0.019531,-0.320312 0.066406,-0.625 0.140625,-0.90625 0.082031,-0.28125 0.175781,-0.484375 0.28125,-0.609375 0.113281,-0.132813 0.285156,-0.25 0.515625,-0.34375 0.226562,-0.101563 0.484375,-0.164063 0.765625,-0.1875 0.28125,-0.03125 0.648437,-0.046875 1.109375,-0.046875 z m 2.4375,2.4375 -2.140625,0.046875 c -0.53125,0.023437 -0.796875,0.25 -0.796875,0.6875 v 0.375 c 0,0.523437 0.28125,0.78125 0.84375,0.78125 0.332031,0.011719 0.695312,-0.054687 1.09375,-0.203125 0.40625,-0.15625 0.738281,-0.347656 1,-0.578125 z m 0,0"
         id="path407" />
    </g>
  </g>
  <g
     style="fill:#000000;fill-opacity:1"
     id="g417"
     transform="translate(-174.57031,-633.9375)">
    <g
       transform="translate(206.83789,669.10768)"
       id="g415">
      <path
         style="stroke:none"
         d="m 3.953125,-2.265625 h -2.59375 c 0.039063,0.6875 0.195313,1.164063 0.46875,1.421875 0.269531,0.25 0.710937,0.375 1.328125,0.375 0.539062,0 1.140625,-0.039062 1.796875,-0.125 L 5.03125,-0.125 c -0.449219,0.1640625 -1.105469,0.25 -1.96875,0.25 -0.875,0 -1.5,-0.2070312 -1.875,-0.625 -0.367188,-0.414062 -0.546875,-1.125 -0.546875,-2.125 0,-1 0.175781,-1.703125 0.53125,-2.109375 0.363281,-0.40625 0.96875,-0.609375 1.8125,-0.609375 0.726563,0 1.269531,0.136719 1.625,0.40625 0.351563,0.273438 0.535156,0.679688 0.546875,1.21875 C 5.16406,-2.75 4.765625,-2.265625 3.953125,-2.265625 Z M 1.359375,-2.8125 h 2.4375 c 0.457031,0 0.679687,-0.296875 0.671875,-0.890625 C 4.457031,-4.066406 4.335938,-4.332031 4.109375,-4.5 3.878906,-4.664062 3.515625,-4.75 3.015625,-4.75 2.398438,-4.75 1.96875,-4.609375 1.71875,-4.328125 1.476562,-4.046875 1.359375,-3.539062 1.359375,-2.8125 Z m 0,0"
         id="path413" />
    </g>
  </g>
  <g
     style="fill:#000000;fill-opacity:1"
     id="g423"
     transform="translate(-174.57031,-633.9375)">
    <g
       transform="translate(212.57438,669.10768)"
       id="g421">
      <path
         style="stroke:none"
         d="m 1.125,-7.390625 h 0.3125 c 0.15625,0 0.234375,0.074219 0.234375,0.21875 v 0.625 c 0,0.148437 -0.078125,0.21875 -0.234375,0.21875 H 1.125 c -0.148438,0 -0.21875,-0.070313 -0.21875,-0.21875 v -0.625 c 0,-0.144531 0.070312,-0.21875 0.21875,-0.21875 z M 1.625,0 H 0.953125 V -5.203125 H 1.625 Z m 0,0"
         id="path419" />
    </g>
  </g>
  <g
     style="fill:#000000;fill-opacity:1"
     id="g429"
     transform="translate(-174.57031,-633.9375)">
    <g
       transform="translate(215.1311,669.10768)"
       id="g427">
      <path
         style="stroke:none"
         d="M 4.03125,-5.34375 3.9375,-4.703125 h -0.25 c -0.304688,0 -0.609375,0.0625 -0.921875,0.1875 -0.304687,0.125 -0.695313,0.335937 -1.171875,0.625 V 0 H 0.90625 V -5.203125 H 1.4375 L 1.5,-4.34375 c 0.851562,-0.664062 1.625,-1 2.3125,-1 z m 0,0"
         id="path425" />
    </g>
  </g>
  <g
     style="fill:#000000;fill-opacity:1"
     id="g435"
     transform="translate(-174.57031,-633.9375)">
    <g
       transform="translate(219.36364,669.10768)"
       id="g433">
      <path
         style="stroke:none"
         d="m 1.59375,-7.53125 v 6.234375 c 0,0.511719 0.253906,0.765625 0.765625,0.765625 H 2.90625 l 0.078125,0.515625 C 2.785156,0.0546875 2.5,0.09375 2.125,0.09375 1.75,0.09375 1.453125,-0.015625 1.234375,-0.234375 1.015625,-0.453125 0.90625,-0.757812 0.90625,-1.15625 v -6.375 z m 0,0"
         id="path431" />
    </g>
  </g>
  <g
     style="fill:#000000;fill-opacity:1"
     id="g441"
     transform="translate(-174.57031,-633.9375)">
    <g
       transform="translate(222.44674,669.10768)"
       id="g439">
      <path
         style="stroke:none"
         d="m 0.890625,-4.59375 -0.0625,-0.515625 c 1.039063,-0.15625 1.875,-0.234375 2.5,-0.234375 0.5625,0 0.976563,0.125 1.25,0.375 C 4.859375,-4.71875 5,-4.304688 5,-3.734375 V 0 H 4.46875 L 4.375,-0.90625 c -0.261719,0.25 -0.601562,0.480469 -1.015625,0.6875 -0.40625,0.2109375 -0.828125,0.3125 -1.265625,0.3125 -0.460938,0 -0.824219,-0.1171875 -1.09375,-0.359375 -0.261719,-0.25 -0.390625,-0.601563 -0.390625,-1.0625 v -0.59375 c 0,-0.40625 0.117187,-0.71875 0.359375,-0.9375 C 1.207031,-3.078125 1.546875,-3.1875 1.984375,-3.1875 H 4.3125 v -0.546875 c 0,-0.34375 -0.085938,-0.597656 -0.25,-0.765625 -0.15625,-0.164062 -0.445312,-0.25 -0.859375,-0.25 -0.617187,0 -1.386719,0.054688 -2.3125,0.15625 z m 0.40625,2.75 v 0.453125 c 0,0.585937 0.304687,0.875 0.921875,0.875 0.3125,0.011719 0.660156,-0.0625 1.046875,-0.21875 0.394531,-0.164063 0.742187,-0.382813 1.046875,-0.65625 v -1.25 H 2.078125 c -0.523437,0.023437 -0.78125,0.289063 -0.78125,0.796875 z m 0,0"
         id="path437" />
    </g>
  </g>
  <g
     style="fill:#000000;fill-opacity:1"
     id="g447"
     transform="translate(-174.57031,-633.9375)">
    <g
       transform="translate(228.3014,669.10768)"
       id="g445">
      <path
         style="stroke:none"
         d="m 1.5625,-7.53125 v 2.09375 c 0,0.5 -0.027344,0.871094 -0.078125,1.109375 0.695313,-0.675781 1.382813,-1.015625 2.0625,-1.015625 0.664063,0 1.144531,0.214844 1.4375,0.640625 0.300781,0.417969 0.453125,1.117187 0.453125,2.09375 0,0.949219 -0.167969,1.640625 -0.5,2.078125 C 4.601562,-0.09375 4.023438,0.125 3.203125,0.125 2.410156,0.125 1.632812,0.0078125 0.875,-0.21875 v -7.3125 z m 0,3.671875 v 3.1875 c 0.53125,0.15625 1.070312,0.226563 1.625,0.203125 0.5625,0 0.957031,-0.160156 1.1875,-0.484375 0.238281,-0.320313 0.359375,-0.875 0.359375,-1.65625 0,-0.800781 -0.101563,-1.351563 -0.296875,-1.65625 -0.199219,-0.3125 -0.558594,-0.46875 -1.078125,-0.46875 -0.28125,0 -0.554687,0.070313 -0.8125,0.203125 -0.261719,0.136719 -0.589844,0.359375 -0.984375,0.671875 z m 0,0"
         id="path443" />
    </g>
  </g>
  <path
     style="fill:#000000;fill-opacity:1;fill-rule:nonzero;stroke:none"
     d="M 13.937498,49.73047 H 2.050778 c -0.16797,0 -0.30078,-0.13281 -0.30078,-0.30078 0,-0.16797 0.13281,-0.30078 0.30078,-0.30078 h 11.88672 c 0.16797,0 0.30469,0.13281 0.30469,0.30078 0,0.16797 -0.13672,0.30078 -0.30469,0.30078 z m 0,0"
     id="path449" />
  <path
     style="fill:#000000;fill-opacity:1;fill-rule:nonzero;stroke:none"
     d="M 13.968748,58.78906 H 2.351558 c -0.16796,0 -0.30078,-0.13672 -0.30078,-0.30078 0,-0.16797 0.13672,-0.30078 0.30078,-0.30078 h 11.61329 c 0.16796,0 0.30468,0.13281 0.30468,0.30078 0,0.16406 -0.13672,0.30078 -0.30078,0.30078 z m 0,0"
     id="path451" />
  <g
     clip-rule="nonzero"
     clip-path="url(#clip10)"
     id="g455"
     transform="translate(-174.57031,-633.9375)">
    <path
       style="fill:#000000;fill-opacity:1;fill-rule:nonzero;stroke:none"
       d="m 182.6875,695.76953 c -0.44922,0 -1.10547,-0.30469 -1.67578,-1.75781 -0.40625,-1.03125 -0.69531,-2.42578 -0.83203,-4.03516 -0.008,-0.0859 0.0234,-0.16797 0.0781,-0.23047 0.0586,-0.0625 0.13672,-0.0976 0.22266,-0.0976 h 4.41406 c 0.082,0 0.16406,0.0351 0.22266,0.0976 0.0547,0.0625 0.0859,0.14453 0.0781,0.23047 -0.13672,1.60938 -0.42578,3.00391 -0.83203,4.03516 -0.57031,1.45312 -1.22656,1.75781 -1.67578,1.75781 z m -1.875,-5.51562 c 0.14062,1.39453 0.40625,2.64062 0.76172,3.53906 0.34375,0.87109 0.75,1.37109 1.11328,1.37109 0.36328,0 0.76953,-0.5 1.11328,-1.37109 0.35547,-0.89844 0.62109,-2.14453 0.76172,-3.53906 z m 4.08203,-4.10938 h -4.41406 c -0.082,0 -0.16406,-0.0352 -0.22266,-0.0977 -0.0547,-0.0625 -0.0859,-0.14453 -0.0781,-0.23046 0.13672,-1.60938 0.42578,-3.00391 0.83203,-4.03516 0.57031,-1.45313 1.22656,-1.75781 1.67578,-1.75781 0.44922,0 1.10547,0.30468 1.67578,1.75781 0.40625,1.02734 0.69141,2.41406 0.82813,4.01172 0.004,0.0156 0.004,0.0312 0.004,0.0508 0,0.16406 -0.13281,0.30078 -0.30078,0.30078 z m -4.08203,-0.60547 h 3.75 c -0.14063,-1.39453 -0.40625,-2.64453 -0.76172,-3.53906 -0.34375,-0.87109 -0.75,-1.37109 -1.11328,-1.37109 -0.36328,0 -0.76953,0.5 -1.11328,1.37109 -0.35547,0.89453 -0.6211,2.14453 -0.76172,3.53906 z m 0,0"
       id="path453" />
  </g>
  <g
     clip-rule="nonzero"
     clip-path="url(#clip11)"
     id="g459"
     transform="translate(-174.57031,-633.9375)">
    <path
       style="fill:#000000;fill-opacity:1;fill-rule:nonzero;stroke:none"
       d="m 182.6875,695.76953 c -1.3125,0 -2.55078,-0.57422 -3.57813,-1.66016 -0.97656,-1.03125 -1.69921,-2.48828 -2.02734,-4.09765 -0.0195,-0.0898 0.004,-0.17969 0.0625,-0.25 0.0547,-0.0703 0.14063,-0.11328 0.23047,-0.11328 H 188 c 0.0898,0 0.17578,0.043 0.23047,0.11328 0.0586,0.0703 0.082,0.16015 0.0625,0.25 -0.32813,1.60937 -1.05078,3.0664 -2.02735,4.09765 -1.02734,1.08594 -2.26562,1.66016 -3.57812,1.66016 z m -4.93359,-5.51562 c 0.71875,2.91015 2.70703,4.91015 4.93359,4.91015 2.22656,0 4.21484,-2 4.93359,-4.91015 z M 188,686.14453 h -10.625 c -0.0898,0 -0.17578,-0.043 -0.23047,-0.11328 -0.0586,-0.0703 -0.082,-0.16016 -0.0625,-0.25 0.32813,-1.60938 1.05078,-3.06641 2.02734,-4.09766 1.02735,-1.08593 2.26563,-1.66015 3.57813,-1.66015 1.3125,0 2.55078,0.57422 3.57812,1.66015 0.97266,1.02735 1.69141,2.47266 2.02344,4.07813 0.008,0.0234 0.0117,0.0508 0.0117,0.082 0,0.16406 -0.13672,0.30078 -0.30078,0.30078 z m -10.24609,-0.60547 h 9.86718 c -0.71875,-2.91015 -2.70703,-4.91015 -4.93359,-4.91015 -2.22656,0 -4.21484,2 -4.93359,4.91015 z m 0,0"
       id="path457" />
  </g>
  <path
     style="fill:#000000;fill-opacity:1;fill-rule:nonzero;stroke:none"
     d="m 2.890628,53.12891 0.22265,0.66796 0.008,0.0117 c 0.0312,0.0937 0.0508,0.16797 0.0625,0.22266 0.004,-0.0312 0.0117,-0.0625 0.0234,-0.0977 0.008,-0.0351 0.0234,-0.082 0.0391,-0.13672 l 0.23046,-0.66796 h 0.55079 l -0.63672,1.51171 h -0.375 l -0.22657,-0.68359 c -0.0117,-0.0391 -0.0234,-0.0781 -0.0312,-0.11719 -0.0117,-0.0391 -0.0195,-0.0781 -0.0273,-0.11718 -0.0117,0.0586 -0.0312,0.13281 -0.0586,0.22656 l -0.004,0.008 -0.22266,0.68359 h -0.375 l -0.63281,-1.51171 h 0.55078 l 0.22266,0.66796 c 0.0195,0.0508 0.0312,0.0937 0.043,0.12891 0.008,0.0352 0.0156,0.0703 0.0234,0.10547 0.008,-0.0469 0.0273,-0.11719 0.0586,-0.20703 0.004,-0.0117 0.008,-0.0195 0.008,-0.0273 l 0.22656,-0.66796 z m 0,0"
     id="path461" />
  <path
     style="fill:#000000;fill-opacity:1;fill-rule:nonzero;stroke:none"
     d="m 5.359378,53.12891 0.22656,0.67968 c 0.0352,0.0937 0.0547,0.16797 0.0625,0.22266 0.008,-0.0312 0.0156,-0.0625 0.0234,-0.0977 0.0117,-0.0351 0.0234,-0.082 0.043,-0.13672 l 0.22656,-0.66796 h 0.55469 l -0.63672,1.51171 h -0.37891 l -0.22266,-0.68359 c -0.0117,-0.0391 -0.0234,-0.0781 -0.0312,-0.11719 -0.0117,-0.0391 -0.0195,-0.0781 -0.0273,-0.11718 -0.0117,0.0586 -0.0312,0.13281 -0.0586,0.22656 l -0.004,0.008 -0.22266,0.68359 h -0.3789 l -0.63281,-1.51171 h 0.55078 l 0.22656,0.66796 c 0.0195,0.0508 0.0312,0.0937 0.043,0.12891 0.008,0.0352 0.0156,0.0703 0.0234,0.10547 0.008,-0.0469 0.0273,-0.11719 0.0586,-0.20703 0.004,-0.0117 0.004,-0.0195 0.008,-0.0273 l 0.22266,-0.66796 z m 0,0"
     id="path463" />
  <path
     style="fill:#000000;fill-opacity:1;fill-rule:nonzero;stroke:none"
     d="m 7.828128,53.12891 0.22656,0.67968 c 0.0352,0.0937 0.0547,0.16797 0.0625,0.22266 0.008,-0.0312 0.0156,-0.0625 0.0234,-0.0977 0.0117,-0.0351 0.0234,-0.082 0.043,-0.13672 l 0.22656,-0.66796 h 0.55469 l -0.63672,1.51171 h -0.37891 l -0.22266,-0.68359 c -0.0117,-0.0391 -0.0234,-0.0781 -0.0352,-0.11719 -0.008,-0.0391 -0.0156,-0.0781 -0.0234,-0.11718 -0.0117,0.0586 -0.0312,0.13281 -0.0586,0.22656 l -0.004,0.008 -0.22266,0.68359 h -0.3789 l -0.63281,-1.51171 h 0.55078 l 0.22656,0.66796 c 0.0156,0.0508 0.0312,0.0937 0.0391,0.12891 0.0117,0.0352 0.0195,0.0703 0.0273,0.10547 0.008,-0.0469 0.0273,-0.11719 0.0547,-0.20703 0.008,-0.0117 0.008,-0.0195 0.0117,-0.0273 l 0.22266,-0.66796 z m 0,0"
     id="path465" />
  <path
     style="fill:#000000;fill-opacity:1;fill-rule:nonzero;stroke:none"
     d="m 8.859378,54.39453 c 0,-0.082 0.0273,-0.15625 0.0859,-0.21484 0.0586,-0.0547 0.12891,-0.0859 0.21485,-0.0859 0.0859,0 0.16015,0.0312 0.21484,0.0859 0.0586,0.0586 0.0898,0.13281 0.0898,0.21484 0,0.0859 -0.0312,0.15625 -0.0898,0.21875 -0.0586,0.0586 -0.1289,0.0859 -0.21484,0.0859 -0.0859,0 -0.15625,-0.0273 -0.21485,-0.0859 -0.0586,-0.0625 -0.0859,-0.13281 -0.0859,-0.21875 z m 0,0"
     id="path467" />
  <path
     style="fill:#000000;fill-opacity:1;fill-rule:nonzero;stroke:none"
     d="m 14.210938,54.77734 h -3.91797 c -0.16797,0 -0.30078,-0.13672 -0.30078,-0.30078 0,-0.16797 0.13281,-0.30469 0.30078,-0.30469 h 3.91797 c 0.16797,0 0.30469,0.13672 0.30469,0.30469 0,0.16406 -0.13672,0.30078 -0.30469,0.30078 z m 0,0"
     id="path469" />
  <g
     clip-rule="nonzero"
     clip-path="url(#clip12)"
     id="g473"
     transform="translate(-174.57031,-633.9375)">
    <path
       style="fill:#000000;fill-opacity:1;fill-rule:nonzero;stroke:none"
       d="m 189.97656,690.25391 h -14.57812 c -0.13282,0 -0.25391,-0.0899 -0.28907,-0.22266 -0.16015,-0.57031 -0.25781,-1.16016 -0.28515,-1.75 0,-0.008 0,-0.0117 0,-0.0156 v -0.73828 c 0,-0.004 0,-0.008 0,-0.0156 0.0273,-0.58985 0.125,-1.17969 0.28515,-1.75 0.0352,-0.13281 0.15625,-0.22266 0.28907,-0.22266 h 14.57812 c 0.13672,0 0.25391,0.0937 0.28906,0.22266 0.19532,0.6914 0.29297,1.41015 0.29297,2.13672 0,0.72265 -0.0977,1.4414 -0.29297,2.13281 -0.0352,0.13281 -0.15234,0.22266 -0.28906,0.22266 z m -14.34375,-0.60547 h 14.10938 c 0.14062,-0.57032 0.21484,-1.16016 0.21484,-1.75 0,-0.59375 -0.0742,-1.1836 -0.21484,-1.75391 h -14.10938 c -0.11328,0.45313 -0.18359,0.92188 -0.20312,1.39063 v 0.72265 c 0.0195,0.46875 0.0898,0.9375 0.20312,1.39063 z m 0,0"
       id="path471" />
  </g>
  <g
     clip-rule="nonzero"
     clip-path="url(#clip13)"
     id="g477"
     transform="translate(-174.57031,-633.9375)">
    <path
       style="fill:#000000;fill-opacity:1;fill-rule:nonzero;stroke:none"
       d="m 182.6875,695.76953 c -2.10156,0 -4.07813,-0.82031 -5.56641,-2.30859 -1.48437,-1.48438 -2.30468,-3.46094 -2.30468,-5.5625 0,-4.34375 3.53125,-7.875 7.87109,-7.875 4.33984,0 7.87109,3.53125 7.87109,7.875 0,2.10156 -0.8164,4.07812 -2.30468,5.5625 -1.48829,1.48828 -3.46485,2.30859 -5.56641,2.30859 z m 0,-15.14062 c -4.00781,0 -7.26953,3.25781 -7.26953,7.26953 0,4.00781 3.26172,7.26562 7.26953,7.26562 4.00781,0 7.26953,-3.25781 7.26953,-7.26562 0,-4.01172 -3.26172,-7.26953 -7.26953,-7.26953 z m 0,0"
       id="path475" />
  </g>
  <g
     style="fill:#000000;fill-opacity:1"
     id="g483"
     transform="translate(-174.57031,-633.9375)">
    <g
       transform="translate(198.90198,691.66252)"
       id="g481">
      <path
         style="stroke:none"
         d="m 3.953125,-2.265625 h -2.59375 c 0.039063,0.6875 0.195313,1.164063 0.46875,1.421875 0.269531,0.25 0.710937,0.375 1.328125,0.375 0.539062,0 1.140625,-0.039062 1.796875,-0.125 L 5.03125,-0.125 c -0.449219,0.1640625 -1.105469,0.25 -1.96875,0.25 -0.875,0 -1.5,-0.2070312 -1.875,-0.625 -0.367188,-0.414062 -0.546875,-1.125 -0.546875,-2.125 0,-1 0.175781,-1.703125 0.53125,-2.109375 0.363281,-0.40625 0.96875,-0.609375 1.8125,-0.609375 0.726563,0 1.269531,0.136719 1.625,0.40625 0.351563,0.273438 0.535156,0.679688 0.546875,1.21875 C 5.16406,-2.75 4.765625,-2.265625 3.953125,-2.265625 Z M 1.359375,-2.8125 h 2.4375 c 0.457031,0 0.679687,-0.296875 0.671875,-0.890625 C 4.457031,-4.066406 4.335938,-4.332031 4.109375,-4.5 3.878906,-4.664062 3.515625,-4.75 3.015625,-4.75 2.398438,-4.75 1.96875,-4.609375 1.71875,-4.328125 1.476562,-4.046875 1.359375,-3.539062 1.359375,-2.8125 Z m 0,0"
         id="path479" />
    </g>
  </g>
  <g
     style="fill:#000000;fill-opacity:1"
     id="g489"
     transform="translate(-174.57031,-633.9375)">
    <g
       transform="translate(204.64014,691.66252)"
       id="g487">
      <path
         style="stroke:none"
         d="m 1.125,-7.390625 h 0.3125 c 0.15625,0 0.234375,0.074219 0.234375,0.21875 v 0.625 c 0,0.148437 -0.078125,0.21875 -0.234375,0.21875 H 1.125 c -0.148438,0 -0.21875,-0.070313 -0.21875,-0.21875 v -0.625 c 0,-0.144531 0.070312,-0.21875 0.21875,-0.21875 z M 1.625,0 H 0.953125 V -5.203125 H 1.625 Z m 0,0"
         id="path485" />
    </g>
  </g>
  <g
     style="fill:#000000;fill-opacity:1"
     id="g495"
     transform="translate(-174.57031,-633.9375)">
    <g
       transform="translate(207.1976,691.66252)"
       id="g493">
      <path
         style="stroke:none"
         d="M 4.03125,-5.34375 3.9375,-4.703125 h -0.25 c -0.304688,0 -0.609375,0.0625 -0.921875,0.1875 -0.304687,0.125 -0.695313,0.335937 -1.171875,0.625 V 0 H 0.90625 V -5.203125 H 1.4375 L 1.5,-4.34375 c 0.851562,-0.664062 1.625,-1 2.3125,-1 z m 0,0"
         id="path491" />
    </g>
  </g>
  <g
     style="fill:#000000;fill-opacity:1"
     id="g501"
     transform="translate(-174.57031,-633.9375)">
    <g
       transform="translate(211.43138,691.66252)"
       id="g499">
      <path
         style="stroke:none"
         d="m 1.59375,-7.53125 v 6.234375 c 0,0.511719 0.253906,0.765625 0.765625,0.765625 H 2.90625 l 0.078125,0.515625 C 2.785156,0.0546875 2.5,0.09375 2.125,0.09375 1.75,0.09375 1.453125,-0.015625 1.234375,-0.234375 1.015625,-0.453125 0.90625,-0.757812 0.90625,-1.15625 v -6.375 z m 0,0"
         id="path497" />
    </g>
  </g>
  <g
     style="fill:#000000;fill-opacity:1"
     id="g507"
     transform="translate(-174.57031,-633.9375)">
    <g
       transform="translate(214.51537,691.66252)"
       id="g505">
      <path
         style="stroke:none"
         d="m 0.890625,-4.59375 -0.0625,-0.515625 c 1.039063,-0.15625 1.875,-0.234375 2.5,-0.234375 0.5625,0 0.976563,0.125 1.25,0.375 C 4.859375,-4.71875 5,-4.304688 5,-3.734375 V 0 H 4.46875 L 4.375,-0.90625 c -0.261719,0.25 -0.601562,0.480469 -1.015625,0.6875 -0.40625,0.2109375 -0.828125,0.3125 -1.265625,0.3125 -0.460938,0 -0.824219,-0.1171875 -1.09375,-0.359375 -0.261719,-0.25 -0.390625,-0.601563 -0.390625,-1.0625 v -0.59375 c 0,-0.40625 0.117187,-0.71875 0.359375,-0.9375 C 1.207031,-3.078125 1.546875,-3.1875 1.984375,-3.1875 H 4.3125 v -0.546875 c 0,-0.34375 -0.085938,-0.597656 -0.25,-0.765625 -0.15625,-0.164062 -0.445312,-0.25 -0.859375,-0.25 -0.617187,0 -1.386719,0.054688 -2.3125,0.15625 z m 0.40625,2.75 v 0.453125 c 0,0.585937 0.304687,0.875 0.921875,0.875 0.3125,0.011719 0.660156,-0.0625 1.046875,-0.21875 0.394531,-0.164063 0.742187,-0.382813 1.046875,-0.65625 v -1.25 H 2.078125 c -0.523437,0.023437 -0.78125,0.289063 -0.78125,0.796875 z m 0,0"
         id="path503" />
    </g>
  </g>
  <g
     style="fill:#000000;fill-opacity:1"
     id="g513"
     transform="translate(-174.57031,-633.9375)">
    <g
       transform="translate(220.37175,691.66252)"
       id="g511">
      <path
         style="stroke:none"
         d="m 1.5625,-7.53125 v 2.09375 c 0,0.5 -0.027344,0.871094 -0.078125,1.109375 0.695313,-0.675781 1.382813,-1.015625 2.0625,-1.015625 0.664063,0 1.144531,0.214844 1.4375,0.640625 0.300781,0.417969 0.453125,1.117187 0.453125,2.09375 0,0.949219 -0.167969,1.640625 -0.5,2.078125 C 4.601562,-0.09375 4.023438,0.125 3.203125,0.125 2.410156,0.125 1.632812,0.0078125 0.875,-0.21875 v -7.3125 z m 0,3.671875 v 3.1875 c 0.53125,0.15625 1.070312,0.226563 1.625,0.203125 0.5625,0 0.957031,-0.160156 1.1875,-0.484375 0.238281,-0.320313 0.359375,-0.875 0.359375,-1.65625 0,-0.800781 -0.101563,-1.351563 -0.296875,-1.65625 -0.199219,-0.3125 -0.558594,-0.46875 -1.078125,-0.46875 -0.28125,0 -0.554687,0.070313 -0.8125,0.203125 -0.261719,0.136719 -0.589844,0.359375 -0.984375,0.671875 z m 0,0"
         id="path509" />
    </g>
  </g>
  <g
     style="fill:#000000;fill-opacity:1"
     id="g519"
     transform="translate(-174.57031,-633.9375)">
    <g
       transform="translate(226.45378,691.66252)"
       id="g517">
      <path
         style="stroke:none"
         d="m 1.0625,-1.15625 h 0.234375 c 0.175781,0 0.265625,0.09375 0.265625,0.28125 v 0.609375 C 1.5625,-0.0859375 1.472656,0 1.296875,0 H 1.0625 c -0.167969,0 -0.25,-0.0859375 -0.25,-0.265625 V -0.875 c 0,-0.1875 0.082031,-0.28125 0.25,-0.28125 z m 0,0"
         id="path515" />
    </g>
  </g>
  <g
     style="fill:#000000;fill-opacity:1"
     id="g525"
     transform="translate(-174.57031,-633.9375)">
    <g
       transform="translate(228.82856,691.66252)"
       id="g523">
      <path
         style="stroke:none"
         d="m 1.1875,-4.71875 c 0.363281,-0.414062 0.984375,-0.625 1.859375,-0.625 0.875,0 1.488281,0.210938 1.84375,0.625 0.351563,0.40625 0.53125,1.117188 0.53125,2.125 0,1 -0.179687,1.703125 -0.53125,2.109375 C 4.535156,-0.078125 3.921875,0.125 3.046875,0.125 2.171875,0.125 1.550781,-0.078125 1.1875,-0.484375 0.820312,-0.898438 0.640625,-1.601562 0.640625,-2.59375 c 0,-1.007812 0.179687,-1.71875 0.546875,-2.125 z m 3.15625,0.4375 C 4.101562,-4.59375 3.664062,-4.75 3.03125,-4.75 c -0.625,0 -1.0625,0.15625 -1.3125,0.46875 -0.242188,0.304688 -0.359375,0.867188 -0.359375,1.6875 0,0.8125 0.117187,1.375 0.359375,1.6875 0.25,0.304688 0.6875,0.453125 1.3125,0.453125 0.632812,0 1.070312,-0.148437 1.3125,-0.453125 0.25,-0.3125 0.375,-0.875 0.375,-1.6875 0,-0.820312 -0.125,-1.382812 -0.375,-1.6875 z m 0,0"
         id="path521" />
    </g>
  </g>
  <g
     style="fill:#000000;fill-opacity:1"
     id="g531"
     transform="translate(-174.57031,-633.9375)">
    <g
       transform="translate(234.89985,691.66252)"
       id="g529">
      <path
         style="stroke:none"
         d="M 4.03125,-5.34375 3.9375,-4.703125 h -0.25 c -0.304688,0 -0.609375,0.0625 -0.921875,0.1875 -0.304687,0.125 -0.695313,0.335937 -1.171875,0.625 V 0 H 0.90625 V -5.203125 H 1.4375 L 1.5,-4.34375 c 0.851562,-0.664062 1.625,-1 2.3125,-1 z m 0,0"
         id="path527" />
    </g>
  </g>
  <g
     style="fill:#000000;fill-opacity:1"
     id="g537"
     transform="translate(-174.57031,-633.9375)">
    <g
       transform="translate(239.13362,691.66252)"
       id="g535">
      <path
         style="stroke:none"
         d="m 5.640625,-4.8125 -0.875,0.0625 c 0.207031,0.242188 0.3125,0.59375 0.3125,1.0625 0,0.5625 -0.167969,0.976562 -0.5,1.234375 C 4.242188,-2.191406 3.6875,-2.0625 2.90625,-2.0625 2.414062,-2.0625 2.019531,-2.109375 1.71875,-2.203125 1.613281,-2.066406 1.550781,-1.925781 1.53125,-1.78125 1.507812,-1.632812 1.546875,-1.5 1.640625,-1.375 1.734375,-1.25 1.894531,-1.164062 2.125,-1.125 l 2,0.328125 C 4.59375,-0.722656 4.914062,-0.570312 5.09375,-0.34375 5.28125,-0.125 5.375,0.203125 5.375,0.640625 5.375,1.222656 5.195312,1.628906 4.84375,1.859375 4.488281,2.085938 3.859375,2.203125 2.953125,2.203125 2.035156,2.203125 1.394531,2.085938 1.03125,1.859375 0.675781,1.640625 0.5,1.238281 0.5,0.65625 0.5,0.3125 0.5625,0.0390625 0.6875,-0.15625 0.820312,-0.363281 1.054688,-0.554688 1.390625,-0.734375 1.078125,-0.921875 0.925781,-1.1875 0.9375,-1.53125 0.945312,-1.875 1.085938,-2.148438 1.359375,-2.359375 0.929688,-2.585938 0.71875,-3.03125 0.71875,-3.6875 c 0,-0.582031 0.160156,-1.003906 0.484375,-1.265625 0.332031,-0.257813 0.898437,-0.390625 1.703125,-0.390625 0.476562,0 0.859375,0.046875 1.140625,0.140625 H 5.6875 Z m -3.9375,1.96875 c 0.238281,0.167969 0.632813,0.25 1.1875,0.25 0.5625,0 0.957031,-0.082031 1.1875,-0.25 0.226563,-0.175781 0.34375,-0.457031 0.34375,-0.84375 0,-0.40625 -0.117187,-0.691406 -0.34375,-0.859375 C 3.847656,-4.722656 3.457031,-4.8125 2.90625,-4.8125 c -0.574219,0 -0.976562,0.089844 -1.203125,0.265625 -0.230469,0.167969 -0.34375,0.453125 -0.34375,0.859375 0,0.386719 0.113281,0.667969 0.34375,0.84375 z m 0.140625,2.265625 -0.03125,0.03125 c -0.242188,0.167969 -0.40625,0.335937 -0.5,0.5 -0.09375,0.15625 -0.140625,0.375 -0.140625,0.65625 0,0.394531 0.125,0.660156 0.375,0.796875 0.25,0.144531 0.71875,0.21875 1.40625,0.21875 0.675781,0 1.132813,-0.074219 1.375,-0.21875 0.25,-0.148438 0.375,-0.414062 0.375,-0.796875 0,-0.304687 -0.058594,-0.5117188 -0.171875,-0.625 C 4.414062,-0.128906 4.171875,-0.21875 3.796875,-0.28125 Z m 0,0"
         id="path533" />
    </g>
  </g>
  <g
     clip-rule="nonzero"
     clip-path="url(#clip14)"
     id="g541"
     transform="translate(-174.57031,-633.9375)">
    <path
       style="fill:#ff0000;fill-opacity:1;fill-rule:nonzero;stroke:none"
       d="m 191.92969,704.94531 c -0.10547,-0.38672 -0.29688,-0.72265 -0.57813,-1.00781 -0.28125,-0.28516 -0.60937,-0.48047 -0.99219,-0.58594 -1.3789,-0.3789 -6.92578,-0.3789 -6.92578,-0.3789 0,0 -5.54687,0.0117 -6.92578,0.39062 -0.38281,0.10547 -0.71484,0.30078 -0.99609,0.58594 -0.27735,0.28515 -0.47266,0.62109 -0.57422,1.00781 -0.36719,1.39844 -0.36719,4.32031 -0.36719,4.32031 0,0 0,2.92188 0.37891,4.32813 0.10156,0.39062 0.29297,0.72656 0.57422,1.01172 0.28125,0.28515 0.61328,0.47656 0.99609,0.58203 1.37891,0.38281 6.92578,0.38281 6.92578,0.38281 0,0 5.54688,0 6.92578,-0.38281 0.38282,-0.10547 0.71094,-0.29688 0.99219,-0.58203 0.28125,-0.28516 0.47266,-0.6211 0.57813,-1.01172 0.375,-1.39453 0.375,-4.32813 0.375,-4.32813 0,0 -0.0117,-2.92187 -0.38672,-4.33203 z m 0,0"
       id="path539" />
  </g>
  <path
     style="fill:#ffffff;fill-opacity:1;fill-rule:nonzero;stroke:none"
     d="m 7.097658,78.04297 4.60156,-2.70313 -4.60156,-2.70312 z m 0,0"
     id="path543" />
  <g
     style="fill:#000000;fill-opacity:1"
     id="g549"
     transform="translate(-174.57031,-633.9375)">
    <g
       transform="translate(198.90198,713.14197)"
       id="g547">
      <path
         style="stroke:none"
         d="m 5.375,-0.59375 0.046875,0.546875 C 4.742188,-0.00390625 3.6875,0.015625 2.25,0.015625 1.851562,0.015625 1.535156,-0.09375 1.296875,-0.3125 1.054688,-0.539062 0.9375,-0.84375 0.9375,-1.21875 v -4.984375 c 0,-0.375 0.117188,-0.671875 0.359375,-0.890625 C 1.535156,-7.3125 1.851562,-7.421875 2.25,-7.421875 c 1.4375,0 2.492188,0.023437 3.171875,0.0625 L 5.375,-6.828125 H 2.359375 c -0.480469,0 -0.71875,0.261719 -0.71875,0.78125 v 1.828125 h 3.3125 v 0.5625 h -3.3125 v 2.296875 c 0,0.511719 0.238281,0.765625 0.71875,0.765625 z m 0,0"
         id="path545" />
    </g>
  </g>
  <g
     style="fill:#000000;fill-opacity:1"
     id="g555"
     transform="translate(-174.57031,-633.9375)">
    <g
       transform="translate(204.87823,713.14197)"
       id="g553">
      <path
         style="stroke:none"
         d="m 1.125,-7.390625 h 0.3125 c 0.15625,0 0.234375,0.074219 0.234375,0.21875 v 0.625 c 0,0.148437 -0.078125,0.21875 -0.234375,0.21875 H 1.125 c -0.148438,0 -0.21875,-0.070313 -0.21875,-0.21875 v -0.625 c 0,-0.144531 0.070312,-0.21875 0.21875,-0.21875 z M 1.625,0 H 0.953125 V -5.203125 H 1.625 Z m 0,0"
         id="path551" />
    </g>
  </g>
  <g
     style="fill:#000000;fill-opacity:1"
     id="g561"
     transform="translate(-174.57031,-633.9375)">
    <g
       transform="translate(207.4357,713.14197)"
       id="g559">
      <path
         style="stroke:none"
         d="M 4.03125,-5.34375 3.9375,-4.703125 h -0.25 c -0.304688,0 -0.609375,0.0625 -0.921875,0.1875 -0.304687,0.125 -0.695313,0.335937 -1.171875,0.625 V 0 H 0.90625 V -5.203125 H 1.4375 L 1.5,-4.34375 c 0.851562,-0.664062 1.625,-1 2.3125,-1 z m 0,0"
         id="path557" />
    </g>
  </g>
  <g
     style="fill:#000000;fill-opacity:1"
     id="g567"
     transform="translate(-174.57031,-633.9375)">
    <g
       transform="translate(211.66948,713.14197)"
       id="g565">
      <path
         style="stroke:none"
         d="M 1.671875,-7.421875 V -1.375 c 0,0.523438 0.257813,0.78125 0.78125,0.78125 H 5.21875 l 0.015625,0.546875 c -0.761719,0.04296875 -1.730469,0.0625 -2.90625,0.0625 -0.449219,0 -0.789063,-0.117187 -1.015625,-0.359375 -0.230469,-0.238281 -0.34375,-0.550781 -0.34375,-0.9375 v -6.140625 z m 0,0"
         id="path563" />
    </g>
  </g>
  <g
     style="fill:#000000;fill-opacity:1"
     id="g573"
     transform="translate(-174.57031,-633.9375)">
    <g
       transform="translate(217.1605,713.14197)"
       id="g571">
      <path
         style="stroke:none"
         d="m 0.890625,-4.59375 -0.0625,-0.515625 c 1.039063,-0.15625 1.875,-0.234375 2.5,-0.234375 0.5625,0 0.976563,0.125 1.25,0.375 C 4.859375,-4.71875 5,-4.304688 5,-3.734375 V 0 H 4.46875 L 4.375,-0.90625 c -0.261719,0.25 -0.601562,0.480469 -1.015625,0.6875 -0.40625,0.2109375 -0.828125,0.3125 -1.265625,0.3125 -0.460938,0 -0.824219,-0.1171875 -1.09375,-0.359375 -0.261719,-0.25 -0.390625,-0.601563 -0.390625,-1.0625 v -0.59375 c 0,-0.40625 0.117187,-0.71875 0.359375,-0.9375 C 1.207031,-3.078125 1.546875,-3.1875 1.984375,-3.1875 H 4.3125 v -0.546875 c 0,-0.34375 -0.085938,-0.597656 -0.25,-0.765625 -0.15625,-0.164062 -0.445312,-0.25 -0.859375,-0.25 -0.617187,0 -1.386719,0.054688 -2.3125,0.15625 z m 0.40625,2.75 v 0.453125 c 0,0.585937 0.304687,0.875 0.921875,0.875 0.3125,0.011719 0.660156,-0.0625 1.046875,-0.21875 0.394531,-0.164063 0.742187,-0.382813 1.046875,-0.65625 v -1.25 H 2.078125 c -0.523437,0.023437 -0.78125,0.289063 -0.78125,0.796875 z m 0,0"
         id="path569" />
    </g>
  </g>
  <g
     style="fill:#000000;fill-opacity:1"
     id="g579"
     transform="translate(-174.57031,-633.9375)">
    <g
       transform="translate(223.01687,713.14197)"
       id="g577">
      <path
         style="stroke:none"
         d="m 1.5625,-7.53125 v 2.09375 c 0,0.5 -0.027344,0.871094 -0.078125,1.109375 0.695313,-0.675781 1.382813,-1.015625 2.0625,-1.015625 0.664063,0 1.144531,0.214844 1.4375,0.640625 0.300781,0.417969 0.453125,1.117187 0.453125,2.09375 0,0.949219 -0.167969,1.640625 -0.5,2.078125 C 4.601562,-0.09375 4.023438,0.125 3.203125,0.125 2.410156,0.125 1.632812,0.0078125 0.875,-0.21875 v -7.3125 z m 0,3.671875 v 3.1875 c 0.53125,0.15625 1.070312,0.226563 1.625,0.203125 0.5625,0 0.957031,-0.160156 1.1875,-0.484375 0.238281,-0.320313 0.359375,-0.875 0.359375,-1.65625 0,-0.800781 -0.101563,-1.351563 -0.296875,-1.65625 -0.199219,-0.3125 -0.558594,-0.46875 -1.078125,-0.46875 -0.28125,0 -0.554687,0.070313 -0.8125,0.203125 -0.261719,0.136719 -0.589844,0.359375 -0.984375,0.671875 z m 0,0"
         id="path575" />
    </g>
  </g>
  <g
     style="fill:#000000;fill-opacity:1"
     id="g585"
     transform="translate(-174.57031,-633.9375)">
    <g
       transform="translate(229.0989,713.14197)"
       id="g583">
      <path
         style="stroke:none"
         d=""
         id="path581" />
    </g>
  </g>
  <g
     style="fill:#000000;fill-opacity:1"
     id="g591"
     transform="translate(-174.57031,-633.9375)">
    <g
       transform="translate(231.52742,713.14197)"
       id="g589">
      <path
         style="stroke:none"
         d="M 5.59375,-0.625 5.6875,-0.09375 C 5.125,0.0507812 4.414062,0.125 3.5625,0.125 c -1.054688,0 -1.792969,-0.285156 -2.21875,-0.859375 -0.417969,-0.570313 -0.625,-1.5625 -0.625,-2.96875 0,-1.414063 0.207031,-2.410156 0.625,-2.984375 0.425781,-0.570312 1.164062,-0.859375 2.21875,-0.859375 0.78125,0 1.4375,0.070313 1.96875,0.203125 L 5.453125,-6.8125 C 4.910156,-6.875 4.28125,-6.90625 3.5625,-6.90625 c -0.792969,0 -1.34375,0.234375 -1.65625,0.703125 -0.304688,0.460937 -0.453125,1.292969 -0.453125,2.5 0,1.199219 0.148437,2.03125 0.453125,2.5 C 2.21875,-0.734375 2.769531,-0.5 3.5625,-0.5 c 0.8125,0 1.488281,-0.039062 2.03125,-0.125 z m 0,0"
         id="path587" />
    </g>
  </g>
  <g
     style="fill:#000000;fill-opacity:1"
     id="g597"
     transform="translate(-174.57031,-633.9375)">
    <g
       transform="translate(237.6202,713.14197)"
       id="g595">
      <path
         style="stroke:none"
         d="m 1.1875,-4.71875 c 0.363281,-0.414062 0.984375,-0.625 1.859375,-0.625 0.875,0 1.488281,0.210938 1.84375,0.625 0.351563,0.40625 0.53125,1.117188 0.53125,2.125 0,1 -0.179687,1.703125 -0.53125,2.109375 C 4.535156,-0.078125 3.921875,0.125 3.046875,0.125 2.171875,0.125 1.550781,-0.078125 1.1875,-0.484375 0.820312,-0.898438 0.640625,-1.601562 0.640625,-2.59375 c 0,-1.007812 0.179687,-1.71875 0.546875,-2.125 z m 3.15625,0.4375 C 4.101562,-4.59375 3.664062,-4.75 3.03125,-4.75 c -0.625,0 -1.0625,0.15625 -1.3125,0.46875 -0.242188,0.304688 -0.359375,0.867188 -0.359375,1.6875 0,0.8125 0.117187,1.375 0.359375,1.6875 0.25,0.304688 0.6875,0.453125 1.3125,0.453125 0.632812,0 1.070312,-0.148437 1.3125,-0.453125 0.25,-0.3125 0.375,-0.875 0.375,-1.6875 0,-0.820312 -0.125,-1.382812 -0.375,-1.6875 z m 0,0"
         id="path593" />
    </g>
  </g>
  <g
     style="fill:#000000;fill-opacity:1"
     id="g603"
     transform="translate(-174.57031,-633.9375)">
    <g
       transform="translate(243.69148,713.14197)"
       id="g601">
      <path
         style="stroke:none"
         d="M 1.46875,-5.203125 1.5,-4.34375 c 0.769531,-0.664062 1.503906,-1 2.203125,-1 0.738281,0 1.175781,0.328125 1.3125,0.984375 C 5.773438,-5.015625 6.5,-5.34375 7.1875,-5.34375 c 0.445312,0 0.785156,0.125 1.015625,0.375 C 8.441406,-4.726562 8.5625,-4.375 8.5625,-3.90625 V 0 H 7.890625 V -3.734375 C 7.878906,-4.085938 7.800781,-4.34375 7.65625,-4.5 7.507812,-4.664062 7.28125,-4.75 6.96875,-4.75 6.675781,-4.75 6.394531,-4.679688 6.125,-4.546875 5.863281,-4.421875 5.507812,-4.1875 5.0625,-3.84375 V 0 H 4.40625 v -3.734375 c 0,-0.351563 -0.078125,-0.609375 -0.234375,-0.765625 -0.148437,-0.164062 -0.375,-0.25 -0.6875,-0.25 -0.28125,0 -0.558594,0.070312 -0.828125,0.203125 -0.273438,0.125 -0.632812,0.355469 -1.078125,0.6875 V 0 H 0.90625 v -5.203125 z m 0,0"
         id="path599" />
    </g>
  </g>
  <g
     style="fill:#000000;fill-opacity:1"
     id="g609"
     transform="translate(-174.57031,-633.9375)">
    <g
       transform="translate(253.11541,713.14197)"
       id="g607">
      <path
         style="stroke:none"
         d="M 1.46875,-5.203125 1.5,-4.34375 c 0.769531,-0.664062 1.503906,-1 2.203125,-1 0.738281,0 1.175781,0.328125 1.3125,0.984375 C 5.773438,-5.015625 6.5,-5.34375 7.1875,-5.34375 c 0.445312,0 0.785156,0.125 1.015625,0.375 C 8.441406,-4.726562 8.5625,-4.375 8.5625,-3.90625 V 0 H 7.890625 V -3.734375 C 7.878906,-4.085938 7.800781,-4.34375 7.65625,-4.5 7.507812,-4.664062 7.28125,-4.75 6.96875,-4.75 6.675781,-4.75 6.394531,-4.679688 6.125,-4.546875 5.863281,-4.421875 5.507812,-4.1875 5.0625,-3.84375 V 0 H 4.40625 v -3.734375 c 0,-0.351563 -0.078125,-0.609375 -0.234375,-0.765625 -0.148437,-0.164062 -0.375,-0.25 -0.6875,-0.25 -0.28125,0 -0.558594,0.070312 -0.828125,0.203125 -0.273438,0.125 -0.632812,0.355469 -1.078125,0.6875 V 0 H 0.90625 v -5.203125 z m 0,0"
         id="path605" />
    </g>
  </g>
  <g
     style="fill:#000000;fill-opacity:1"
     id="g615"
     transform="translate(-174.57031,-633.9375)">
    <g
       transform="translate(262.53933,713.14197)"
       id="g613">
      <path
         style="stroke:none"
         d="M 5.1875,-5.203125 V 0 H 4.640625 L 4.59375,-0.8125 C 3.789062,-0.1875 3.019531,0.125 2.28125,0.125 1.34375,0.125 0.875,-0.347656 0.875,-1.296875 v -3.90625 h 0.671875 v 3.734375 c 0,0.355469 0.070313,0.609375 0.21875,0.765625 0.15625,0.15625 0.398437,0.234375 0.734375,0.234375 0.300781,0 0.597656,-0.0625 0.890625,-0.1875 C 3.679688,-0.789062 4.050781,-1.015625 4.5,-1.328125 v -3.875 z m 0,0"
         id="path611" />
    </g>
  </g>
  <g
     style="fill:#000000;fill-opacity:1"
     id="g621"
     transform="translate(-174.57031,-633.9375)">
    <g
       transform="translate(268.63211,713.14197)"
       id="g619">
      <path
         style="stroke:none"
         d="m 1.46875,-5.203125 0.0625,0.859375 c 0.863281,-0.664062 1.664062,-1 2.40625,-1 0.925781,0 1.390625,0.480469 1.390625,1.4375 V 0 H 4.65625 v -3.734375 c 0,-0.363281 -0.074219,-0.625 -0.21875,-0.78125 C 4.300781,-4.671875 4.070312,-4.75 3.75,-4.75 c -0.3125,0 -0.632812,0.074219 -0.953125,0.21875 -0.3125,0.136719 -0.714844,0.367188 -1.203125,0.6875 V 0 h -0.6875 v -5.203125 z m 0,0"
         id="path617" />
    </g>
  </g>
  <g
     style="fill:#000000;fill-opacity:1"
     id="g627"
     transform="translate(-174.57031,-633.9375)">
    <g
       transform="translate(274.83234,713.14197)"
       id="g625">
      <path
         style="stroke:none"
         d="m 1.125,-7.390625 h 0.3125 c 0.15625,0 0.234375,0.074219 0.234375,0.21875 v 0.625 c 0,0.148437 -0.078125,0.21875 -0.234375,0.21875 H 1.125 c -0.148438,0 -0.21875,-0.070313 -0.21875,-0.21875 v -0.625 c 0,-0.144531 0.070312,-0.21875 0.21875,-0.21875 z M 1.625,0 H 0.953125 V -5.203125 H 1.625 Z m 0,0"
         id="path623" />
    </g>
  </g>
  <g
     style="fill:#000000;fill-opacity:1"
     id="g633"
     transform="translate(-174.57031,-633.9375)">
    <g
       transform="translate(277.3898,713.14197)"
       id="g631">
      <path
         style="stroke:none"
         d="m 3.546875,-0.53125 0.09375,0.515625 C 3.273438,0.0546875 2.910156,0.09375 2.546875,0.09375 1.679688,0.09375 1.25,-0.34375 1.25,-1.21875 V -4.671875 H 0.3125 V -5.15625 L 1.25,-5.203125 V -6.78125 h 0.6875 v 1.578125 h 1.765625 v 0.53125 H 1.9375 v 3.375 c 0,0.511719 0.253906,0.765625 0.765625,0.765625 z m 0,0"
         id="path629" />
    </g>
  </g>
  <g
     style="fill:#000000;fill-opacity:1"
     id="g639"
     transform="translate(-174.57031,-633.9375)">
    <g
       transform="translate(281.35495,713.14197)"
       id="g637">
      <path
         style="stroke:none"
         d="M 5.359375,-5.203125 3.15625,0.359375 C 2.945312,0.890625 2.6875,1.316406 2.375,1.640625 2.0625,1.972656 1.632812,2.164062 1.09375,2.21875 L 1.015625,1.78125 C 1.421875,1.644531 1.738281,1.453125 1.96875,1.203125 2.195312,0.960938 2.382812,0.660156 2.53125,0.296875 L 2.65625,0 H 2.484375 C 2.347656,0 2.257812,-0.0625 2.21875,-0.1875 L 0.234375,-5.203125 H 0.96875 L 2.5,-1.140625 c 0.113281,0.304687 0.1875,0.507813 0.21875,0.609375 H 2.875 l 0.21875,-0.625 1.53125,-4.046875 z m 0,0"
         id="path635" />
    </g>
  </g>
  <g
     style="fill:#000000;fill-opacity:1"
     id="g645"
     transform="translate(-174.57031,-633.9375)">
    <g
       transform="translate(286.95342,713.14197)"
       id="g643">
      <path
         style="stroke:none"
         d=""
         id="path641" />
    </g>
  </g>
  <g
     style="fill:#000000;fill-opacity:1"
     id="g651"
     transform="translate(-174.57031,-633.9375)">
    <g
       transform="translate(289.38194,713.14197)"
       id="g649">
      <path
         style="stroke:none"
         d="m 5.375,-0.59375 0.046875,0.546875 C 4.742188,-0.00390625 3.6875,0.015625 2.25,0.015625 1.851562,0.015625 1.535156,-0.09375 1.296875,-0.3125 1.054688,-0.539062 0.9375,-0.84375 0.9375,-1.21875 v -4.984375 c 0,-0.375 0.117188,-0.671875 0.359375,-0.890625 C 1.535156,-7.3125 1.851562,-7.421875 2.25,-7.421875 c 1.4375,0 2.492188,0.023437 3.171875,0.0625 L 5.375,-6.828125 H 2.359375 c -0.480469,0 -0.71875,0.261719 -0.71875,0.78125 v 1.828125 h 3.3125 v 0.5625 h -3.3125 v 2.296875 c 0,0.511719 0.238281,0.765625 0.71875,0.765625 z m 0,0"
         id="path647" />
    </g>
  </g>
  <g
     style="fill:#000000;fill-opacity:1"
     id="g657"
     transform="translate(-174.57031,-633.9375)">
    <g
       transform="translate(295.36726,713.14197)"
       id="g655">
      <path
         style="stroke:none"
         d="m 1.125,-7.390625 h 0.3125 c 0.15625,0 0.234375,0.074219 0.234375,0.21875 v 0.625 c 0,0.148437 -0.078125,0.21875 -0.234375,0.21875 H 1.125 c -0.148438,0 -0.21875,-0.070313 -0.21875,-0.21875 v -0.625 c 0,-0.144531 0.070312,-0.21875 0.21875,-0.21875 z M 1.625,0 H 0.953125 V -5.203125 H 1.625 Z m 0,0"
         id="path653" />
    </g>
  </g>
  <g
     style="fill:#000000;fill-opacity:1"
     id="g663"
     transform="translate(-174.57031,-633.9375)">
    <g
       transform="translate(297.92472,713.14197)"
       id="g661">
      <path
         style="stroke:none"
         d="M 4.03125,-5.34375 3.9375,-4.703125 h -0.25 c -0.304688,0 -0.609375,0.0625 -0.921875,0.1875 -0.304687,0.125 -0.695313,0.335937 -1.171875,0.625 V 0 H 0.90625 V -5.203125 H 1.4375 L 1.5,-4.34375 c 0.851562,-0.664062 1.625,-1 2.3125,-1 z m 0,0"
         id="path659" />
    </g>
  </g>
  <g
     style="fill:#000000;fill-opacity:1"
     id="g669"
     transform="translate(-174.57031,-633.9375)">
    <g
       transform="translate(302.1585,713.14197)"
       id="g667">
      <path
         style="stroke:none"
         d="M 1.671875,-7.421875 V -1.375 c 0,0.523438 0.257813,0.78125 0.78125,0.78125 H 5.21875 l 0.015625,0.546875 c -0.761719,0.04296875 -1.730469,0.0625 -2.90625,0.0625 -0.449219,0 -0.789063,-0.117187 -1.015625,-0.359375 -0.230469,-0.238281 -0.34375,-0.550781 -0.34375,-0.9375 v -6.140625 z m 0,0"
         id="path665" />
    </g>
  </g>
  <g
     style="fill:#000000;fill-opacity:1"
     id="g675"
     transform="translate(-174.57031,-633.9375)">
    <g
       transform="translate(307.64952,713.14197)"
       id="g673">
      <path
         style="stroke:none"
         d="m 0.890625,-4.59375 -0.0625,-0.515625 c 1.039063,-0.15625 1.875,-0.234375 2.5,-0.234375 0.5625,0 0.976563,0.125 1.25,0.375 C 4.859375,-4.71875 5,-4.304688 5,-3.734375 V 0 H 4.46875 L 4.375,-0.90625 c -0.261719,0.25 -0.601562,0.480469 -1.015625,0.6875 -0.40625,0.2109375 -0.828125,0.3125 -1.265625,0.3125 -0.460938,0 -0.824219,-0.1171875 -1.09375,-0.359375 -0.261719,-0.25 -0.390625,-0.601563 -0.390625,-1.0625 v -0.59375 c 0,-0.40625 0.117187,-0.71875 0.359375,-0.9375 C 1.207031,-3.078125 1.546875,-3.1875 1.984375,-3.1875 H 4.3125 v -0.546875 c 0,-0.34375 -0.085938,-0.597656 -0.25,-0.765625 -0.15625,-0.164062 -0.445312,-0.25 -0.859375,-0.25 -0.617187,0 -1.386719,0.054688 -2.3125,0.15625 z m 0.40625,2.75 v 0.453125 c 0,0.585937 0.304687,0.875 0.921875,0.875 0.3125,0.011719 0.660156,-0.0625 1.046875,-0.21875 0.394531,-0.164063 0.742187,-0.382813 1.046875,-0.65625 v -1.25 H 2.078125 c -0.523437,0.023437 -0.78125,0.289063 -0.78125,0.796875 z m 0,0"
         id="path671" />
    </g>
  </g>
  <g
     style="fill:#000000;fill-opacity:1"
     id="g681"
     transform="translate(-174.57031,-633.9375)">
    <g
       transform="translate(313.5059,713.14197)"
       id="g679">
      <path
         style="stroke:none"
         d="m 1.5625,-7.53125 v 2.09375 c 0,0.5 -0.027344,0.871094 -0.078125,1.109375 0.695313,-0.675781 1.382813,-1.015625 2.0625,-1.015625 0.664063,0 1.144531,0.214844 1.4375,0.640625 0.300781,0.417969 0.453125,1.117187 0.453125,2.09375 0,0.949219 -0.167969,1.640625 -0.5,2.078125 C 4.601562,-0.09375 4.023438,0.125 3.203125,0.125 2.410156,0.125 1.632812,0.0078125 0.875,-0.21875 v -7.3125 z m 0,3.671875 v 3.1875 c 0.53125,0.15625 1.070312,0.226563 1.625,0.203125 0.5625,0 0.957031,-0.160156 1.1875,-0.484375 0.238281,-0.320313 0.359375,-0.875 0.359375,-1.65625 0,-0.800781 -0.101563,-1.351563 -0.296875,-1.65625 -0.199219,-0.3125 -0.558594,-0.46875 -1.078125,-0.46875 -0.28125,0 -0.554687,0.070313 -0.8125,0.203125 -0.261719,0.136719 -0.589844,0.359375 -0.984375,0.671875 z m 0,0"
         id="path677" />
    </g>
  </g>
  <g
     clip-rule="nonzero"
     clip-path="url(#clip15)"
     id="g685"
     transform="translate(-174.57031,-633.9375)">
    <path
       style="fill:#000000;fill-opacity:1;fill-rule:nonzero;stroke:none"
       d="m 182.69141,723.11328 c -4.34766,0 -7.8711,3.52344 -7.8711,7.86719 0,3.6875 2.53906,6.77344 5.96094,7.625 -0.0352,-0.10547 -0.0586,-0.22656 -0.0586,-0.37891 v -1.34765 c -0.32032,0 -0.85547,0 -0.98829,0 -0.53906,0 -1.01953,-0.23047 -1.25,-0.66016 -0.25781,-0.48047 -0.30078,-1.21094 -0.9414,-1.65625 -0.1875,-0.14844 -0.043,-0.32031 0.17187,-0.29688 0.40625,0.11329 0.73828,0.39063 1.05469,0.80079 0.3125,0.41015 0.46094,0.5039 1.04688,0.5039 0.28515,0 0.70703,-0.0156 1.10937,-0.0781 0.21484,-0.54688 0.58594,-1.05078 1.03906,-1.28516 -2.62109,-0.26953 -3.87109,-1.57422 -3.87109,-3.34375 0,-0.76172 0.32422,-1.5 0.87891,-2.12109 -0.1836,-0.61719 -0.41016,-1.8711 0.0664,-2.35157 1.17969,0 1.89453,0.76563 2.06641,0.97266 0.58594,-0.20312 1.23047,-0.31641 1.91015,-0.31641 0.67969,0 1.32422,0.11329 1.91407,0.31641 0.16797,-0.20703 0.88281,-0.97266 2.0664,-0.97266 0.48047,0.48047 0.25,1.74219 0.0664,2.35547 0.54687,0.6211 0.87109,1.35547 0.87109,2.11719 0,1.76953 -1.25,3.07031 -3.86718,3.33984 0.72265,0.37891 1.24609,1.4336 1.24609,2.23047 v 1.79297 c 0,0.0664 -0.0156,0.11719 -0.0234,0.17578 3.06641,-1.07812 5.26953,-3.98828 5.26953,-7.42187 0,-4.34375 -3.52343,-7.86719 -7.86718,-7.86719 z m 0,0"
       id="path683" />
  </g>
  <g
     style="fill:#000000;fill-opacity:1"
     id="g691"
     transform="translate(-174.57031,-633.9375)">
    <g
       transform="translate(198.90198,734.61658)"
       id="g689">
      <path
         style="stroke:none"
         d="m 5.375,-0.59375 0.046875,0.546875 C 4.742188,-0.00390625 3.6875,0.015625 2.25,0.015625 1.851562,0.015625 1.535156,-0.09375 1.296875,-0.3125 1.054688,-0.539062 0.9375,-0.84375 0.9375,-1.21875 v -4.984375 c 0,-0.375 0.117188,-0.671875 0.359375,-0.890625 C 1.535156,-7.3125 1.851562,-7.421875 2.25,-7.421875 c 1.4375,0 2.492188,0.023437 3.171875,0.0625 L 5.375,-6.828125 H 2.359375 c -0.480469,0 -0.71875,0.261719 -0.71875,0.78125 v 1.828125 h 3.3125 v 0.5625 h -3.3125 v 2.296875 c 0,0.511719 0.238281,0.765625 0.71875,0.765625 z m 0,0"
         id="path687" />
    </g>
  </g>
  <g
     style="fill:#000000;fill-opacity:1"
     id="g697"
     transform="translate(-174.57031,-633.9375)">
    <g
       transform="translate(204.8873,734.61658)"
       id="g695">
      <path
         style="stroke:none"
         d="m 1.125,-7.390625 h 0.3125 c 0.15625,0 0.234375,0.074219 0.234375,0.21875 v 0.625 c 0,0.148437 -0.078125,0.21875 -0.234375,0.21875 H 1.125 c -0.148438,0 -0.21875,-0.070313 -0.21875,-0.21875 v -0.625 c 0,-0.144531 0.070312,-0.21875 0.21875,-0.21875 z M 1.625,0 H 0.953125 V -5.203125 H 1.625 Z m 0,0"
         id="path693" />
    </g>
  </g>
  <g
     style="fill:#000000;fill-opacity:1"
     id="g703"
     transform="translate(-174.57031,-633.9375)">
    <g
       transform="translate(207.44476,734.61658)"
       id="g701">
      <path
         style="stroke:none"
         d="M 4.03125,-5.34375 3.9375,-4.703125 h -0.25 c -0.304688,0 -0.609375,0.0625 -0.921875,0.1875 -0.304687,0.125 -0.695313,0.335937 -1.171875,0.625 V 0 H 0.90625 V -5.203125 H 1.4375 L 1.5,-4.34375 c 0.851562,-0.664062 1.625,-1 2.3125,-1 z m 0,0"
         id="path699" />
    </g>
  </g>
  <g
     style="fill:#000000;fill-opacity:1"
     id="g709"
     transform="translate(-174.57031,-633.9375)">
    <g
       transform="translate(211.67854,734.61658)"
       id="g707">
      <path
         style="stroke:none"
         d="m 1.59375,-7.53125 v 6.234375 c 0,0.511719 0.253906,0.765625 0.765625,0.765625 H 2.90625 l 0.078125,0.515625 C 2.785156,0.0546875 2.5,0.09375 2.125,0.09375 1.75,0.09375 1.453125,-0.015625 1.234375,-0.234375 1.015625,-0.453125 0.90625,-0.757812 0.90625,-1.15625 v -6.375 z m 0,0"
         id="path705" />
    </g>
  </g>
  <g
     style="fill:#000000;fill-opacity:1"
     id="g715"
     transform="translate(-174.57031,-633.9375)">
    <g
       transform="translate(214.76253,734.61658)"
       id="g713">
      <path
         style="stroke:none"
         d="m 0.890625,-4.59375 -0.0625,-0.515625 c 1.039063,-0.15625 1.875,-0.234375 2.5,-0.234375 0.5625,0 0.976563,0.125 1.25,0.375 C 4.859375,-4.71875 5,-4.304688 5,-3.734375 V 0 H 4.46875 L 4.375,-0.90625 c -0.261719,0.25 -0.601562,0.480469 -1.015625,0.6875 -0.40625,0.2109375 -0.828125,0.3125 -1.265625,0.3125 -0.460938,0 -0.824219,-0.1171875 -1.09375,-0.359375 -0.261719,-0.25 -0.390625,-0.601563 -0.390625,-1.0625 v -0.59375 c 0,-0.40625 0.117187,-0.71875 0.359375,-0.9375 C 1.207031,-3.078125 1.546875,-3.1875 1.984375,-3.1875 H 4.3125 v -0.546875 c 0,-0.34375 -0.085938,-0.597656 -0.25,-0.765625 -0.15625,-0.164062 -0.445312,-0.25 -0.859375,-0.25 -0.617187,0 -1.386719,0.054688 -2.3125,0.15625 z m 0.40625,2.75 v 0.453125 c 0,0.585937 0.304687,0.875 0.921875,0.875 0.3125,0.011719 0.660156,-0.0625 1.046875,-0.21875 0.394531,-0.164063 0.742187,-0.382813 1.046875,-0.65625 v -1.25 H 2.078125 c -0.523437,0.023437 -0.78125,0.289063 -0.78125,0.796875 z m 0,0"
         id="path711" />
    </g>
  </g>
  <g
     style="fill:#000000;fill-opacity:1"
     id="g721"
     transform="translate(-174.57031,-633.9375)">
    <g
       transform="translate(220.61891,734.61658)"
       id="g719">
      <path
         style="stroke:none"
         d="m 1.5625,-7.53125 v 2.09375 c 0,0.5 -0.027344,0.871094 -0.078125,1.109375 0.695313,-0.675781 1.382813,-1.015625 2.0625,-1.015625 0.664063,0 1.144531,0.214844 1.4375,0.640625 0.300781,0.417969 0.453125,1.117187 0.453125,2.09375 0,0.949219 -0.167969,1.640625 -0.5,2.078125 C 4.601562,-0.09375 4.023438,0.125 3.203125,0.125 2.410156,0.125 1.632812,0.0078125 0.875,-0.21875 v -7.3125 z m 0,3.671875 v 3.1875 c 0.53125,0.15625 1.070312,0.226563 1.625,0.203125 0.5625,0 0.957031,-0.160156 1.1875,-0.484375 0.238281,-0.320313 0.359375,-0.875 0.359375,-1.65625 0,-0.800781 -0.101563,-1.351563 -0.296875,-1.65625 -0.199219,-0.3125 -0.558594,-0.46875 -1.078125,-0.46875 -0.28125,0 -0.554687,0.070313 -0.8125,0.203125 -0.261719,0.136719 -0.589844,0.359375 -0.984375,0.671875 z m 0,0"
         id="path717" />
    </g>
  </g>
</svg>
